<svg xmlns="http://www.w3.org/2000/svg" width="400.465" height="145.131" viewBox="2.552 -93.395 400.465 145.131"><symbol id="STIXTwoMathRegular_1138" viewBox="0 -31.524 5.112 51.216"><path d="M 5.112 0 L 5.112 0 L 0.96 0 L 0.96 -0.336 Q 1.812 -0.336 2.16 -0.516 Q 2.508 -0.696 2.508 -1.14 L 2.508 -6.216 Q 2.508 -6.528 2.424 -6.666 Q 2.34 -6.804 2.112 -6.804 Q 1.932 -6.804 1.548 -6.756 Q 1.164 -6.708 0.888 -6.612 L 0.888 -7.008 L 3.216 -7.668 L 3.564 -7.668 L 3.564 -1.14 Q 3.564 -0.696 3.924 -0.516 Q 4.284 -0.336 5.112 -0.336 Z " /></symbol><use href="#STIXTwoMathRegular_1138" x="0" y="-126.096" width="20.448" height="204.864" fill="white" /><symbol id="STIXTwoMathRegular_1140" viewBox="0 -31.524 5.328 51.216"><path d="M 1.032 -5.976 L 1.032 -5.976 L 0.756 -6.132 Q 1.44 -7.728 2.928 -7.728 Q 3.852 -7.728 4.356 -7.266 Q 4.86 -6.804 4.86 -6.12 Q 4.86 -5.496 4.494 -5.112 Q 4.128 -4.728 3.564 -4.368 L 3.564 -4.332 Q 4.044 -4.188 4.446 -3.918 Q 4.848 -3.648 5.088 -3.258 Q 5.328 -2.868 5.328 -2.328 Q 5.328 -1.512 4.872 -0.954 Q 4.416 -0.396 3.672 -0.12 Q 2.928 0.156 2.052 0.156 Q 1.512 0.156 1.224 0.054 Q 0.936 -0.048 0.822 -0.198 Q 0.708 -0.348 0.708 -0.504 Q 0.708 -0.696 0.828 -0.864 Q 0.948 -1.032 1.176 -1.032 Q 1.32 -1.032 1.446 -0.978 Q 1.572 -0.924 1.884 -0.756 Q 2.268 -0.564 2.454 -0.504 Q 2.64 -0.444 2.856 -0.444 Q 3.24 -0.444 3.576 -0.582 Q 3.912 -0.72 4.128 -1.05 Q 4.344 -1.38 4.344 -1.968 Q 4.344 -2.508 4.044 -2.904 Q 3.744 -3.3 3.246 -3.522 Q 2.748 -3.744 2.172 -3.744 L 1.932 -3.744 L 1.932 -4.2 L 2.16 -4.2 Q 2.568 -4.2 2.952 -4.404 Q 3.336 -4.608 3.582 -4.98 Q 3.828 -5.352 3.828 -5.832 Q 3.828 -6.36 3.498 -6.654 Q 3.168 -6.948 2.604 -6.948 Q 2.064 -6.948 1.704 -6.702 Q 1.344 -6.456 1.032 -5.976 Z " /></symbol><use href="#STIXTwoMathRegular_1140" x="23.76" y="-126.096" width="21.312" height="204.864" fill="white" /><use href="#STIXTwoMathRegular_1138" x="47.52" y="-126.096" width="20.448" height="204.864" fill="white" /><symbol id="STIXTwoMathRegular_1137" viewBox="0 -31.524 5.616 51.216"><path d="M 5.616 -3.804 L 5.616 -3.804 Q 5.616 -3.036 5.466 -2.328 Q 5.316 -1.62 4.998 -1.068 Q 4.68 -0.516 4.176 -0.192 Q 3.672 0.132 2.964 0.132 Q 2.244 0.132 1.74 -0.186 Q 1.236 -0.504 0.924 -1.056 Q 0.612 -1.608 0.468 -2.328 Q 0.324 -3.048 0.324 -3.84 Q 0.324 -4.98 0.63 -5.85 Q 0.936 -6.72 1.53 -7.212 Q 2.124 -7.704 2.988 -7.704 Q 3.768 -7.704 4.356 -7.242 Q 4.944 -6.78 5.28 -5.91 Q 5.616 -5.04 5.616 -3.804 Z M 4.452 -3.732 L 4.452 -3.732 Q 4.452 -5.556 4.074 -6.426 Q 3.696 -7.296 2.952 -7.296 Q 2.244 -7.296 1.86 -6.432 Q 1.476 -5.568 1.476 -3.78 Q 1.476 -2.04 1.86 -1.17 Q 2.244 -0.3 2.964 -0.3 Q 3.672 -0.3 4.062 -1.152 Q 4.452 -2.004 4.452 -3.732 Z " /></symbol><use href="#STIXTwoMathRegular_1137" x="71.28" y="-126.096" width="22.464" height="204.864" fill="white" /><symbol id="STIXTwoMathRegular_1144" viewBox="0 -31.524 5.568 51.216"><path d="M 5.568 -7.188 L 5.568 -7.188 L 2.76 0.096 L 1.812 0.096 L 4.644 -6.588 L 1.968 -6.588 Q 1.632 -6.588 1.452 -6.528 Q 1.272 -6.468 1.158 -6.276 Q 1.044 -6.084 0.876 -5.688 L 0.504 -5.724 L 0.984 -7.56 L 5.568 -7.56 Z " /></symbol><use href="#STIXTwoMathRegular_1144" x="95.04" y="-126.096" width="22.272" height="204.864" fill="white" /><use href="#STIXTwoMathRegular_1138" x="118.8" y="-126.096" width="20.448" height="204.864" fill="white" /><symbol id="STIXTwoMathRegular_1202" viewBox="0 -31.524 7.896 51.216"><path d="M 7.896 -3.924 L 7.896 -3.924 L 0.744 -3.924 L 0.744 -4.74 L 7.896 -4.74 Z M 7.896 -1.476 L 7.896 -1.476 L 0.744 -1.476 L 0.744 -2.28 L 7.896 -2.28 Z " /></symbol><use href="#STIXTwoMathRegular_1202" x="160.333" y="-126.096" width="31.584" height="204.864" fill="white" /><symbol id="STIXTwoMathRegular_1647" viewBox="0 -31.524 12.564 51.216"><path d="M 12.564 0 L 12.564 0 L 11.616 4.872 L 0.18 4.872 L 0.18 4.56 L 6.312 -3.36 L 0.348 -10.656 L 0.348 -11.028 L 11.88 -11.028 L 12.048 -7.152 L 11.508 -7.152 Q 11.388 -8.184 11.148 -8.802 Q 10.908 -9.42 10.506 -9.738 Q 10.104 -10.056 9.492 -10.164 Q 8.88 -10.272 7.992 -10.272 L 2.688 -10.272 L 2.688 -10.212 L 7.668 -4.032 L 7.668 -3.792 L 2.196 3.336 L 2.196 3.408 L 9.048 3.408 Q 9.732 3.408 10.182 3.198 Q 10.632 2.988 10.944 2.568 Q 11.256 2.148 11.49 1.506 Q 11.724 0.864 11.976 0 Z " /></symbol><use href="#STIXTwoMathRegular_1647" x="235.71" y="-126.096" width="50.256" height="204.864" fill="white" /><symbol id="STIXTwoMathRegular_1657" viewBox="0 -31.524 9.948 51.216"><path d="M 8.004 -11.064 L 8.004 -11.064 L 9.948 -11.064 L 9.948 -10.248 L 8.556 -10.248 L 4.956 3.18 L 4.452 3.18 L 1.656 -3.828 L 0.408 -3.348 L 0.216 -3.684 L 2.124 -5.004 L 2.364 -5.004 L 4.74 1.116 L 4.788 1.116 Z " /></symbol><use href="#STIXTwoMathRegular_1657" x="237.988" y="-149.683" width="27.854" height="143.405" fill="white" /><symbol id="STIXTwoMathRegular_1141" viewBox="0 -31.524 5.772 51.216"><path d="M 5.772 -1.896 L 5.772 -1.896 L 4.548 -1.896 L 4.548 0 L 3.48 0 L 3.48 -1.896 L 0.156 -1.896 L 0.156 -2.652 L 3.816 -7.74 L 4.548 -7.74 L 4.548 -2.724 L 5.772 -2.724 Z M 3.48 -2.724 L 3.48 -2.724 L 3.48 -6.432 L 3.432 -6.432 L 0.816 -2.772 L 0.816 -2.724 Z " /></symbol><use href="#STIXTwoMathRegular_1141" x="264.666" y="-144.811" width="16.162" height="143.405" fill="white" /><symbol id="STIXTwoMathRegular_4277" viewBox="0 -31.524 6.444 51.216"><path d="M 6.444 -1.896 L 6.444 -1.896 L 5.136 -1.896 L 5.136 0 L 3.948 0 L 3.948 -1.896 L 0.42 -1.896 L 0.42 -2.808 L 4.272 -8.04 L 5.136 -8.04 L 5.136 -2.88 L 6.444 -2.88 Z M 3.948 -2.88 L 3.948 -2.88 L 3.948 -6.588 L 3.876 -6.588 L 1.236 -2.952 L 1.236 -2.88 Z " /></symbol><use href="#STIXTwoMathRegular_4277" x="280.626" y="-130.427" width="12.63" height="100.383" fill="white" /><rect x="264.666" y="-92.395" width="29.225" height="2.285" fill="white" /><symbol id="STIXTwoMathRegular_4450" viewBox="0 -31.524 7.224 51.216"><path d="M 4.236 -3.852 L 4.236 -3.852 L 4.86 -4.956 Q 5.148 -5.436 5.556 -5.82 Q 5.964 -6.204 6.552 -6.204 Q 6.936 -6.204 7.08 -6.054 Q 7.224 -5.904 7.224 -5.628 Q 7.224 -5.388 7.044 -5.184 Q 6.864 -4.98 6.612 -4.98 Q 6.492 -4.98 6.258 -5.052 Q 6.024 -5.124 5.928 -5.124 Q 5.664 -5.124 5.514 -4.986 Q 5.364 -4.848 5.208 -4.608 L 4.404 -3.3 L 4.704 -2.412 Q 4.98 -1.5 5.208 -1.158 Q 5.436 -0.816 5.724 -0.816 Q 5.964 -0.816 6.162 -1.014 Q 6.36 -1.212 6.636 -1.56 L 6.948 -1.32 Q 6.768 -1.044 6.528 -0.702 Q 6.288 -0.36 5.946 -0.12 Q 5.604 0.12 5.136 0.12 Q 4.62 0.12 4.368 -0.246 Q 4.116 -0.612 3.948 -1.308 L 3.684 -2.484 L 3.624 -2.484 L 2.772 -1.14 Q 2.448 -0.648 2.082 -0.264 Q 1.716 0.12 1.14 0.12 Q 0.708 0.12 0.534 -0.09 Q 0.36 -0.3 0.36 -0.528 Q 0.36 -0.732 0.504 -0.924 Q 0.648 -1.116 0.852 -1.116 Q 1.056 -1.116 1.32 -1.038 Q 1.584 -0.96 1.704 -0.96 Q 1.704 -0.96 1.704 -0.96 Q 1.74 -0.96 1.83 -0.99 Q 1.92 -1.02 2.076 -1.17 Q 2.232 -1.32 2.496 -1.68 L 3.432 -2.988 L 3.06 -4.176 Q 2.88 -4.728 2.7 -5.034 Q 2.52 -5.34 2.262 -5.46 Q 2.004 -5.58 1.596 -5.568 Q 1.464 -5.568 1.368 -5.562 Q 1.272 -5.556 1.272 -5.556 L 1.272 -6.012 L 3.12 -6.156 L 3.396 -6.156 Q 3.588 -5.844 3.75 -5.394 Q 3.912 -4.944 3.996 -4.62 L 4.164 -3.852 Z " /></symbol><use href="#STIXTwoMathRegular_4450" x="212.667" y="-37.867" width="20.227" height="143.405" fill="white" /><symbol id="STIXTwoMathRegular_4285" viewBox="0 -31.524 8.376 51.216"><path d="M 8.376 -1.26 L 8.376 -1.26 L 0.888 -1.26 L 0.888 -2.196 L 8.376 -2.196 Z M 8.376 -4.188 L 8.376 -4.188 L 0.888 -4.188 L 0.888 -5.124 L 8.376 -5.124 Z " /></symbol><use href="#STIXTwoMathRegular_4285" x="234.003" y="-37.867" width="23.453" height="143.405" fill="white" /><use href="#STIXTwoMathRegular_4277" x="257.456" y="-37.867" width="18.043" height="143.405" fill="white" /><symbol id="STIXTwoMathRegular_4284" viewBox="0 -31.524 8.376 51.216"><path d="M 8.376 -2.724 L 8.376 -2.724 L 0.888 -2.724 L 0.888 -3.66 L 8.376 -3.66 Z " /></symbol><use href="#STIXTwoMathRegular_4284" x="276.406" y="-37.867" width="23.453" height="143.405" fill="white" /><use href="#STIXTwoMathRegular_4277" x="299.859" y="-37.867" width="18.043" height="143.405" fill="white" /><use href="#STIXTwoMathRegular_1657" x="318.809" y="-126.096" width="39.792" height="204.864" fill="white" /><use href="#STIXTwoMathRegular_1141" x="356.921" y="-126.096" width="23.088" height="204.864" fill="white" /><rect x="356.921" y="-44.256" width="23.76" height="3.264" fill="white" /><use href="#STIXTwoMathRegular_4450" x="380.681" y="-121.483" width="20.227" height="143.405" fill="white" /></svg>