<svg xmlns="http://www.w3.org/2000/svg" width="494.406" height="112.16" viewBox="2.552 -79.192 494.406 112.16"><symbol id="STIXTwoMathRegular_1138" viewBox="0 -31.524 5.112 51.216"><path d="M 5.112 0 L 5.112 0 L 0.96 0 L 0.96 -0.336 Q 1.812 -0.336 2.16 -0.516 Q 2.508 -0.696 2.508 -1.14 L 2.508 -6.216 Q 2.508 -6.528 2.424 -6.666 Q 2.34 -6.804 2.112 -6.804 Q 1.932 -6.804 1.548 -6.756 Q 1.164 -6.708 0.888 -6.612 L 0.888 -7.008 L 3.216 -7.668 L 3.564 -7.668 L 3.564 -1.14 Q 3.564 -0.696 3.924 -0.516 Q 4.284 -0.336 5.112 -0.336 Z " /></symbol><use href="#STIXTwoMathRegular_1138" x="0" y="-126.096" width="20.448" height="204.864" fill="white" /><symbol id="STIXTwoMathRegular_1142" viewBox="0 -31.524 5.316 51.216"><path d="M 5.004 -6.588 L 5.004 -6.588 L 2.184 -6.588 L 1.86 -5.22 L 2.424 -5.184 Q 2.952 -5.148 3.468 -5.004 Q 3.984 -4.86 4.404 -4.572 Q 4.824 -4.284 5.07 -3.81 Q 5.316 -3.336 5.316 -2.628 Q 5.316 -1.704 4.908 -1.086 Q 4.5 -0.468 3.774 -0.156 Q 3.048 0.156 2.088 0.156 Q 0.708 0.156 0.708 -0.516 Q 0.708 -0.72 0.834 -0.876 Q 0.96 -1.032 1.188 -1.032 Q 1.428 -1.032 1.662 -0.888 Q 1.896 -0.744 2.172 -0.594 Q 2.448 -0.444 2.832 -0.444 Q 3.264 -0.444 3.63 -0.612 Q 3.996 -0.78 4.218 -1.152 Q 4.44 -1.524 4.44 -2.148 Q 4.44 -3.276 3.768 -3.72 Q 3.096 -4.164 1.848 -4.224 Q 1.62 -4.248 1.53 -4.248 Q 1.44 -4.248 1.308 -4.248 L 1.164 -4.428 L 1.908 -7.56 L 5.196 -7.56 Z " /></symbol><use href="#STIXTwoMathRegular_1142" x="23.76" y="-126.096" width="21.264" height="204.864" fill="white" /><symbol id="STIXTwoMathRegular_1202" viewBox="0 -31.524 7.896 51.216"><path d="M 7.896 -3.924 L 7.896 -3.924 L 0.744 -3.924 L 0.744 -4.74 L 7.896 -4.74 Z M 7.896 -1.476 L 7.896 -1.476 L 0.744 -1.476 L 0.744 -2.28 L 7.896 -2.28 Z " /></symbol><use href="#STIXTwoMathRegular_1202" x="65.293" y="-126.096" width="31.584" height="204.864" fill="white" /><symbol id="STIXTwoMathRegular_1141" viewBox="0 -31.524 5.772 51.216"><path d="M 5.772 -1.896 L 5.772 -1.896 L 4.548 -1.896 L 4.548 0 L 3.48 0 L 3.48 -1.896 L 0.156 -1.896 L 0.156 -2.652 L 3.816 -7.74 L 4.548 -7.74 L 4.548 -2.724 L 5.772 -2.724 Z M 3.48 -2.724 L 3.48 -2.724 L 3.48 -6.432 L 3.432 -6.432 L 0.816 -2.772 L 0.816 -2.724 Z " /></symbol><use href="#STIXTwoMathRegular_1141" x="164.845" y="-156.816" width="23.088" height="204.864" fill="white" /><symbol id="STIXTwoMathRegular_1054" viewBox="0 -31.524 2.412 51.216"><path d="M 1.476 -2.04 L 1.476 -2.04 L 1.104 -6.456 Q 1.092 -6.708 1.074 -6.9 Q 1.056 -7.092 1.056 -7.236 Q 1.056 -7.572 1.188 -7.8 Q 1.32 -8.028 1.692 -8.028 Q 2.04 -8.028 2.184 -7.8 Q 2.328 -7.572 2.328 -7.212 Q 2.328 -6.876 2.292 -6.456 L 1.896 -2.04 Z M 2.412 -0.588 L 2.412 -0.588 Q 2.412 -0.312 2.226 -0.108 Q 2.04 0.096 1.692 0.096 Q 1.344 0.096 1.164 -0.102 Q 0.984 -0.3 0.984 -0.6 Q 0.984 -0.9 1.17 -1.116 Q 1.356 -1.332 1.692 -1.332 Q 2.04 -1.332 2.226 -1.11 Q 2.412 -0.888 2.412 -0.588 Z " /></symbol><use href="#STIXTwoMathRegular_1054" x="195.715" y="-156.816" width="9.648" height="204.864" fill="white" /><use href="#STIXTwoMathRegular_1141" x="128.603" y="-95.376" width="23.088" height="204.864" fill="white" /><symbol id="STIXTwoMathRegular_1200" viewBox="0 -31.524 7.332 51.216"><path d="M 7.332 -0.264 L 7.332 -0.264 L 6.768 0.312 L 3.924 -2.52 L 1.092 0.312 L 0.528 -0.252 L 3.348 -3.096 L 0.528 -5.928 L 1.104 -6.492 L 3.924 -3.672 L 6.768 -6.492 L 7.332 -5.94 L 4.512 -3.096 Z " /></symbol><use href="#STIXTwoMathRegular_1200" x="159.472" y="-95.376" width="29.328" height="204.864" fill="white" /><symbol id="STIXTwoMathRegular_6752" viewBox="0 -31.524 0 51.216" /><use href="#STIXTwoMathRegular_6752" x="198.021" y="-95.376" width="0" height="204.864" fill="white" /><symbol id="STIXTwoMathRegular_1052" viewBox="0 -31.524 2.196 51.216"><path d="M 2.196 -0.6 L 2.196 -0.6 Q 2.196 -0.324 2.004 -0.114 Q 1.812 0.096 1.452 0.096 Q 1.092 0.096 0.918 -0.108 Q 0.744 -0.312 0.744 -0.612 Q 0.744 -0.924 0.936 -1.146 Q 1.128 -1.368 1.464 -1.368 Q 1.812 -1.368 2.004 -1.14 Q 2.196 -0.912 2.196 -0.6 Z " /></symbol><use href="#STIXTwoMathRegular_1052" x="204.021" y="-95.376" width="8.784" height="204.864" fill="white" /><use href="#STIXTwoMathRegular_1141" x="215.781" y="-95.376" width="23.088" height="204.864" fill="white" /><use href="#STIXTwoMathRegular_6752" x="239.541" y="-95.376" width="0" height="204.864" fill="white" /><rect x="128.291" y="-14.016" width="116.939" height="3.264" fill="white" /><use href="#STIXTwoMathRegular_1202" x="273.667" y="-126.096" width="31.584" height="204.864" fill="white" /><use href="#STIXTwoMathRegular_1141" x="336.976" y="-160.032" width="23.088" height="204.864" fill="white" /><symbol id="STIXTwoMathRegular_1196" viewBox="0 -31.524 7.896 51.216"><path d="M 7.896 -2.7 L 7.896 -2.7 L 4.752 -2.7 L 4.752 0.48 L 3.888 0.48 L 3.888 -2.7 L 0.744 -2.7 L 0.744 -3.516 L 3.888 -3.516 L 3.888 -6.696 L 4.752 -6.696 L 4.752 -3.516 L 7.896 -3.516 Z " /></symbol><use href="#STIXTwoMathRegular_1196" x="374.955" y="-160.032" width="31.584" height="204.864" fill="white" /><symbol id="STIXTwoMathRegular_1657" viewBox="0 -31.524 9.948 51.216"><path d="M 8.004 -11.064 L 8.004 -11.064 L 9.948 -11.064 L 9.948 -10.248 L 8.556 -10.248 L 4.956 3.18 L 4.452 3.18 L 1.656 -3.828 L 0.408 -3.348 L 0.216 -3.684 L 2.124 -5.004 L 2.364 -5.004 L 4.74 1.116 L 4.788 1.116 Z " /></symbol><use href="#STIXTwoMathRegular_1657" x="423.734" y="-160.032" width="39.792" height="204.864" fill="white" /><use href="#STIXTwoMathRegular_1141" x="461.846" y="-160.032" width="23.088" height="204.864" fill="white" /><rect x="461.846" y="-78.192" width="23.76" height="3.264" fill="white" /><use href="#STIXTwoMathRegular_6752" x="387.219" y="-95.376" width="0" height="204.864" fill="white" /><use href="#STIXTwoMathRegular_1052" x="393.219" y="-95.376" width="8.784" height="204.864" fill="white" /><use href="#STIXTwoMathRegular_1141" x="404.979" y="-95.376" width="23.088" height="204.864" fill="white" /><use href="#STIXTwoMathRegular_6752" x="428.739" y="-95.376" width="0" height="204.864" fill="white" /><rect x="336.664" y="-14.016" width="148.629" height="3.264" fill="white" /></svg>