<svg xmlns="http://www.w3.org/2000/svg" width="418.056" height="147.717" viewBox="2.552 -95.021 418.056 147.717"><symbol id="STIXTwoMathRegular_1138" viewBox="0 -31.524 5.112 51.216"><path d="M 5.112 0 L 5.112 0 L 0.96 0 L 0.96 -0.336 Q 1.812 -0.336 2.16 -0.516 Q 2.508 -0.696 2.508 -1.14 L 2.508 -6.216 Q 2.508 -6.528 2.424 -6.666 Q 2.34 -6.804 2.112 -6.804 Q 1.932 -6.804 1.548 -6.756 Q 1.164 -6.708 0.888 -6.612 L 0.888 -7.008 L 3.216 -7.668 L 3.564 -7.668 L 3.564 -1.14 Q 3.564 -0.696 3.924 -0.516 Q 4.284 -0.336 5.112 -0.336 Z " /></symbol><use href="#STIXTwoMathRegular_1138" x="0" y="-126.096" width="20.448" height="204.864" fill="white" /><symbol id="STIXTwoMathRegular_1143" viewBox="0 -31.524 5.484 51.216"><path d="M 4.98 -7.752 L 4.98 -7.752 L 5.004 -7.404 Q 4.164 -7.284 3.468 -6.864 Q 2.772 -6.444 2.304 -5.772 Q 1.836 -5.1 1.68 -4.224 L 1.764 -4.212 Q 2.136 -4.572 2.496 -4.764 Q 2.856 -4.956 3.324 -4.956 Q 4.308 -4.956 4.896 -4.284 Q 5.484 -3.612 5.484 -2.436 Q 5.484 -1.212 4.866 -0.534 Q 4.248 0.144 3.108 0.144 Q 2.22 0.144 1.65 -0.294 Q 1.08 -0.732 0.81 -1.47 Q 0.54 -2.208 0.54 -3.084 Q 0.54 -4.536 1.11 -5.556 Q 1.68 -6.576 2.688 -7.14 Q 3.696 -7.704 4.98 -7.752 Z M 4.44 -2.34 L 4.44 -2.34 Q 4.44 -3.156 4.074 -3.708 Q 3.708 -4.26 2.964 -4.26 Q 2.616 -4.26 2.31 -4.122 Q 2.004 -3.984 1.812 -3.672 Q 1.62 -3.36 1.62 -2.832 Q 1.62 -2.088 1.788 -1.512 Q 1.956 -0.936 2.298 -0.606 Q 2.64 -0.276 3.156 -0.276 Q 3.756 -0.276 4.098 -0.738 Q 4.44 -1.2 4.44 -2.34 Z " /></symbol><use href="#STIXTwoMathRegular_1143" x="23.76" y="-126.096" width="21.936" height="204.864" fill="white" /><symbol id="STIXTwoMathRegular_1145" viewBox="0 -31.524 5.376 51.216"><path d="M 5.376 -1.8 L 5.376 -1.8 Q 5.376 -0.852 4.698 -0.354 Q 4.02 0.144 2.952 0.144 Q 1.908 0.144 1.23 -0.324 Q 0.552 -0.792 0.552 -1.704 Q 0.552 -2.184 0.732 -2.514 Q 0.912 -2.844 1.278 -3.132 Q 1.644 -3.42 2.196 -3.792 L 2.196 -3.828 Q 1.584 -4.26 1.266 -4.59 Q 0.948 -4.92 0.828 -5.25 Q 0.708 -5.58 0.708 -5.988 Q 0.708 -6.54 1.002 -6.936 Q 1.296 -7.332 1.812 -7.548 Q 2.328 -7.764 2.988 -7.764 Q 3.588 -7.764 4.062 -7.548 Q 4.536 -7.332 4.812 -6.96 Q 5.088 -6.588 5.088 -6.108 Q 5.088 -5.676 4.932 -5.364 Q 4.776 -5.052 4.44 -4.794 Q 4.104 -4.536 3.54 -4.224 L 3.54 -4.188 Q 4.248 -3.768 4.644 -3.402 Q 5.04 -3.036 5.208 -2.658 Q 5.376 -2.28 5.376 -1.8 Z M 2.556 -3.6 L 2.556 -3.6 Q 2.04 -3.192 1.764 -2.808 Q 1.488 -2.424 1.488 -1.8 Q 1.488 -0.996 1.902 -0.612 Q 2.316 -0.228 3 -0.228 Q 3.564 -0.228 3.966 -0.534 Q 4.368 -0.84 4.368 -1.452 Q 4.368 -1.836 4.218 -2.148 Q 4.068 -2.46 3.678 -2.796 Q 3.288 -3.132 2.556 -3.6 Z M 4.2 -6.132 L 4.2 -6.132 Q 4.2 -6.732 3.87 -7.05 Q 3.54 -7.368 2.964 -7.368 Q 2.352 -7.368 1.998 -7.062 Q 1.644 -6.756 1.644 -6.204 Q 1.644 -5.676 2.004 -5.292 Q 2.364 -4.908 3.168 -4.416 Q 3.768 -4.776 3.984 -5.166 Q 4.2 -5.556 4.2 -6.132 Z " /></symbol><use href="#STIXTwoMathRegular_1145" x="47.52" y="-126.096" width="21.504" height="204.864" fill="white" /><symbol id="STIXTwoMathRegular_1202" viewBox="0 -31.524 7.896 51.216"><path d="M 7.896 -3.924 L 7.896 -3.924 L 0.744 -3.924 L 0.744 -4.74 L 7.896 -4.74 Z M 7.896 -1.476 L 7.896 -1.476 L 0.744 -1.476 L 0.744 -2.28 L 7.896 -2.28 Z " /></symbol><use href="#STIXTwoMathRegular_1202" x="89.053" y="-126.096" width="31.584" height="204.864" fill="white" /><symbol id="STIXTwoMathRegular_1699" viewBox="0 -31.524 11.484 51.216"><path d="M 10.476 -16.38 L 10.476 -16.38 L 10.476 -16.452 Q 10.476 -16.452 10.374 -16.494 Q 10.272 -16.536 10.068 -16.536 Q 9.564 -16.536 9.18 -15.978 Q 8.796 -15.42 8.508 -14.436 Q 8.22 -13.452 8.004 -12.168 Q 7.788 -10.884 7.626 -9.42 Q 7.464 -7.956 7.314 -6.438 Q 7.164 -4.92 7.008 -3.48 Q 6.504 1.188 5.85 4.422 Q 5.196 7.656 4.266 9.33 Q 3.336 11.004 2.016 11.004 Q 1.272 11.004 0.936 10.632 Q 0.6 10.26 0.6 9.792 Q 0.6 9.264 0.84 8.994 Q 1.08 8.724 1.416 8.724 Q 1.692 8.724 1.83 8.904 Q 1.968 9.084 1.968 9.396 Q 1.968 9.66 1.884 9.87 Q 1.8 10.08 1.68 10.26 L 1.68 10.332 Q 1.68 10.332 1.764 10.374 Q 1.848 10.416 2.028 10.416 Q 2.652 10.416 3.096 9.768 Q 3.54 9.12 3.876 7.92 Q 4.212 6.72 4.47 5.046 Q 4.728 3.372 4.968 1.308 Q 5.208 -0.756 5.472 -3.108 Q 5.664 -4.728 5.874 -6.39 Q 6.084 -8.052 6.348 -9.624 Q 6.612 -11.196 6.966 -12.558 Q 7.32 -13.92 7.782 -14.952 Q 8.244 -15.984 8.85 -16.566 Q 9.456 -17.148 10.236 -17.148 Q 10.776 -17.148 11.13 -16.866 Q 11.484 -16.584 11.484 -16.008 Q 11.484 -15.456 11.19 -15.21 Q 10.896 -14.964 10.596 -14.964 Q 10.368 -14.964 10.224 -15.114 Q 10.08 -15.264 10.08 -15.564 Q 10.08 -16.044 10.476 -16.38 Z " /></symbol><use href="#STIXTwoMathRegular_1699" x="141.387" y="-126.096" width="45.936" height="204.864" fill="white" /><symbol id="STIXTwoMathRegular_4277" viewBox="0 -31.524 6.444 51.216"><path d="M 6.444 -1.896 L 6.444 -1.896 L 5.136 -1.896 L 5.136 0 L 3.948 0 L 3.948 -1.896 L 0.42 -1.896 L 0.42 -2.808 L 4.272 -8.04 L 5.136 -8.04 L 5.136 -2.88 L 6.444 -2.88 Z M 3.948 -2.88 L 3.948 -2.88 L 3.948 -6.588 L 3.876 -6.588 L 1.236 -2.952 L 1.236 -2.88 Z " /></symbol><use href="#STIXTwoMathRegular_4277" x="165.003" y="-36.571" width="18.043" height="143.405" fill="white" /><use href="#STIXTwoMathRegular_4277" x="190.923" y="-145.819" width="18.043" height="143.405" fill="white" /><symbol id="STIXTwoMathRegular_1657" viewBox="0 -31.524 9.948 51.216"><path d="M 8.004 -11.064 L 8.004 -11.064 L 9.948 -11.064 L 9.948 -10.248 L 8.556 -10.248 L 4.956 3.18 L 4.452 3.18 L 1.656 -3.828 L 0.408 -3.348 L 0.216 -3.684 L 2.124 -5.004 L 2.364 -5.004 L 4.74 1.116 L 4.788 1.116 Z " /></symbol><use href="#STIXTwoMathRegular_1657" x="209.873" y="-134.123" width="19.498" height="100.383" fill="white" /><use href="#STIXTwoMathRegular_4277" x="228.548" y="-134.123" width="12.63" height="100.383" fill="white" /><rect x="228.548" y="-94.021" width="13.265" height="1.599" fill="white" /><symbol id="STIXTwoMathRegular_1141" viewBox="0 -31.524 5.772 51.216"><path d="M 5.772 -1.896 L 5.772 -1.896 L 4.548 -1.896 L 4.548 0 L 3.48 0 L 3.48 -1.896 L 0.156 -1.896 L 0.156 -2.652 L 3.816 -7.74 L 4.548 -7.74 L 4.548 -2.724 L 5.772 -2.724 Z M 3.48 -2.724 L 3.48 -2.724 L 3.48 -6.432 L 3.432 -6.432 L 0.816 -2.772 L 0.816 -2.724 Z " /></symbol><use href="#STIXTwoMathRegular_1141" x="241.813" y="-126.096" width="23.088" height="204.864" fill="white" /><symbol id="STIXTwoMathRegular_1196" viewBox="0 -31.524 7.896 51.216"><path d="M 7.896 -2.7 L 7.896 -2.7 L 4.752 -2.7 L 4.752 0.48 L 3.888 0.48 L 3.888 -2.7 L 0.744 -2.7 L 0.744 -3.516 L 3.888 -3.516 L 3.888 -6.696 L 4.752 -6.696 L 4.752 -3.516 L 7.896 -3.516 Z " /></symbol><use href="#STIXTwoMathRegular_1196" x="279.792" y="-126.096" width="31.584" height="204.864" fill="white" /><symbol id="STIXTwoMathRegular_3354" viewBox="0 -31.524 6.48 51.216"><path d="M 3.78 -3.576 L 3.78 -3.576 L 4.368 -4.584 Q 4.608 -5.016 4.98 -5.382 Q 5.352 -5.748 5.88 -5.748 Q 6.228 -5.748 6.354 -5.61 Q 6.48 -5.472 6.48 -5.22 Q 6.48 -5.004 6.324 -4.83 Q 6.168 -4.656 5.928 -4.656 Q 5.784 -4.656 5.604 -4.716 Q 5.424 -4.776 5.304 -4.776 Q 5.1 -4.776 4.956 -4.65 Q 4.812 -4.524 4.656 -4.272 L 3.924 -3.108 L 4.176 -2.292 Q 4.428 -1.464 4.638 -1.104 Q 4.848 -0.744 5.124 -0.744 Q 5.364 -0.744 5.556 -0.918 Q 5.748 -1.092 5.988 -1.416 L 6.24 -1.224 Q 6.072 -0.96 5.838 -0.648 Q 5.604 -0.336 5.292 -0.108 Q 4.98 0.12 4.572 0.12 Q 4.164 0.12 3.942 -0.204 Q 3.72 -0.528 3.588 -1.116 L 3.288 -2.328 L 3.24 -2.328 L 2.472 -1.08 Q 2.184 -0.612 1.848 -0.252 Q 1.512 0.108 0.972 0.108 Q 0.588 0.108 0.432 -0.072 Q 0.276 -0.252 0.276 -0.48 Q 0.276 -0.66 0.402 -0.822 Q 0.528 -0.984 0.744 -0.984 Q 0.948 -0.984 1.146 -0.906 Q 1.344 -0.828 1.5 -0.828 Q 1.524 -0.828 1.608 -0.858 Q 1.692 -0.888 1.848 -1.032 Q 2.004 -1.176 2.232 -1.512 L 3.096 -2.772 L 2.76 -3.864 Q 2.604 -4.368 2.448 -4.656 Q 2.292 -4.944 2.064 -5.07 Q 1.836 -5.196 1.44 -5.184 Q 1.296 -5.184 1.182 -5.166 Q 1.068 -5.148 1.068 -5.148 L 1.068 -5.508 L 2.736 -5.7 L 2.916 -5.7 Q 3.132 -5.448 3.306 -5.064 Q 3.48 -4.68 3.6 -4.188 L 3.744 -3.576 Z " /></symbol><use href="#STIXTwoMathRegular_3354" x="328.571" y="-126.096" width="25.92" height="204.864" fill="white" /><symbol id="STIXTwoMathRegular_3329" viewBox="0 -31.524 6.36 51.216"><path d="M 6.348 -8.46 L 6.348 -8.46 L 5.076 -1.452 Q 5.076 -1.452 5.046 -1.26 Q 5.016 -1.068 5.016 -0.948 Q 5.016 -0.72 5.244 -0.72 Q 5.532 -0.72 5.766 -0.948 Q 6 -1.176 6.12 -1.344 L 6.36 -1.164 Q 6.18 -0.9 5.952 -0.6 Q 5.724 -0.3 5.43 -0.09 Q 5.136 0.12 4.716 0.12 Q 4.356 0.12 4.17 -0.054 Q 3.984 -0.228 3.984 -0.504 Q 3.984 -0.612 4.008 -0.762 Q 4.032 -0.912 4.044 -1.02 L 3.948 -1.02 Q 3.504 -0.468 2.994 -0.162 Q 2.484 0.144 1.956 0.144 Q 1.296 0.144 0.87 -0.372 Q 0.444 -0.888 0.444 -1.944 Q 0.444 -2.748 0.69 -3.438 Q 0.936 -4.128 1.368 -4.65 Q 1.8 -5.172 2.364 -5.46 Q 2.928 -5.748 3.552 -5.748 Q 3.96 -5.748 4.26 -5.622 Q 4.56 -5.496 4.776 -5.268 L 4.812 -5.268 L 5.208 -7.284 Q 5.208 -7.284 5.226 -7.416 Q 5.244 -7.548 5.244 -7.668 Q 5.244 -7.824 5.172 -7.932 Q 5.1 -8.04 4.824 -8.04 Q 4.716 -8.04 4.584 -8.028 Q 4.452 -8.016 4.452 -8.016 L 4.452 -8.328 L 6.084 -8.46 Z M 4.152 -2.124 L 4.152 -2.124 Q 4.308 -2.58 4.386 -3.018 Q 4.464 -3.456 4.494 -3.78 Q 4.524 -4.104 4.524 -4.212 Q 4.524 -4.596 4.272 -4.944 Q 4.02 -5.292 3.492 -5.292 Q 3.036 -5.292 2.67 -5.004 Q 2.304 -4.716 2.046 -4.242 Q 1.788 -3.768 1.65 -3.192 Q 1.512 -2.616 1.512 -2.028 Q 1.512 -1.212 1.77 -0.93 Q 2.028 -0.648 2.472 -0.648 Q 3.084 -0.648 3.498 -1.044 Q 3.912 -1.44 4.152 -2.124 Z " /></symbol><use href="#STIXTwoMathRegular_3329" x="366.088" y="-126.096" width="25.44" height="204.864" fill="white" /><use href="#STIXTwoMathRegular_3354" x="392.776" y="-126.096" width="25.92" height="204.864" fill="white" /></svg>