<?xml version="1.0" encoding="utf-8" standalone="no"?>
<!DOCTYPE svg PUBLIC "-//W3C//DTD SVG 1.1//EN"
  "http://www.w3.org/Graphics/SVG/1.1/DTD/svg11.dtd">
<svg xmlns:xlink="http://www.w3.org/1999/xlink" width="486.24pt" height="77.04pt" viewBox="0 0 486.24 77.04" xmlns="http://www.w3.org/2000/svg" version="1.1">
 <metadata>
  <rdf:RDF xmlns:dc="http://purl.org/dc/elements/1.1/" xmlns:cc="http://creativecommons.org/ns#" xmlns:rdf="http://www.w3.org/1999/02/22-rdf-syntax-ns#">
   <cc:Work>
    <dc:type rdf:resource="http://purl.org/dc/dcmitype/StillImage"/>
    <dc:date>2026-03-01T11:54:43.997480</dc:date>
    <dc:format>image/svg+xml</dc:format>
    <dc:creator>
     <cc:Agent>
      <dc:title>Matplotlib v3.10.8, https://matplotlib.org/</dc:title>
     </cc:Agent>
    </dc:creator>
   </cc:Work>
  </rdf:RDF>
 </metadata>
 <defs>
  <style type="text/css">*{stroke-linejoin: round; stroke-linecap: butt}</style>
 </defs>
 <g id="figure_1">
  <g id="patch_1">
   <path d="M 0 77.04 
L 486.24 77.04 
L 486.24 0 
L 0 0 
L 0 77.04 
z
" style="fill: none"/>
  </g>
  <g id="axes_1">
   <g id="text_1">
    <!-- $17 = 4^{\sqrt{4}}+\frac{4}{4} = \frac{44+4!}{4}$ -->
    <g style="fill: #ffffff" transform="translate(0 57.84) scale(0.48 -0.48)">
     <defs>
      <path id="DejaVuSerif-31" d="M 909 0 
L 909 331 
L 1722 331 
L 1722 4213 
L 781 3603 
L 781 4013 
L 1919 4750 
L 2350 4750 
L 2350 331 
L 3163 331 
L 3163 0 
L 909 0 
z
" transform="scale(0.015625)"/>
      <path id="DejaVuSerif-37" d="M 3609 4347 
L 1784 0 
L 1319 0 
L 3059 4153 
L 903 4153 
L 903 3578 
L 538 3578 
L 538 4666 
L 3609 4666 
L 3609 4347 
z
" transform="scale(0.015625)"/>
      <path id="DejaVuSerif-3d" d="M 678 2894 
L 4684 2894 
L 4684 2394 
L 678 2394 
L 678 2894 
z
M 678 1619 
L 4684 1619 
L 4684 1119 
L 678 1119 
L 678 1619 
z
" transform="scale(0.015625)"/>
      <path id="DejaVuSerif-34" d="M 2234 1581 
L 2234 4063 
L 641 1581 
L 2234 1581 
z
M 3609 0 
L 1484 0 
L 1484 331 
L 2234 331 
L 2234 1247 
L 197 1247 
L 197 1588 
L 2241 4750 
L 2859 4750 
L 2859 1581 
L 3750 1581 
L 3750 1247 
L 2859 1247 
L 2859 331 
L 3609 331 
L 3609 0 
z
" transform="scale(0.015625)"/>
      <path id="Cmex10-70" d="M 2713 -7425 
L 1269 -4063 
L 819 -4409 
L 703 -4294 
L 1619 -3584 
L 2969 -6725 
L 6291 197 
Q 6322 256 6400 256 
Q 6453 256 6490 218 
Q 6528 181 6528 128 
Q 6528 97 6522 84 
L 2950 -7366 
Q 2925 -7425 2853 -7425 
L 2713 -7425 
z
" transform="scale(0.015625)"/>
      <path id="DejaVuSerif-2b" d="M 2931 4013 
L 2931 2259 
L 4684 2259 
L 4684 1753 
L 2931 1753 
L 2931 0 
L 2431 0 
L 2431 1753 
L 678 1753 
L 678 2259 
L 2431 2259 
L 2431 4013 
L 2931 4013 
z
" transform="scale(0.015625)"/>
      <path id="DejaVuSerif-21" d="M 872 325 
Q 872 500 990 622 
Q 1109 744 1288 744 
Q 1459 744 1581 622 
Q 1703 500 1703 325 
Q 1703 153 1581 31 
Q 1459 -91 1288 -91 
Q 1109 -91 990 29 
Q 872 150 872 325 
z
M 884 4666 
L 1691 4666 
L 1478 2100 
L 1478 1313 
L 1094 1313 
L 1094 2100 
L 884 4666 
z
" transform="scale(0.015625)"/>
     </defs>
     <use xlink:href="#DejaVuSerif-31" transform="translate(0 0.6375)"/>
     <use xlink:href="#DejaVuSerif-37" transform="translate(63.623047 0.6375)"/>
     <use xlink:href="#DejaVuSerif-3d" transform="translate(146.210938 0.6375)"/>
     <use xlink:href="#DejaVuSerif-34" transform="translate(248.964844 0.6375)"/>
     <use xlink:href="#Cmex10-70" transform="translate(313.49625 108.33125) scale(0.615154)"/>
     <use xlink:href="#DejaVuSerif-34" transform="translate(383.75875 36.671875) scale(0.7)"/>
     <use xlink:href="#DejaVuSerif-2b" transform="translate(458.605039 0.6375)"/>
     <use xlink:href="#DejaVuSerif-34" transform="translate(561.358945 44.489063) scale(0.7)"/>
     <use xlink:href="#DejaVuSerif-34" transform="translate(561.358945 -38.714062) scale(0.7)"/>
     <use xlink:href="#DejaVuSerif-3d" transform="translate(637.359922 0.6375)"/>
     <use xlink:href="#DejaVuSerif-34" transform="translate(740.113828 45.484375) scale(0.7)"/>
     <use xlink:href="#DejaVuSerif-34" transform="translate(784.649961 45.484375) scale(0.7)"/>
     <use xlink:href="#DejaVuSerif-2b" transform="translate(842.461484 45.484375) scale(0.7)"/>
     <use xlink:href="#DejaVuSerif-34" transform="translate(914.389219 45.484375) scale(0.7)"/>
     <use xlink:href="#DejaVuSerif-21" transform="translate(958.925352 45.484375) scale(0.7)"/>
     <use xlink:href="#DejaVuSerif-34" transform="translate(848.113828 -38.714062) scale(0.7)"/>
     <path d="M 375.00875 106.25 
L 375.00875 110.625 
L 437.044883 110.625 
L 437.044883 106.25 
L 375.00875 106.25 
z
"/>
     <path d="M 561.358945 19.489063 
L 561.358945 25.739063 
L 605.895078 25.739063 
L 605.895078 19.489063 
L 561.358945 19.489063 
z
"/>
     <path d="M 740.113828 19.489063 
L 740.113828 25.739063 
L 1000.330625 25.739063 
L 1000.330625 19.489063 
L 740.113828 19.489063 
z
"/>
    </g>
   </g>
  </g>
 </g>
</svg>
