<svg xmlns="http://www.w3.org/2000/svg" width="894.86" height="111.296" viewBox="0.824 -79.192 894.86 111.296"><symbol id="STIXTwoMathRegular_1139" viewBox="0 -31.524 5.568 51.216"><path d="M 5.568 -1.92 L 5.568 -1.92 L 5.184 0 L 0.456 0 L 0.456 -0.408 L 2.28 -2.232 Q 2.88 -2.844 3.276 -3.342 Q 3.672 -3.84 3.87 -4.344 Q 4.068 -4.848 4.068 -5.472 Q 4.068 -6.144 3.666 -6.546 Q 3.264 -6.948 2.568 -6.948 Q 1.98 -6.948 1.566 -6.696 Q 1.152 -6.444 0.816 -5.772 L 0.528 -5.892 Q 0.804 -6.768 1.404 -7.248 Q 2.004 -7.728 2.88 -7.728 Q 3.564 -7.728 4.08 -7.47 Q 4.596 -7.212 4.89 -6.75 Q 5.184 -6.288 5.184 -5.652 Q 5.184 -5.124 4.962 -4.638 Q 4.74 -4.152 4.302 -3.636 Q 3.864 -3.12 3.228 -2.472 L 1.644 -0.972 L 1.644 -0.912 L 2.484 -0.948 L 4.152 -0.948 Q 4.632 -0.948 4.824 -1.164 Q 5.016 -1.38 5.22 -1.92 Z " /></symbol><use href="#STIXTwoMathRegular_1139" x="0" y="-126.096" width="22.272" height="204.864" fill="white" /><symbol id="STIXTwoMathRegular_1137" viewBox="0 -31.524 5.616 51.216"><path d="M 5.616 -3.804 L 5.616 -3.804 Q 5.616 -3.036 5.466 -2.328 Q 5.316 -1.62 4.998 -1.068 Q 4.68 -0.516 4.176 -0.192 Q 3.672 0.132 2.964 0.132 Q 2.244 0.132 1.74 -0.186 Q 1.236 -0.504 0.924 -1.056 Q 0.612 -1.608 0.468 -2.328 Q 0.324 -3.048 0.324 -3.84 Q 0.324 -4.98 0.63 -5.85 Q 0.936 -6.72 1.53 -7.212 Q 2.124 -7.704 2.988 -7.704 Q 3.768 -7.704 4.356 -7.242 Q 4.944 -6.78 5.28 -5.91 Q 5.616 -5.04 5.616 -3.804 Z M 4.452 -3.732 L 4.452 -3.732 Q 4.452 -5.556 4.074 -6.426 Q 3.696 -7.296 2.952 -7.296 Q 2.244 -7.296 1.86 -6.432 Q 1.476 -5.568 1.476 -3.78 Q 1.476 -2.04 1.86 -1.17 Q 2.244 -0.3 2.964 -0.3 Q 3.672 -0.3 4.062 -1.152 Q 4.452 -2.004 4.452 -3.732 Z " /></symbol><use href="#STIXTwoMathRegular_1137" x="23.76" y="-126.096" width="22.464" height="204.864" fill="white" /><symbol id="STIXTwoMathRegular_1202" viewBox="0 -31.524 7.896 51.216"><path d="M 7.896 -3.924 L 7.896 -3.924 L 0.744 -3.924 L 0.744 -4.74 L 7.896 -4.74 Z M 7.896 -1.476 L 7.896 -1.476 L 0.744 -1.476 L 0.744 -2.28 L 7.896 -2.28 Z " /></symbol><use href="#STIXTwoMathRegular_1202" x="65.293" y="-126.096" width="31.584" height="204.864" fill="white" /><symbol id="STIXTwoMathRegular_1141" viewBox="0 -31.524 5.772 51.216"><path d="M 5.772 -1.896 L 5.772 -1.896 L 4.548 -1.896 L 4.548 0 L 3.48 0 L 3.48 -1.896 L 0.156 -1.896 L 0.156 -2.652 L 3.816 -7.74 L 4.548 -7.74 L 4.548 -2.724 L 5.772 -2.724 Z M 3.48 -2.724 L 3.48 -2.724 L 3.48 -6.432 L 3.432 -6.432 L 0.816 -2.772 L 0.816 -2.724 Z " /></symbol><use href="#STIXTwoMathRegular_1141" x="128.603" y="-156.816" width="23.088" height="204.864" fill="white" /><symbol id="STIXTwoMathRegular_4277" viewBox="0 -31.524 6.444 51.216"><path d="M 6.444 -1.896 L 6.444 -1.896 L 5.136 -1.896 L 5.136 0 L 3.948 0 L 3.948 -1.896 L 0.42 -1.896 L 0.42 -2.808 L 4.272 -8.04 L 5.136 -8.04 L 5.136 -2.88 L 6.444 -2.88 Z M 3.948 -2.88 L 3.948 -2.88 L 3.948 -6.588 L 3.876 -6.588 L 1.236 -2.952 L 1.236 -2.88 Z " /></symbol><use href="#STIXTwoMathRegular_4277" x="151.403" y="-136.267" width="18.043" height="143.405" fill="white" /><use href="#STIXTwoMathRegular_1141" x="137.598" y="-95.376" width="23.088" height="204.864" fill="white" /><rect x="128.291" y="-14.016" width="41.75" height="3.264" fill="white" /><symbol id="STIXTwoMathRegular_1197" viewBox="0 -31.524 7.896 51.216"><path d="M 7.896 -2.7 L 7.896 -2.7 L 0.744 -2.7 L 0.744 -3.516 L 7.896 -3.516 Z " /></symbol><use href="#STIXTwoMathRegular_1197" x="194.924" y="-126.096" width="31.584" height="204.864" fill="white" /><use href="#STIXTwoMathRegular_1141" x="243.703" y="-126.096" width="23.088" height="204.864" fill="white" /><use href="#STIXTwoMathRegular_1141" x="267.463" y="-126.096" width="23.088" height="204.864" fill="white" /><use href="#STIXTwoMathRegular_1202" x="308.996" y="-126.096" width="31.584" height="204.864" fill="white" /><use href="#STIXTwoMathRegular_1141" x="372.305" y="-160.032" width="23.088" height="204.864" fill="white" /><symbol id="STIXTwoMathRegular_1657" viewBox="0 -31.524 9.948 51.216"><path d="M 8.004 -11.064 L 8.004 -11.064 L 9.948 -11.064 L 9.948 -10.248 L 8.556 -10.248 L 4.956 3.18 L 4.452 3.18 L 1.656 -3.828 L 0.408 -3.348 L 0.216 -3.684 L 2.124 -5.004 L 2.364 -5.004 L 4.74 1.116 L 4.788 1.116 Z " /></symbol><use href="#STIXTwoMathRegular_1657" x="396.065" y="-160.032" width="39.792" height="204.864" fill="white" /><use href="#STIXTwoMathRegular_1141" x="434.177" y="-160.032" width="23.088" height="204.864" fill="white" /><rect x="434.177" y="-78.192" width="23.76" height="3.264" fill="white" /><symbol id="STIXTwoMathRegular_6752" viewBox="0 -31.524 0 51.216" /><use href="#STIXTwoMathRegular_6752" x="391.049" y="-95.376" width="0" height="204.864" fill="white" /><symbol id="STIXTwoMathRegular_1052" viewBox="0 -31.524 2.196 51.216"><path d="M 2.196 -0.6 L 2.196 -0.6 Q 2.196 -0.324 2.004 -0.114 Q 1.812 0.096 1.452 0.096 Q 1.092 0.096 0.918 -0.108 Q 0.744 -0.312 0.744 -0.612 Q 0.744 -0.924 0.936 -1.146 Q 1.128 -1.368 1.464 -1.368 Q 1.812 -1.368 2.004 -1.14 Q 2.196 -0.912 2.196 -0.6 Z " /></symbol><use href="#STIXTwoMathRegular_1052" x="397.049" y="-95.376" width="8.784" height="204.864" fill="white" /><use href="#STIXTwoMathRegular_1141" x="408.809" y="-95.376" width="23.088" height="204.864" fill="white" /><use href="#STIXTwoMathRegular_6752" x="432.569" y="-95.376" width="0" height="204.864" fill="white" /><rect x="371.993" y="-14.016" width="85.632" height="3.264" fill="white" /><use href="#STIXTwoMathRegular_1202" x="486.063" y="-126.096" width="31.584" height="204.864" fill="white" /><use href="#STIXTwoMathRegular_1141" x="538.396" y="-126.096" width="23.088" height="204.864" fill="white" /><use href="#STIXTwoMathRegular_1141" x="562.156" y="-126.096" width="23.088" height="204.864" fill="white" /><use href="#STIXTwoMathRegular_1197" x="600.135" y="-126.096" width="31.584" height="204.864" fill="white" /><use href="#STIXTwoMathRegular_1141" x="648.913" y="-126.096" width="23.088" height="204.864" fill="white" /><symbol id="STIXTwoMathRegular_1054" viewBox="0 -31.524 2.412 51.216"><path d="M 1.476 -2.04 L 1.476 -2.04 L 1.104 -6.456 Q 1.092 -6.708 1.074 -6.9 Q 1.056 -7.092 1.056 -7.236 Q 1.056 -7.572 1.188 -7.8 Q 1.32 -8.028 1.692 -8.028 Q 2.04 -8.028 2.184 -7.8 Q 2.328 -7.572 2.328 -7.212 Q 2.328 -6.876 2.292 -6.456 L 1.896 -2.04 Z M 2.412 -0.588 L 2.412 -0.588 Q 2.412 -0.312 2.226 -0.108 Q 2.04 0.096 1.692 0.096 Q 1.344 0.096 1.164 -0.102 Q 0.984 -0.3 0.984 -0.6 Q 0.984 -0.9 1.17 -1.116 Q 1.356 -1.332 1.692 -1.332 Q 2.04 -1.332 2.226 -1.11 Q 2.412 -0.888 2.412 -0.588 Z " /></symbol><use href="#STIXTwoMathRegular_1054" x="679.783" y="-126.096" width="9.648" height="204.864" fill="white" /><use href="#STIXTwoMathRegular_1202" x="711.14" y="-126.096" width="31.584" height="204.864" fill="white" /><use href="#STIXTwoMathRegular_1141" x="763.474" y="-126.096" width="23.088" height="204.864" fill="white" /><use href="#STIXTwoMathRegular_1054" x="794.343" y="-126.096" width="9.648" height="204.864" fill="white" /><use href="#STIXTwoMathRegular_1197" x="822.146" y="-126.096" width="31.584" height="204.864" fill="white" /><use href="#STIXTwoMathRegular_1141" x="870.924" y="-126.096" width="23.088" height="204.864" fill="white" /></svg>