<?xml version="1.0" encoding="utf-8" standalone="no"?>
<!DOCTYPE svg PUBLIC "-//W3C//DTD SVG 1.1//EN"
  "http://www.w3.org/Graphics/SVG/1.1/DTD/svg11.dtd">
<svg xmlns:xlink="http://www.w3.org/1999/xlink" width="871.2pt" height="81.096pt" viewBox="0 0 871.2 81.096" xmlns="http://www.w3.org/2000/svg" version="1.1">
 <metadata>
  <rdf:RDF xmlns:dc="http://purl.org/dc/elements/1.1/" xmlns:cc="http://creativecommons.org/ns#" xmlns:rdf="http://www.w3.org/1999/02/22-rdf-syntax-ns#">
   <cc:Work>
    <dc:type rdf:resource="http://purl.org/dc/dcmitype/StillImage"/>
    <dc:date>2026-03-01T11:54:44.190391</dc:date>
    <dc:format>image/svg+xml</dc:format>
    <dc:creator>
     <cc:Agent>
      <dc:title>Matplotlib v3.10.8, https://matplotlib.org/</dc:title>
     </cc:Agent>
    </dc:creator>
   </cc:Work>
  </rdf:RDF>
 </metadata>
 <defs>
  <style type="text/css">*{stroke-linejoin: round; stroke-linecap: butt}</style>
 </defs>
 <g id="figure_1">
  <g id="patch_1">
   <path d="M 0 81.096 
L 871.2 81.096 
L 871.2 0 
L 0 0 
L 0 81.096 
z
" style="fill: none"/>
  </g>
  <g id="axes_1">
   <g id="text_1">
    <!-- $20 = \frac{4^4}{4}-44 = \frac{4\sqrt{4}}{.4} = 44-4! = 4!-4$ -->
    <g style="fill: #ffffff" transform="translate(0 61.416) scale(0.48 -0.48)">
     <defs>
      <path id="DejaVuSerif-32" d="M 819 3553 
L 469 3553 
L 469 4384 
Q 803 4563 1142 4656 
Q 1481 4750 1806 4750 
Q 2534 4750 2956 4397 
Q 3378 4044 3378 3438 
Q 3378 2753 2422 1800 
Q 2347 1728 2309 1691 
L 1131 513 
L 3078 513 
L 3078 1088 
L 3444 1088 
L 3444 0 
L 434 0 
L 434 341 
L 1850 1753 
Q 2319 2222 2519 2614 
Q 2719 3006 2719 3438 
Q 2719 3909 2473 4175 
Q 2228 4441 1797 4441 
Q 1350 4441 1106 4219 
Q 863 3997 819 3553 
z
" transform="scale(0.015625)"/>
      <path id="DejaVuSerif-30" d="M 2034 219 
Q 2513 219 2750 744 
Q 2988 1269 2988 2328 
Q 2988 3391 2750 3916 
Q 2513 4441 2034 4441 
Q 1556 4441 1318 3916 
Q 1081 3391 1081 2328 
Q 1081 1269 1318 744 
Q 1556 219 2034 219 
z
M 2034 -91 
Q 1275 -91 848 546 
Q 422 1184 422 2328 
Q 422 3475 848 4112 
Q 1275 4750 2034 4750 
Q 2797 4750 3222 4112 
Q 3647 3475 3647 2328 
Q 3647 1184 3222 546 
Q 2797 -91 2034 -91 
z
" transform="scale(0.015625)"/>
      <path id="DejaVuSerif-3d" d="M 678 2894 
L 4684 2894 
L 4684 2394 
L 678 2394 
L 678 2894 
z
M 678 1619 
L 4684 1619 
L 4684 1119 
L 678 1119 
L 678 1619 
z
" transform="scale(0.015625)"/>
      <path id="DejaVuSerif-34" d="M 2234 1581 
L 2234 4063 
L 641 1581 
L 2234 1581 
z
M 3609 0 
L 1484 0 
L 1484 331 
L 2234 331 
L 2234 1247 
L 197 1247 
L 197 1588 
L 2241 4750 
L 2859 4750 
L 2859 1581 
L 3750 1581 
L 3750 1247 
L 2859 1247 
L 2859 331 
L 3609 331 
L 3609 0 
z
" transform="scale(0.015625)"/>
      <path id="DejaVuSerif-2212" d="M 678 2259 
L 4684 2259 
L 4684 1753 
L 678 1753 
L 678 2259 
z
" transform="scale(0.015625)"/>
      <path id="Cmex10-70" d="M 2713 -7425 
L 1269 -4063 
L 819 -4409 
L 703 -4294 
L 1619 -3584 
L 2969 -6725 
L 6291 197 
Q 6322 256 6400 256 
Q 6453 256 6490 218 
Q 6528 181 6528 128 
Q 6528 97 6522 84 
L 2950 -7366 
Q 2925 -7425 2853 -7425 
L 2713 -7425 
z
" transform="scale(0.015625)"/>
      <path id="DejaVuSerif-2e" d="M 603 325 
Q 603 500 722 622 
Q 841 744 1019 744 
Q 1191 744 1312 622 
Q 1434 500 1434 325 
Q 1434 153 1312 31 
Q 1191 -91 1019 -91 
Q 841 -91 722 29 
Q 603 150 603 325 
z
" transform="scale(0.015625)"/>
      <path id="DejaVuSerif-21" d="M 872 325 
Q 872 500 990 622 
Q 1109 744 1288 744 
Q 1459 744 1581 622 
Q 1703 500 1703 325 
Q 1703 153 1581 31 
Q 1459 -91 1288 -91 
Q 1109 -91 990 29 
Q 872 150 872 325 
z
M 884 4666 
L 1691 4666 
L 1478 2100 
L 1478 1313 
L 1094 1313 
L 1094 2100 
L 884 4666 
z
" transform="scale(0.015625)"/>
     </defs>
     <use xlink:href="#DejaVuSerif-32" transform="translate(0 0.120313)"/>
     <use xlink:href="#DejaVuSerif-30" transform="translate(63.623047 0.120313)"/>
     <use xlink:href="#DejaVuSerif-3d" transform="translate(146.210938 0.120313)"/>
     <use xlink:href="#DejaVuSerif-34" transform="translate(248.964844 43.971875) scale(0.7)"/>
     <use xlink:href="#DejaVuSerif-34" transform="translate(294.136828 69.405937) scale(0.49)"/>
     <use xlink:href="#DejaVuSerif-34" transform="translate(265.964844 -39.23125) scale(0.7)"/>
     <use xlink:href="#DejaVuSerif-2212" transform="translate(358.593684 0.120313)"/>
     <use xlink:href="#DejaVuSerif-34" transform="translate(461.34759 0.120313)"/>
     <use xlink:href="#DejaVuSerif-34" transform="translate(524.970637 0.120313)"/>
     <use xlink:href="#DejaVuSerif-3d" transform="translate(607.558527 0.120313)"/>
     <use xlink:href="#DejaVuSerif-34" transform="translate(710.312434 43.971875) scale(0.7)"/>
     <use xlink:href="#Cmex10-70" transform="translate(754.848566 115.33125) scale(0.615154)"/>
     <use xlink:href="#DejaVuSerif-34" transform="translate(825.111066 43.671875) scale(0.7)"/>
     <use xlink:href="#DejaVuSerif-2e" transform="translate(754.312434 -39.23125) scale(0.7)"/>
     <use xlink:href="#DejaVuSerif-34" transform="translate(789.838801 -39.23125) scale(0.7)"/>
     <use xlink:href="#DejaVuSerif-3d" transform="translate(909.862043 0.120313)"/>
     <use xlink:href="#DejaVuSerif-34" transform="translate(1012.615949 0.120313)"/>
     <use xlink:href="#DejaVuSerif-34" transform="translate(1076.238996 0.120313)"/>
     <use xlink:href="#DejaVuSerif-2212" transform="translate(1158.826887 0.120313)"/>
     <use xlink:href="#DejaVuSerif-34" transform="translate(1261.580793 0.120313)"/>
     <use xlink:href="#DejaVuSerif-21" transform="translate(1325.20384 0.120313)"/>
     <use xlink:href="#DejaVuSerif-3d" transform="translate(1403.319074 0.120313)"/>
     <use xlink:href="#DejaVuSerif-34" transform="translate(1506.07298 0.120313)"/>
     <use xlink:href="#DejaVuSerif-21" transform="translate(1569.696027 0.120313)"/>
     <use xlink:href="#DejaVuSerif-2212" transform="translate(1647.811262 0.120313)"/>
     <use xlink:href="#DejaVuSerif-34" transform="translate(1750.565168 0.120313)"/>
     <path d="M 248.964844 18.971875 
L 248.964844 25.221875 
L 327.12884 25.221875 
L 327.12884 18.971875 
L 248.964844 18.971875 
z
"/>
     <path d="M 816.361066 113.25 
L 816.361066 117.625 
L 878.397199 117.625 
L 878.397199 113.25 
L 816.361066 113.25 
z
"/>
     <path d="M 710.312434 18.971875 
L 710.312434 25.221875 
L 878.397199 25.221875 
L 878.397199 18.971875 
L 710.312434 18.971875 
z
"/>
    </g>
   </g>
  </g>
 </g>
</svg>
