<?xml version="1.0" encoding="utf-8" standalone="no"?>
<!DOCTYPE svg PUBLIC "-//W3C//DTD SVG 1.1//EN"
  "http://www.w3.org/Graphics/SVG/1.1/DTD/svg11.dtd">
<svg xmlns:xlink="http://www.w3.org/1999/xlink" width="510.24pt" height="94.08pt" viewBox="0 0 510.24 94.08" xmlns="http://www.w3.org/2000/svg" version="1.1">
 <metadata>
  <rdf:RDF xmlns:dc="http://purl.org/dc/elements/1.1/" xmlns:cc="http://creativecommons.org/ns#" xmlns:rdf="http://www.w3.org/1999/02/22-rdf-syntax-ns#">
   <cc:Work>
    <dc:type rdf:resource="http://purl.org/dc/dcmitype/StillImage"/>
    <dc:date>2026-03-01T11:54:44.240212</dc:date>
    <dc:format>image/svg+xml</dc:format>
    <dc:creator>
     <cc:Agent>
      <dc:title>Matplotlib v3.10.8, https://matplotlib.org/</dc:title>
     </cc:Agent>
    </dc:creator>
   </cc:Work>
  </rdf:RDF>
 </metadata>
 <defs>
  <style type="text/css">*{stroke-linejoin: round; stroke-linecap: butt}</style>
 </defs>
 <g id="figure_1">
  <g id="patch_1">
   <path d="M 0 94.08 
L 510.24 94.08 
L 510.24 0 
L 0 0 
L 0 94.08 
z
" style="fill: none"/>
  </g>
  <g id="axes_1">
   <g id="text_1">
    <!-- $21 = \frac{44-\sqrt{4}}{\sqrt{4}} = \lfloor\sqrt{444}\rfloor$ -->
    <g style="fill: #ffffff" transform="translate(0 62.4) scale(0.48 -0.48)">
     <defs>
      <path id="DejaVuSerif-32" d="M 819 3553 
L 469 3553 
L 469 4384 
Q 803 4563 1142 4656 
Q 1481 4750 1806 4750 
Q 2534 4750 2956 4397 
Q 3378 4044 3378 3438 
Q 3378 2753 2422 1800 
Q 2347 1728 2309 1691 
L 1131 513 
L 3078 513 
L 3078 1088 
L 3444 1088 
L 3444 0 
L 434 0 
L 434 341 
L 1850 1753 
Q 2319 2222 2519 2614 
Q 2719 3006 2719 3438 
Q 2719 3909 2473 4175 
Q 2228 4441 1797 4441 
Q 1350 4441 1106 4219 
Q 863 3997 819 3553 
z
" transform="scale(0.015625)"/>
      <path id="DejaVuSerif-31" d="M 909 0 
L 909 331 
L 1722 331 
L 1722 4213 
L 781 3603 
L 781 4013 
L 1919 4750 
L 2350 4750 
L 2350 331 
L 3163 331 
L 3163 0 
L 909 0 
z
" transform="scale(0.015625)"/>
      <path id="DejaVuSerif-3d" d="M 678 2894 
L 4684 2894 
L 4684 2394 
L 678 2394 
L 678 2894 
z
M 678 1619 
L 4684 1619 
L 4684 1119 
L 678 1119 
L 678 1619 
z
" transform="scale(0.015625)"/>
      <path id="DejaVuSerif-34" d="M 2234 1581 
L 2234 4063 
L 641 1581 
L 2234 1581 
z
M 3609 0 
L 1484 0 
L 1484 331 
L 2234 331 
L 2234 1247 
L 197 1247 
L 197 1588 
L 2241 4750 
L 2859 4750 
L 2859 1581 
L 3750 1581 
L 3750 1247 
L 2859 1247 
L 2859 331 
L 3609 331 
L 3609 0 
z
" transform="scale(0.015625)"/>
      <path id="DejaVuSerif-2212" d="M 678 2259 
L 4684 2259 
L 4684 1753 
L 678 1753 
L 678 2259 
z
" transform="scale(0.015625)"/>
      <path id="Cmex10-70" d="M 2713 -7425 
L 1269 -4063 
L 819 -4409 
L 703 -4294 
L 1619 -3584 
L 2969 -6725 
L 6291 197 
Q 6322 256 6400 256 
Q 6453 256 6490 218 
Q 6528 181 6528 128 
Q 6528 97 6522 84 
L 2950 -7366 
Q 2925 -7425 2853 -7425 
L 2713 -7425 
z
" transform="scale(0.015625)"/>
      <path id="DejaVuSerif-230a" d="M 550 -844 
L 550 4863 
L 1147 4863 
L 1147 -513 
L 2003 -513 
L 2003 -844 
L 550 -844 
z
" transform="scale(0.015625)"/>
      <path id="DejaVuSerif-230b" d="M 1947 -844 
L 494 -844 
L 494 -513 
L 1350 -513 
L 1350 4863 
L 1947 4863 
L 1947 -844 
z
" transform="scale(0.015625)"/>
     </defs>
     <use xlink:href="#DejaVuSerif-32" transform="translate(0 0.120313)"/>
     <use xlink:href="#DejaVuSerif-31" transform="translate(63.623047 0.120313)"/>
     <use xlink:href="#DejaVuSerif-3d" transform="translate(146.210938 0.120313)"/>
     <use xlink:href="#DejaVuSerif-34" transform="translate(248.964844 43.971875) scale(0.7)"/>
     <use xlink:href="#DejaVuSerif-34" transform="translate(293.500977 43.971875) scale(0.7)"/>
     <use xlink:href="#DejaVuSerif-2212" transform="translate(351.3125 43.971875) scale(0.7)"/>
     <use xlink:href="#Cmex10-70" transform="translate(423.240234 115.33125) scale(0.615154)"/>
     <use xlink:href="#DejaVuSerif-34" transform="translate(493.502734 43.671875) scale(0.7)"/>
     <use xlink:href="#Cmex10-70" transform="translate(335.964844 6.053125) scale(0.615154)"/>
     <use xlink:href="#DejaVuSerif-34" transform="translate(406.227344 -65.60625) scale(0.7)"/>
     <use xlink:href="#DejaVuSerif-3d" transform="translate(578.253711 0.120313)"/>
     <use xlink:href="#DejaVuSerif-230a" transform="translate(681.007617 0.120313)"/>
     <use xlink:href="#Cmex10-70" transform="translate(720.021289 102.073438) scale(0.878792)"/>
     <use xlink:href="#DejaVuSerif-34" transform="translate(820.396289 0.120313)"/>
     <use xlink:href="#DejaVuSerif-34" transform="translate(884.019336 0.120313)"/>
     <use xlink:href="#DejaVuSerif-34" transform="translate(947.642383 0.120313)"/>
     <use xlink:href="#DejaVuSerif-230b" transform="translate(1023.76543 0.120313)"/>
     <path d="M 484.752734 113.25 
L 484.752734 117.625 
L 546.788867 117.625 
L 546.788867 113.25 
L 484.752734 113.25 
z
"/>
     <path d="M 248.964844 18.971875 
L 248.964844 25.221875 
L 546.788867 25.221875 
L 546.788867 18.971875 
L 248.964844 18.971875 
z
"/>
     <path d="M 397.477344 3.971875 
L 397.477344 8.346875 
L 459.513477 8.346875 
L 459.513477 3.971875 
L 397.477344 3.971875 
z
"/>
     <path d="M 807.896289 99.089063 
L 807.896289 105.339063 
L 1023.76543 105.339063 
L 1023.76543 99.089063 
L 807.896289 99.089063 
z
"/>
    </g>
   </g>
  </g>
 </g>
</svg>
