<svg xmlns="http://www.w3.org/2000/svg" width="539.787" height="139.424" viewBox="0.824 -82.696 539.787 139.424"><symbol id="STIXTwoMathRegular_1139" viewBox="0 -31.524 5.568 51.216"><path d="M 5.568 -1.92 L 5.568 -1.92 L 5.184 0 L 0.456 0 L 0.456 -0.408 L 2.28 -2.232 Q 2.88 -2.844 3.276 -3.342 Q 3.672 -3.84 3.87 -4.344 Q 4.068 -4.848 4.068 -5.472 Q 4.068 -6.144 3.666 -6.546 Q 3.264 -6.948 2.568 -6.948 Q 1.98 -6.948 1.566 -6.696 Q 1.152 -6.444 0.816 -5.772 L 0.528 -5.892 Q 0.804 -6.768 1.404 -7.248 Q 2.004 -7.728 2.88 -7.728 Q 3.564 -7.728 4.08 -7.47 Q 4.596 -7.212 4.89 -6.75 Q 5.184 -6.288 5.184 -5.652 Q 5.184 -5.124 4.962 -4.638 Q 4.74 -4.152 4.302 -3.636 Q 3.864 -3.12 3.228 -2.472 L 1.644 -0.972 L 1.644 -0.912 L 2.484 -0.948 L 4.152 -0.948 Q 4.632 -0.948 4.824 -1.164 Q 5.016 -1.38 5.22 -1.92 Z " /></symbol><use href="#STIXTwoMathRegular_1139" x="0" y="-126.096" width="22.272" height="204.864" fill="white" /><symbol id="STIXTwoMathRegular_1138" viewBox="0 -31.524 5.112 51.216"><path d="M 5.112 0 L 5.112 0 L 0.96 0 L 0.96 -0.336 Q 1.812 -0.336 2.16 -0.516 Q 2.508 -0.696 2.508 -1.14 L 2.508 -6.216 Q 2.508 -6.528 2.424 -6.666 Q 2.34 -6.804 2.112 -6.804 Q 1.932 -6.804 1.548 -6.756 Q 1.164 -6.708 0.888 -6.612 L 0.888 -7.008 L 3.216 -7.668 L 3.564 -7.668 L 3.564 -1.14 Q 3.564 -0.696 3.924 -0.516 Q 4.284 -0.336 5.112 -0.336 Z " /></symbol><use href="#STIXTwoMathRegular_1138" x="23.76" y="-126.096" width="20.448" height="204.864" fill="white" /><symbol id="STIXTwoMathRegular_1202" viewBox="0 -31.524 7.896 51.216"><path d="M 7.896 -3.924 L 7.896 -3.924 L 0.744 -3.924 L 0.744 -4.74 L 7.896 -4.74 Z M 7.896 -1.476 L 7.896 -1.476 L 0.744 -1.476 L 0.744 -2.28 L 7.896 -2.28 Z " /></symbol><use href="#STIXTwoMathRegular_1202" x="65.293" y="-126.096" width="31.584" height="204.864" fill="white" /><symbol id="STIXTwoMathRegular_1141" viewBox="0 -31.524 5.772 51.216"><path d="M 5.772 -1.896 L 5.772 -1.896 L 4.548 -1.896 L 4.548 0 L 3.48 0 L 3.48 -1.896 L 0.156 -1.896 L 0.156 -2.652 L 3.816 -7.74 L 4.548 -7.74 L 4.548 -2.724 L 5.772 -2.724 Z M 3.48 -2.724 L 3.48 -2.724 L 3.48 -6.432 L 3.432 -6.432 L 0.816 -2.772 L 0.816 -2.724 Z " /></symbol><use href="#STIXTwoMathRegular_1141" x="128.603" y="-160.032" width="23.088" height="204.864" fill="white" /><use href="#STIXTwoMathRegular_1141" x="152.363" y="-160.032" width="23.088" height="204.864" fill="white" /><symbol id="STIXTwoMathRegular_1197" viewBox="0 -31.524 7.896 51.216"><path d="M 7.896 -2.7 L 7.896 -2.7 L 0.744 -2.7 L 0.744 -3.516 L 7.896 -3.516 Z " /></symbol><use href="#STIXTwoMathRegular_1197" x="190.341" y="-160.032" width="31.584" height="204.864" fill="white" /><symbol id="STIXTwoMathRegular_1657" viewBox="0 -31.524 9.948 51.216"><path d="M 8.004 -11.064 L 8.004 -11.064 L 9.948 -11.064 L 9.948 -10.248 L 8.556 -10.248 L 4.956 3.18 L 4.452 3.18 L 1.656 -3.828 L 0.408 -3.348 L 0.216 -3.684 L 2.124 -5.004 L 2.364 -5.004 L 4.74 1.116 L 4.788 1.116 Z " /></symbol><use href="#STIXTwoMathRegular_1657" x="239.12" y="-160.032" width="39.792" height="204.864" fill="white" /><use href="#STIXTwoMathRegular_1141" x="277.232" y="-160.032" width="23.088" height="204.864" fill="white" /><rect x="277.232" y="-78.192" width="23.76" height="3.264" fill="white" /><use href="#STIXTwoMathRegular_1657" x="183.981" y="-85.392" width="39.792" height="204.864" fill="white" /><use href="#STIXTwoMathRegular_1141" x="222.093" y="-85.392" width="23.088" height="204.864" fill="white" /><rect x="222.093" y="-3.552" width="23.76" height="3.264" fill="white" /><rect x="128.291" y="-14.016" width="172.389" height="3.264" fill="white" /><use href="#STIXTwoMathRegular_1202" x="329.118" y="-126.096" width="31.584" height="204.864" fill="white" /><symbol id="STIXTwoMathRegular_5392" viewBox="0 -31.524 5.1 51.216"><path d="M 2.688 13.356 L 2.688 13.356 L 5.1 13.356 L 5.1 13.932 L 1.476 13.932 L 1.476 -20.424 L 2.688 -20.424 Z " /></symbol><use href="#STIXTwoMathRegular_5392" x="381.451" y="-126.096" width="20.4" height="204.864" fill="white" /><use href="#STIXTwoMathRegular_1657" x="405.835" y="-126.096" width="39.792" height="204.864" fill="white" /><use href="#STIXTwoMathRegular_1141" x="443.947" y="-126.096" width="23.088" height="204.864" fill="white" /><use href="#STIXTwoMathRegular_1141" x="467.707" y="-126.096" width="23.088" height="204.864" fill="white" /><use href="#STIXTwoMathRegular_1141" x="491.467" y="-126.096" width="23.088" height="204.864" fill="white" /><rect x="443.947" y="-44.256" width="71.28" height="3.264" fill="white" /><symbol id="STIXTwoMathRegular_5400" viewBox="0 -31.524 4.62 51.216"><path d="M 0.996 13.356 L 0.996 13.356 L 3.408 13.356 L 3.408 -20.424 L 4.62 -20.424 L 4.62 13.932 L 0.996 13.932 Z " /></symbol><use href="#STIXTwoMathRegular_5400" x="515.227" y="-126.096" width="18.48" height="204.864" fill="white" /></svg>