<?xml version="1.0" encoding="utf-8" standalone="no"?>
<!DOCTYPE svg PUBLIC "-//W3C//DTD SVG 1.1//EN"
  "http://www.w3.org/Graphics/SVG/1.1/DTD/svg11.dtd">
<svg xmlns:xlink="http://www.w3.org/1999/xlink" width="649.92pt" height="81.6pt" viewBox="0 0 649.92 81.6" xmlns="http://www.w3.org/2000/svg" version="1.1">
 <metadata>
  <rdf:RDF xmlns:dc="http://purl.org/dc/elements/1.1/" xmlns:cc="http://creativecommons.org/ns#" xmlns:rdf="http://www.w3.org/1999/02/22-rdf-syntax-ns#">
   <cc:Work>
    <dc:type rdf:resource="http://purl.org/dc/dcmitype/StillImage"/>
    <dc:date>2026-03-01T11:54:44.382918</dc:date>
    <dc:format>image/svg+xml</dc:format>
    <dc:creator>
     <cc:Agent>
      <dc:title>Matplotlib v3.10.8, https://matplotlib.org/</dc:title>
     </cc:Agent>
    </dc:creator>
   </cc:Work>
  </rdf:RDF>
 </metadata>
 <defs>
  <style type="text/css">*{stroke-linejoin: round; stroke-linecap: butt}</style>
 </defs>
 <g id="figure_1">
  <g id="patch_1">
   <path d="M 0 81.6 
L 649.92 81.6 
L 649.92 0 
L 0 0 
L 0 81.6 
z
" style="fill: none"/>
  </g>
  <g id="axes_1">
   <g id="text_1">
    <!-- $25 = \frac{4}{.4\times.4} = 4!+\frac{4}{4} = \frac{4!-4}{.4\times\sqrt{4}}$ -->
    <g style="fill: #ffffff" transform="translate(0 49.44) scale(0.48 -0.48)">
     <defs>
      <path id="DejaVuSerif-32" d="M 819 3553 
L 469 3553 
L 469 4384 
Q 803 4563 1142 4656 
Q 1481 4750 1806 4750 
Q 2534 4750 2956 4397 
Q 3378 4044 3378 3438 
Q 3378 2753 2422 1800 
Q 2347 1728 2309 1691 
L 1131 513 
L 3078 513 
L 3078 1088 
L 3444 1088 
L 3444 0 
L 434 0 
L 434 341 
L 1850 1753 
Q 2319 2222 2519 2614 
Q 2719 3006 2719 3438 
Q 2719 3909 2473 4175 
Q 2228 4441 1797 4441 
Q 1350 4441 1106 4219 
Q 863 3997 819 3553 
z
" transform="scale(0.015625)"/>
      <path id="DejaVuSerif-35" d="M 3219 4666 
L 3219 4153 
L 1081 4153 
L 1081 2816 
Q 1244 2928 1461 2984 
Q 1678 3041 1947 3041 
Q 2703 3041 3140 2622 
Q 3578 2203 3578 1478 
Q 3578 738 3136 323 
Q 2694 -91 1894 -91 
Q 1572 -91 1234 -12 
Q 897 66 544 225 
L 544 1131 
L 897 1131 
Q 925 688 1179 453 
Q 1434 219 1894 219 
Q 2388 219 2653 544 
Q 2919 869 2919 1478 
Q 2919 2084 2655 2407 
Q 2391 2731 1894 2731 
Q 1613 2731 1398 2631 
Q 1184 2531 1019 2322 
L 750 2322 
L 750 4666 
L 3219 4666 
z
" transform="scale(0.015625)"/>
      <path id="DejaVuSerif-3d" d="M 678 2894 
L 4684 2894 
L 4684 2394 
L 678 2394 
L 678 2894 
z
M 678 1619 
L 4684 1619 
L 4684 1119 
L 678 1119 
L 678 1619 
z
" transform="scale(0.015625)"/>
      <path id="DejaVuSerif-34" d="M 2234 1581 
L 2234 4063 
L 641 1581 
L 2234 1581 
z
M 3609 0 
L 1484 0 
L 1484 331 
L 2234 331 
L 2234 1247 
L 197 1247 
L 197 1588 
L 2241 4750 
L 2859 4750 
L 2859 1581 
L 3750 1581 
L 3750 1247 
L 2859 1247 
L 2859 331 
L 3609 331 
L 3609 0 
z
" transform="scale(0.015625)"/>
      <path id="DejaVuSerif-2e" d="M 603 325 
Q 603 500 722 622 
Q 841 744 1019 744 
Q 1191 744 1312 622 
Q 1434 500 1434 325 
Q 1434 153 1312 31 
Q 1191 -91 1019 -91 
Q 841 -91 722 29 
Q 603 150 603 325 
z
" transform="scale(0.015625)"/>
      <path id="DejaVuSerif-d7" d="M 4481 3450 
L 3034 2003 
L 4481 563 
L 4122 213 
L 2681 1650 
L 1241 213 
L 884 563 
L 2322 2003 
L 884 3450 
L 1241 3803 
L 2681 2363 
L 4122 3803 
L 4481 3450 
z
" transform="scale(0.015625)"/>
      <path id="DejaVuSerif-21" d="M 872 325 
Q 872 500 990 622 
Q 1109 744 1288 744 
Q 1459 744 1581 622 
Q 1703 500 1703 325 
Q 1703 153 1581 31 
Q 1459 -91 1288 -91 
Q 1109 -91 990 29 
Q 872 150 872 325 
z
M 884 4666 
L 1691 4666 
L 1478 2100 
L 1478 1313 
L 1094 1313 
L 1094 2100 
L 884 4666 
z
" transform="scale(0.015625)"/>
      <path id="DejaVuSerif-2b" d="M 2931 4013 
L 2931 2259 
L 4684 2259 
L 4684 1753 
L 2931 1753 
L 2931 0 
L 2431 0 
L 2431 1753 
L 678 1753 
L 678 2259 
L 2431 2259 
L 2431 4013 
L 2931 4013 
z
" transform="scale(0.015625)"/>
      <path id="DejaVuSerif-2212" d="M 678 2259 
L 4684 2259 
L 4684 1753 
L 678 1753 
L 678 2259 
z
" transform="scale(0.015625)"/>
      <path id="Cmex10-70" d="M 2713 -7425 
L 1269 -4063 
L 819 -4409 
L 703 -4294 
L 1619 -3584 
L 2969 -6725 
L 6291 197 
Q 6322 256 6400 256 
Q 6453 256 6490 218 
Q 6528 181 6528 128 
Q 6528 97 6522 84 
L 2950 -7366 
Q 2925 -7425 2853 -7425 
L 2713 -7425 
z
" transform="scale(0.015625)"/>
     </defs>
     <use xlink:href="#DejaVuSerif-32" transform="translate(0 0.2)"/>
     <use xlink:href="#DejaVuSerif-35" transform="translate(63.623047 0.2)"/>
     <use xlink:href="#DejaVuSerif-3d" transform="translate(146.210938 0.2)"/>
     <use xlink:href="#DejaVuSerif-34" transform="translate(348.964844 44.051562) scale(0.7)"/>
     <use xlink:href="#DejaVuSerif-2e" transform="translate(248.964844 -39.151563) scale(0.7)"/>
     <use xlink:href="#DejaVuSerif-34" transform="translate(284.491211 -39.151563) scale(0.7)"/>
     <use xlink:href="#DejaVuSerif-d7" transform="translate(342.302734 -39.151563) scale(0.7)"/>
     <use xlink:href="#DejaVuSerif-2e" transform="translate(414.230469 -39.151563) scale(0.7)"/>
     <use xlink:href="#DejaVuSerif-34" transform="translate(449.756836 -39.151563) scale(0.7)"/>
     <use xlink:href="#DejaVuSerif-3d" transform="translate(525.757812 0.2)"/>
     <use xlink:href="#DejaVuSerif-34" transform="translate(628.511719 0.2)"/>
     <use xlink:href="#DejaVuSerif-21" transform="translate(692.134766 0.2)"/>
     <use xlink:href="#DejaVuSerif-2b" transform="translate(770.25 0.2)"/>
     <use xlink:href="#DejaVuSerif-34" transform="translate(873.003906 44.051562) scale(0.7)"/>
     <use xlink:href="#DejaVuSerif-34" transform="translate(873.003906 -39.151563) scale(0.7)"/>
     <use xlink:href="#DejaVuSerif-3d" transform="translate(949.004883 0.2)"/>
     <use xlink:href="#DejaVuSerif-34" transform="translate(1088.758789 45.046875) scale(0.7)"/>
     <use xlink:href="#DejaVuSerif-21" transform="translate(1133.294922 45.046875) scale(0.7)"/>
     <use xlink:href="#DejaVuSerif-2212" transform="translate(1187.975586 45.046875) scale(0.7)"/>
     <use xlink:href="#DejaVuSerif-34" transform="translate(1259.90332 45.046875) scale(0.7)"/>
     <use xlink:href="#DejaVuSerif-2e" transform="translate(1051.758789 -65.226562) scale(0.7)"/>
     <use xlink:href="#DejaVuSerif-34" transform="translate(1087.285156 -65.226562) scale(0.7)"/>
     <use xlink:href="#DejaVuSerif-d7" transform="translate(1145.09668 -65.226562) scale(0.7)"/>
     <use xlink:href="#Cmex10-70" transform="translate(1217.024414 6.132812) scale(0.615154)"/>
     <use xlink:href="#DejaVuSerif-34" transform="translate(1287.286914 -65.526563) scale(0.7)"/>
     <path d="M 248.964844 19.051562 
L 248.964844 25.301562 
L 494.292969 25.301562 
L 494.292969 19.051562 
L 248.964844 19.051562 
z
"/>
     <path d="M 873.003906 19.051562 
L 873.003906 25.301562 
L 917.540039 25.301562 
L 917.540039 19.051562 
L 873.003906 19.051562 
z
"/>
     <path d="M 1051.758789 19.051563 
L 1051.758789 25.301563 
L 1340.573047 25.301563 
L 1340.573047 19.051563 
L 1051.758789 19.051563 
z
"/>
     <path d="M 1278.536914 4.051563 
L 1278.536914 8.426563 
L 1340.573047 8.426563 
L 1340.573047 4.051563 
L 1278.536914 4.051563 
z
"/>
    </g>
   </g>
  </g>
 </g>
</svg>
