<svg xmlns="http://www.w3.org/2000/svg" width="537.138" height="65.619" viewBox="0.824 -51.899 537.138 65.619"><symbol id="STIXTwoMathRegular_1139" viewBox="0 -31.524 5.568 51.216"><path d="M 5.568 -1.92 L 5.568 -1.92 L 5.184 0 L 0.456 0 L 0.456 -0.408 L 2.28 -2.232 Q 2.88 -2.844 3.276 -3.342 Q 3.672 -3.84 3.87 -4.344 Q 4.068 -4.848 4.068 -5.472 Q 4.068 -6.144 3.666 -6.546 Q 3.264 -6.948 2.568 -6.948 Q 1.98 -6.948 1.566 -6.696 Q 1.152 -6.444 0.816 -5.772 L 0.528 -5.892 Q 0.804 -6.768 1.404 -7.248 Q 2.004 -7.728 2.88 -7.728 Q 3.564 -7.728 4.08 -7.47 Q 4.596 -7.212 4.89 -6.75 Q 5.184 -6.288 5.184 -5.652 Q 5.184 -5.124 4.962 -4.638 Q 4.74 -4.152 4.302 -3.636 Q 3.864 -3.12 3.228 -2.472 L 1.644 -0.972 L 1.644 -0.912 L 2.484 -0.948 L 4.152 -0.948 Q 4.632 -0.948 4.824 -1.164 Q 5.016 -1.38 5.22 -1.92 Z " /></symbol><use href="#STIXTwoMathRegular_1139" x="0" y="-126.096" width="22.272" height="204.864" fill="white" /><symbol id="STIXTwoMathRegular_1145" viewBox="0 -31.524 5.376 51.216"><path d="M 5.376 -1.8 L 5.376 -1.8 Q 5.376 -0.852 4.698 -0.354 Q 4.02 0.144 2.952 0.144 Q 1.908 0.144 1.23 -0.324 Q 0.552 -0.792 0.552 -1.704 Q 0.552 -2.184 0.732 -2.514 Q 0.912 -2.844 1.278 -3.132 Q 1.644 -3.42 2.196 -3.792 L 2.196 -3.828 Q 1.584 -4.26 1.266 -4.59 Q 0.948 -4.92 0.828 -5.25 Q 0.708 -5.58 0.708 -5.988 Q 0.708 -6.54 1.002 -6.936 Q 1.296 -7.332 1.812 -7.548 Q 2.328 -7.764 2.988 -7.764 Q 3.588 -7.764 4.062 -7.548 Q 4.536 -7.332 4.812 -6.96 Q 5.088 -6.588 5.088 -6.108 Q 5.088 -5.676 4.932 -5.364 Q 4.776 -5.052 4.44 -4.794 Q 4.104 -4.536 3.54 -4.224 L 3.54 -4.188 Q 4.248 -3.768 4.644 -3.402 Q 5.04 -3.036 5.208 -2.658 Q 5.376 -2.28 5.376 -1.8 Z M 2.556 -3.6 L 2.556 -3.6 Q 2.04 -3.192 1.764 -2.808 Q 1.488 -2.424 1.488 -1.8 Q 1.488 -0.996 1.902 -0.612 Q 2.316 -0.228 3 -0.228 Q 3.564 -0.228 3.966 -0.534 Q 4.368 -0.84 4.368 -1.452 Q 4.368 -1.836 4.218 -2.148 Q 4.068 -2.46 3.678 -2.796 Q 3.288 -3.132 2.556 -3.6 Z M 4.2 -6.132 L 4.2 -6.132 Q 4.2 -6.732 3.87 -7.05 Q 3.54 -7.368 2.964 -7.368 Q 2.352 -7.368 1.998 -7.062 Q 1.644 -6.756 1.644 -6.204 Q 1.644 -5.676 2.004 -5.292 Q 2.364 -4.908 3.168 -4.416 Q 3.768 -4.776 3.984 -5.166 Q 4.2 -5.556 4.2 -6.132 Z " /></symbol><use href="#STIXTwoMathRegular_1145" x="23.76" y="-126.096" width="21.504" height="204.864" fill="white" /><symbol id="STIXTwoMathRegular_1202" viewBox="0 -31.524 7.896 51.216"><path d="M 7.896 -3.924 L 7.896 -3.924 L 0.744 -3.924 L 0.744 -4.74 L 7.896 -4.74 Z M 7.896 -1.476 L 7.896 -1.476 L 0.744 -1.476 L 0.744 -2.28 L 7.896 -2.28 Z " /></symbol><use href="#STIXTwoMathRegular_1202" x="65.293" y="-126.096" width="31.584" height="204.864" fill="white" /><symbol id="STIXTwoMathRegular_1141" viewBox="0 -31.524 5.772 51.216"><path d="M 5.772 -1.896 L 5.772 -1.896 L 4.548 -1.896 L 4.548 0 L 3.48 0 L 3.48 -1.896 L 0.156 -1.896 L 0.156 -2.652 L 3.816 -7.74 L 4.548 -7.74 L 4.548 -2.724 L 5.772 -2.724 Z M 3.48 -2.724 L 3.48 -2.724 L 3.48 -6.432 L 3.432 -6.432 L 0.816 -2.772 L 0.816 -2.724 Z " /></symbol><use href="#STIXTwoMathRegular_1141" x="117.627" y="-126.096" width="23.088" height="204.864" fill="white" /><symbol id="STIXTwoMathRegular_1054" viewBox="0 -31.524 2.412 51.216"><path d="M 1.476 -2.04 L 1.476 -2.04 L 1.104 -6.456 Q 1.092 -6.708 1.074 -6.9 Q 1.056 -7.092 1.056 -7.236 Q 1.056 -7.572 1.188 -7.8 Q 1.32 -8.028 1.692 -8.028 Q 2.04 -8.028 2.184 -7.8 Q 2.328 -7.572 2.328 -7.212 Q 2.328 -6.876 2.292 -6.456 L 1.896 -2.04 Z M 2.412 -0.588 L 2.412 -0.588 Q 2.412 -0.312 2.226 -0.108 Q 2.04 0.096 1.692 0.096 Q 1.344 0.096 1.164 -0.102 Q 0.984 -0.3 0.984 -0.6 Q 0.984 -0.9 1.17 -1.116 Q 1.356 -1.332 1.692 -1.332 Q 2.04 -1.332 2.226 -1.11 Q 2.412 -0.888 2.412 -0.588 Z " /></symbol><use href="#STIXTwoMathRegular_1054" x="148.496" y="-126.096" width="9.648" height="204.864" fill="white" /><symbol id="STIXTwoMathRegular_1196" viewBox="0 -31.524 7.896 51.216"><path d="M 7.896 -2.7 L 7.896 -2.7 L 4.752 -2.7 L 4.752 0.48 L 3.888 0.48 L 3.888 -2.7 L 0.744 -2.7 L 0.744 -3.516 L 3.888 -3.516 L 3.888 -6.696 L 4.752 -6.696 L 4.752 -3.516 L 7.896 -3.516 Z " /></symbol><use href="#STIXTwoMathRegular_1196" x="176.299" y="-126.096" width="31.584" height="204.864" fill="white" /><use href="#STIXTwoMathRegular_1141" x="225.077" y="-126.096" width="23.088" height="204.864" fill="white" /><use href="#STIXTwoMathRegular_1202" x="266.611" y="-126.096" width="31.584" height="204.864" fill="white" /><use href="#STIXTwoMathRegular_1141" x="318.944" y="-126.096" width="23.088" height="204.864" fill="white" /><symbol id="STIXTwoMathRegular_1657" viewBox="0 -31.524 9.948 51.216"><path d="M 8.004 -11.064 L 8.004 -11.064 L 9.948 -11.064 L 9.948 -10.248 L 8.556 -10.248 L 4.956 3.18 L 4.452 3.18 L 1.656 -3.828 L 0.408 -3.348 L 0.216 -3.684 L 2.124 -5.004 L 2.364 -5.004 L 4.74 1.116 L 4.788 1.116 Z " /></symbol><use href="#STIXTwoMathRegular_1657" x="342.704" y="-108.187" width="27.854" height="143.405" fill="white" /><symbol id="STIXTwoMathRegular_4277" viewBox="0 -31.524 6.444 51.216"><path d="M 6.444 -1.896 L 6.444 -1.896 L 5.136 -1.896 L 5.136 0 L 3.948 0 L 3.948 -1.896 L 0.42 -1.896 L 0.42 -2.808 L 4.272 -8.04 L 5.136 -8.04 L 5.136 -2.88 L 6.444 -2.88 Z M 3.948 -2.88 L 3.948 -2.88 L 3.948 -6.588 L 3.876 -6.588 L 1.236 -2.952 L 1.236 -2.88 Z " /></symbol><use href="#STIXTwoMathRegular_4277" x="369.383" y="-108.187" width="18.043" height="143.405" fill="white" /><rect x="369.383" y="-50.899" width="18.95" height="2.285" fill="white" /><use href="#STIXTwoMathRegular_1657" x="388.333" y="-126.096" width="39.792" height="204.864" fill="white" /><use href="#STIXTwoMathRegular_1141" x="426.445" y="-126.096" width="23.088" height="204.864" fill="white" /><rect x="426.445" y="-44.256" width="23.76" height="3.264" fill="white" /><symbol id="STIXTwoMathRegular_1197" viewBox="0 -31.524 7.896 51.216"><path d="M 7.896 -2.7 L 7.896 -2.7 L 0.744 -2.7 L 0.744 -3.516 L 7.896 -3.516 Z " /></symbol><use href="#STIXTwoMathRegular_1197" x="464.424" y="-126.096" width="31.584" height="204.864" fill="white" /><use href="#STIXTwoMathRegular_1141" x="513.202" y="-126.096" width="23.088" height="204.864" fill="white" /></svg>