<svg xmlns="http://www.w3.org/2000/svg" width="706.514" height="118.256" viewBox="1.832 -63.832 706.514 118.256"><symbol id="STIXTwoMathRegular_1140" viewBox="0 -31.524 5.328 51.216"><path d="M 1.032 -5.976 L 1.032 -5.976 L 0.756 -6.132 Q 1.44 -7.728 2.928 -7.728 Q 3.852 -7.728 4.356 -7.266 Q 4.86 -6.804 4.86 -6.12 Q 4.86 -5.496 4.494 -5.112 Q 4.128 -4.728 3.564 -4.368 L 3.564 -4.332 Q 4.044 -4.188 4.446 -3.918 Q 4.848 -3.648 5.088 -3.258 Q 5.328 -2.868 5.328 -2.328 Q 5.328 -1.512 4.872 -0.954 Q 4.416 -0.396 3.672 -0.12 Q 2.928 0.156 2.052 0.156 Q 1.512 0.156 1.224 0.054 Q 0.936 -0.048 0.822 -0.198 Q 0.708 -0.348 0.708 -0.504 Q 0.708 -0.696 0.828 -0.864 Q 0.948 -1.032 1.176 -1.032 Q 1.32 -1.032 1.446 -0.978 Q 1.572 -0.924 1.884 -0.756 Q 2.268 -0.564 2.454 -0.504 Q 2.64 -0.444 2.856 -0.444 Q 3.24 -0.444 3.576 -0.582 Q 3.912 -0.72 4.128 -1.05 Q 4.344 -1.38 4.344 -1.968 Q 4.344 -2.508 4.044 -2.904 Q 3.744 -3.3 3.246 -3.522 Q 2.748 -3.744 2.172 -3.744 L 1.932 -3.744 L 1.932 -4.2 L 2.16 -4.2 Q 2.568 -4.2 2.952 -4.404 Q 3.336 -4.608 3.582 -4.98 Q 3.828 -5.352 3.828 -5.832 Q 3.828 -6.36 3.498 -6.654 Q 3.168 -6.948 2.604 -6.948 Q 2.064 -6.948 1.704 -6.702 Q 1.344 -6.456 1.032 -5.976 Z " /></symbol><use href="#STIXTwoMathRegular_1140" x="0" y="-126.096" width="21.312" height="204.864" fill="white" /><symbol id="STIXTwoMathRegular_1202" viewBox="0 -31.524 7.896 51.216"><path d="M 7.896 -3.924 L 7.896 -3.924 L 0.744 -3.924 L 0.744 -4.74 L 7.896 -4.74 Z M 7.896 -1.476 L 7.896 -1.476 L 0.744 -1.476 L 0.744 -2.28 L 7.896 -2.28 Z " /></symbol><use href="#STIXTwoMathRegular_1202" x="41.533" y="-126.096" width="31.584" height="204.864" fill="white" /><symbol id="STIXTwoMathRegular_1141" viewBox="0 -31.524 5.772 51.216"><path d="M 5.772 -1.896 L 5.772 -1.896 L 4.548 -1.896 L 4.548 0 L 3.48 0 L 3.48 -1.896 L 0.156 -1.896 L 0.156 -2.652 L 3.816 -7.74 L 4.548 -7.74 L 4.548 -2.724 L 5.772 -2.724 Z M 3.48 -2.724 L 3.48 -2.724 L 3.48 -6.432 L 3.432 -6.432 L 0.816 -2.772 L 0.816 -2.724 Z " /></symbol><use href="#STIXTwoMathRegular_1141" x="93.867" y="-126.096" width="23.088" height="204.864" fill="white" /><symbol id="STIXTwoMathRegular_1197" viewBox="0 -31.524 7.896 51.216"><path d="M 7.896 -2.7 L 7.896 -2.7 L 0.744 -2.7 L 0.744 -3.516 L 7.896 -3.516 Z " /></symbol><use href="#STIXTwoMathRegular_1197" x="131.845" y="-126.096" width="31.584" height="204.864" fill="white" /><use href="#STIXTwoMathRegular_1141" x="191.6" y="-156.816" width="23.088" height="204.864" fill="white" /><use href="#STIXTwoMathRegular_1141" x="191.6" y="-95.376" width="23.088" height="204.864" fill="white" /><rect x="191.288" y="-14.016" width="23.76" height="3.264" fill="white" /><use href="#STIXTwoMathRegular_1202" x="243.486" y="-126.096" width="31.584" height="204.864" fill="white" /><use href="#STIXTwoMathRegular_1141" x="327.384" y="-156.816" width="23.088" height="204.864" fill="white" /><symbol id="STIXTwoMathRegular_1054" viewBox="0 -31.524 2.412 51.216"><path d="M 1.476 -2.04 L 1.476 -2.04 L 1.104 -6.456 Q 1.092 -6.708 1.074 -6.9 Q 1.056 -7.092 1.056 -7.236 Q 1.056 -7.572 1.188 -7.8 Q 1.32 -8.028 1.692 -8.028 Q 2.04 -8.028 2.184 -7.8 Q 2.328 -7.572 2.328 -7.212 Q 2.328 -6.876 2.292 -6.456 L 1.896 -2.04 Z M 2.412 -0.588 L 2.412 -0.588 Q 2.412 -0.312 2.226 -0.108 Q 2.04 0.096 1.692 0.096 Q 1.344 0.096 1.164 -0.102 Q 0.984 -0.3 0.984 -0.6 Q 0.984 -0.9 1.17 -1.116 Q 1.356 -1.332 1.692 -1.332 Q 2.04 -1.332 2.226 -1.11 Q 2.412 -0.888 2.412 -0.588 Z " /></symbol><use href="#STIXTwoMathRegular_1054" x="358.254" y="-156.816" width="9.648" height="204.864" fill="white" /><use href="#STIXTwoMathRegular_1141" x="306.795" y="-85.392" width="23.088" height="204.864" fill="white" /><symbol id="STIXTwoMathRegular_1657" viewBox="0 -31.524 9.948 51.216"><path d="M 8.004 -11.064 L 8.004 -11.064 L 9.948 -11.064 L 9.948 -10.248 L 8.556 -10.248 L 4.956 3.18 L 4.452 3.18 L 1.656 -3.828 L 0.408 -3.348 L 0.216 -3.684 L 2.124 -5.004 L 2.364 -5.004 L 4.74 1.116 L 4.788 1.116 Z " /></symbol><use href="#STIXTwoMathRegular_1657" x="330.555" y="-85.392" width="39.792" height="204.864" fill="white" /><use href="#STIXTwoMathRegular_1141" x="368.667" y="-85.392" width="23.088" height="204.864" fill="white" /><rect x="368.667" y="-3.552" width="23.76" height="3.264" fill="white" /><rect x="306.483" y="-14.016" width="85.632" height="3.264" fill="white" /><use href="#STIXTwoMathRegular_1202" x="420.552" y="-126.096" width="31.584" height="204.864" fill="white" /><symbol id="STIXTwoMathRegular_6752" viewBox="0 -31.524 0 51.216" /><use href="#STIXTwoMathRegular_6752" x="472.886" y="-126.096" width="0" height="204.864" fill="white" /><symbol id="STIXTwoMathRegular_267" viewBox="0 -31.524 3.12 51.216"><path d="M 3.12 -0.348 L 3.12 -0.348 L 3.12 0 L 0.36 0 L 0.36 -0.348 Q 0.756 -0.348 0.936 -0.426 Q 1.116 -0.504 1.158 -0.69 Q 1.2 -0.876 1.2 -1.212 L 1.2 -7.236 Q 1.2 -7.608 1.062 -7.68 Q 0.924 -7.752 0.696 -7.752 Q 0.54 -7.752 0.426 -7.74 Q 0.312 -7.728 0.312 -7.728 L 0.312 -8.052 L 1.896 -8.472 L 2.196 -8.472 L 2.196 -1.212 Q 2.196 -0.864 2.25 -0.678 Q 2.304 -0.492 2.496 -0.42 Q 2.688 -0.348 3.12 -0.348 Z " /></symbol><use href="#STIXTwoMathRegular_267" x="478.886" y="-126.096" width="12.48" height="204.864" fill="white" /><symbol id="STIXTwoMathRegular_270" viewBox="0 -31.524 5.76 51.216"><path d="M 3.096 -5.82 L 3.096 -5.82 Q 4.332 -5.82 5.046 -5.052 Q 5.76 -4.284 5.76 -2.952 Q 5.76 -1.944 5.418 -1.26 Q 5.076 -0.576 4.476 -0.228 Q 3.876 0.12 3.096 0.12 Q 1.836 0.12 1.122 -0.666 Q 0.408 -1.452 0.408 -2.904 Q 0.408 -3.78 0.744 -4.434 Q 1.08 -5.088 1.686 -5.454 Q 2.292 -5.82 3.096 -5.82 Z M 3.048 -5.364 L 3.048 -5.364 Q 2.364 -5.364 1.944 -4.788 Q 1.524 -4.212 1.524 -3.06 Q 1.524 -1.632 1.95 -0.99 Q 2.376 -0.348 3.144 -0.36 Q 3.636 -0.36 3.972 -0.588 Q 4.308 -0.816 4.482 -1.368 Q 4.656 -1.92 4.656 -2.892 Q 4.656 -3.996 4.254 -4.68 Q 3.852 -5.364 3.048 -5.364 Z " /></symbol><use href="#STIXTwoMathRegular_270" x="492.47" y="-126.096" width="23.04" height="204.864" fill="white" /><symbol id="STIXTwoMathRegular_261" viewBox="0 -31.524 5.664 51.216"><path d="M 1.536 -2.208 L 1.536 -2.208 L 1.536 -2.232 Q 1.104 -2.484 0.858 -2.88 Q 0.612 -3.276 0.612 -3.864 Q 0.612 -4.764 1.224 -5.292 Q 1.836 -5.82 2.784 -5.82 Q 3.18 -5.82 3.48 -5.748 Q 3.78 -5.676 3.948 -5.598 Q 4.116 -5.52 4.116 -5.52 L 5.664 -5.604 L 5.664 -4.956 L 4.536 -4.992 L 4.536 -4.932 Q 4.668 -4.752 4.818 -4.452 Q 4.968 -4.152 4.968 -3.696 Q 4.968 -2.856 4.38 -2.364 Q 3.792 -1.872 2.844 -1.872 Q 2.556 -1.872 2.304 -1.92 Q 2.052 -1.968 1.812 -2.052 Q 1.728 -1.932 1.614 -1.668 Q 1.5 -1.404 1.5 -1.248 Q 1.5 -0.984 1.794 -0.876 Q 2.088 -0.768 2.916 -0.768 Q 3.672 -0.768 4.278 -0.696 Q 4.884 -0.624 5.232 -0.324 Q 5.58 -0.024 5.58 0.66 Q 5.58 1.26 5.286 1.674 Q 4.992 2.088 4.506 2.34 Q 4.02 2.592 3.438 2.706 Q 2.856 2.82 2.292 2.82 Q 1.512 2.82 1.062 2.628 Q 0.612 2.436 0.432 2.13 Q 0.252 1.824 0.252 1.5 Q 0.252 1.2 0.498 0.87 Q 0.744 0.54 1.224 0.072 L 1.224 0.024 Q 0.924 -0.132 0.738 -0.36 Q 0.552 -0.588 0.552 -0.84 Q 0.552 -1.164 0.834 -1.524 Q 1.116 -1.884 1.536 -2.208 Z M 1.524 0.12 L 1.524 0.12 Q 1.332 0.456 1.26 0.678 Q 1.188 0.9 1.188 1.092 Q 1.188 2.136 2.988 2.136 Q 3.696 2.136 4.134 1.956 Q 4.572 1.776 4.77 1.512 Q 4.968 1.248 4.968 0.996 Q 4.968 0.684 4.776 0.51 Q 4.584 0.336 4.278 0.264 Q 3.972 0.192 3.63 0.168 Q 3.288 0.144 2.988 0.144 Q 2.916 0.144 2.88 0.144 Q 2.4 0.132 2.136 0.132 Q 1.872 0.132 1.74 0.126 Q 1.608 0.12 1.524 0.12 Z M 2.7 -5.388 L 2.7 -5.388 Q 2.232 -5.388 1.95 -5.028 Q 1.668 -4.668 1.668 -3.912 Q 1.668 -3.144 1.968 -2.718 Q 2.268 -2.292 2.856 -2.292 Q 3.312 -2.292 3.606 -2.604 Q 3.9 -2.916 3.9 -3.768 Q 3.9 -4.5 3.588 -4.944 Q 3.276 -5.388 2.7 -5.388 Z " /></symbol><use href="#STIXTwoMathRegular_261" x="517.142" y="-126.096" width="22.656" height="204.864" fill="white" /><use href="#STIXTwoMathRegular_1657" x="541.814" y="-78.187" width="27.854" height="143.405" fill="white" /><symbol id="STIXTwoMathRegular_4277" viewBox="0 -31.524 6.444 51.216"><path d="M 6.444 -1.896 L 6.444 -1.896 L 5.136 -1.896 L 5.136 0 L 3.948 0 L 3.948 -1.896 L 0.42 -1.896 L 0.42 -2.808 L 4.272 -8.04 L 5.136 -8.04 L 5.136 -2.88 L 6.444 -2.88 Z M 3.948 -2.88 L 3.948 -2.88 L 3.948 -6.588 L 3.876 -6.588 L 1.236 -2.952 L 1.236 -2.88 Z " /></symbol><use href="#STIXTwoMathRegular_4277" x="568.492" y="-78.187" width="18.043" height="143.405" fill="white" /><rect x="568.492" y="-20.899" width="18.95" height="2.285" fill="white" /><symbol id="STIXTwoMathRegular_1064" viewBox="0 -31.524 3.924 51.216"><path d="M 0.54 -3.24 L 0.54 -3.24 Q 0.54 -5.244 1.41 -6.66 Q 2.28 -8.076 3.732 -8.832 L 3.924 -8.52 Q 2.616 -7.632 2.07 -6.354 Q 1.524 -5.076 1.524 -3.24 Q 1.524 -1.404 2.07 -0.126 Q 2.616 1.152 3.924 2.04 L 3.732 2.352 Q 2.28 1.596 1.41 0.18 Q 0.54 -1.236 0.54 -3.24 Z " /></symbol><use href="#STIXTwoMathRegular_1064" x="587.442" y="-126.096" width="15.696" height="204.864" fill="white" /><use href="#STIXTwoMathRegular_1141" x="604.578" y="-126.096" width="23.088" height="204.864" fill="white" /><use href="#STIXTwoMathRegular_1657" x="628.338" y="-126.096" width="39.792" height="204.864" fill="white" /><use href="#STIXTwoMathRegular_1141" x="666.45" y="-126.096" width="23.088" height="204.864" fill="white" /><rect x="666.45" y="-44.256" width="23.76" height="3.264" fill="white" /><symbol id="STIXTwoMathRegular_1065" viewBox="0 -31.524 3.744 51.216"><path d="M 3.744 -3.24 L 3.744 -3.24 Q 3.744 -1.236 2.874 0.18 Q 2.004 1.596 0.552 2.352 L 0.36 2.04 Q 1.68 1.152 2.22 -0.126 Q 2.76 -1.404 2.76 -3.24 Q 2.76 -5.076 2.22 -6.354 Q 1.68 -7.632 0.36 -8.52 L 0.552 -8.832 Q 2.004 -8.076 2.874 -6.66 Q 3.744 -5.244 3.744 -3.24 Z " /></symbol><use href="#STIXTwoMathRegular_1065" x="690.21" y="-126.096" width="14.976" height="204.864" fill="white" /></svg>