<?xml version="1.0" encoding="utf-8" standalone="no"?>
<!DOCTYPE svg PUBLIC "-//W3C//DTD SVG 1.1//EN"
  "http://www.w3.org/Graphics/SVG/1.1/DTD/svg11.dtd">
<svg xmlns:xlink="http://www.w3.org/1999/xlink" width="705.12pt" height="88.8pt" viewBox="0 0 705.12 88.8" xmlns="http://www.w3.org/2000/svg" version="1.1">
 <metadata>
  <rdf:RDF xmlns:dc="http://purl.org/dc/elements/1.1/" xmlns:cc="http://creativecommons.org/ns#" xmlns:rdf="http://www.w3.org/1999/02/22-rdf-syntax-ns#">
   <cc:Work>
    <dc:type rdf:resource="http://purl.org/dc/dcmitype/StillImage"/>
    <dc:date>2026-03-01T11:54:43.495952</dc:date>
    <dc:format>image/svg+xml</dc:format>
    <dc:creator>
     <cc:Agent>
      <dc:title>Matplotlib v3.10.8, https://matplotlib.org/</dc:title>
     </cc:Agent>
    </dc:creator>
   </cc:Work>
  </rdf:RDF>
 </metadata>
 <defs>
  <style type="text/css">*{stroke-linejoin: round; stroke-linecap: butt}</style>
 </defs>
 <g id="figure_1">
  <g id="patch_1">
   <path d="M 0 88.8 
L 705.12 88.8 
L 705.12 0 
L 0 0 
L 0 88.8 
z
" style="fill: none"/>
  </g>
  <g id="axes_1">
   <g id="text_1">
    <!-- $3 = 4-\frac{4}{4} = \frac{4!}{4\sqrt{4}} = \log_{\sqrt{4}}(4\sqrt{4})$ -->
    <g style="fill: #ffffff" transform="translate(0 57.12) scale(0.48 -0.48)">
     <defs>
      <path id="DejaVuSerif-33" d="M 622 4469 
Q 988 4606 1323 4678 
Q 1659 4750 1953 4750 
Q 2638 4750 3022 4454 
Q 3406 4159 3406 3634 
Q 3406 3213 3140 2930 
Q 2875 2647 2388 2547 
Q 2963 2466 3280 2130 
Q 3597 1794 3597 1259 
Q 3597 606 3158 257 
Q 2719 -91 1894 -91 
Q 1528 -91 1179 -12 
Q 831 66 488 225 
L 488 1131 
L 838 1131 
Q 869 681 1141 450 
Q 1413 219 1906 219 
Q 2384 219 2661 495 
Q 2938 772 2938 1253 
Q 2938 1803 2653 2086 
Q 2369 2369 1819 2369 
L 1522 2369 
L 1522 2688 
L 1678 2688 
Q 2225 2688 2498 2914 
Q 2772 3141 2772 3597 
Q 2772 4006 2547 4223 
Q 2322 4441 1900 4441 
Q 1478 4441 1245 4241 
Q 1013 4041 972 3647 
L 622 3647 
L 622 4469 
z
" transform="scale(0.015625)"/>
      <path id="DejaVuSerif-3d" d="M 678 2894 
L 4684 2894 
L 4684 2394 
L 678 2394 
L 678 2894 
z
M 678 1619 
L 4684 1619 
L 4684 1119 
L 678 1119 
L 678 1619 
z
" transform="scale(0.015625)"/>
      <path id="DejaVuSerif-34" d="M 2234 1581 
L 2234 4063 
L 641 1581 
L 2234 1581 
z
M 3609 0 
L 1484 0 
L 1484 331 
L 2234 331 
L 2234 1247 
L 197 1247 
L 197 1588 
L 2241 4750 
L 2859 4750 
L 2859 1581 
L 3750 1581 
L 3750 1247 
L 2859 1247 
L 2859 331 
L 3609 331 
L 3609 0 
z
" transform="scale(0.015625)"/>
      <path id="DejaVuSerif-2212" d="M 678 2259 
L 4684 2259 
L 4684 1753 
L 678 1753 
L 678 2259 
z
" transform="scale(0.015625)"/>
      <path id="DejaVuSerif-21" d="M 872 325 
Q 872 500 990 622 
Q 1109 744 1288 744 
Q 1459 744 1581 622 
Q 1703 500 1703 325 
Q 1703 153 1581 31 
Q 1459 -91 1288 -91 
Q 1109 -91 990 29 
Q 872 150 872 325 
z
M 884 4666 
L 1691 4666 
L 1478 2100 
L 1478 1313 
L 1094 1313 
L 1094 2100 
L 884 4666 
z
" transform="scale(0.015625)"/>
      <path id="Cmex10-70" d="M 2713 -7425 
L 1269 -4063 
L 819 -4409 
L 703 -4294 
L 1619 -3584 
L 2969 -6725 
L 6291 197 
Q 6322 256 6400 256 
Q 6453 256 6490 218 
Q 6528 181 6528 128 
Q 6528 97 6522 84 
L 2950 -7366 
Q 2925 -7425 2853 -7425 
L 2713 -7425 
z
" transform="scale(0.015625)"/>
      <path id="DejaVuSerif-6c" d="M 1313 331 
L 1856 331 
L 1856 0 
L 184 0 
L 184 331 
L 738 331 
L 738 4531 
L 184 4531 
L 184 4863 
L 1313 4863 
L 1313 331 
z
" transform="scale(0.015625)"/>
      <path id="DejaVuSerif-6f" d="M 1925 219 
Q 2388 219 2623 584 
Q 2859 950 2859 1663 
Q 2859 2375 2623 2739 
Q 2388 3103 1925 3103 
Q 1463 3103 1227 2739 
Q 991 2375 991 1663 
Q 991 950 1228 584 
Q 1466 219 1925 219 
z
M 1925 -91 
Q 1200 -91 759 389 
Q 319 869 319 1663 
Q 319 2456 758 2934 
Q 1197 3413 1925 3413 
Q 2653 3413 3092 2934 
Q 3531 2456 3531 1663 
Q 3531 869 3092 389 
Q 2653 -91 1925 -91 
z
" transform="scale(0.015625)"/>
      <path id="DejaVuSerif-67" d="M 3359 2988 
L 3359 72 
Q 3359 -644 2965 -1033 
Q 2572 -1422 1844 -1422 
Q 1516 -1422 1216 -1362 
Q 916 -1303 641 -1184 
L 641 -488 
L 941 -488 
Q 997 -813 1206 -963 
Q 1416 -1113 1806 -1113 
Q 2313 -1113 2548 -827 
Q 2784 -541 2784 72 
L 2784 519 
Q 2616 206 2355 57 
Q 2094 -91 1709 -91 
Q 1097 -91 708 395 
Q 319 881 319 1663 
Q 319 2444 706 2928 
Q 1094 3413 1709 3413 
Q 2094 3413 2355 3264 
Q 2616 3116 2784 2803 
L 2784 3322 
L 3909 3322 
L 3909 2988 
L 3359 2988 
z
M 2784 1825 
Q 2784 2422 2554 2737 
Q 2325 3053 1888 3053 
Q 1444 3053 1217 2703 
Q 991 2353 991 1663 
Q 991 975 1217 622 
Q 1444 269 1888 269 
Q 2325 269 2554 583 
Q 2784 897 2784 1497 
L 2784 1825 
z
" transform="scale(0.015625)"/>
      <path id="DejaVuSerif-28" d="M 2041 -997 
Q 1281 -656 893 83 
Q 506 822 506 1931 
Q 506 3044 893 3783 
Q 1281 4522 2041 4863 
L 2041 4556 
Q 1559 4225 1350 3623 
Q 1141 3022 1141 1931 
Q 1141 844 1350 242 
Q 1559 -359 2041 -691 
L 2041 -997 
z
" transform="scale(0.015625)"/>
      <path id="DejaVuSerif-29" d="M 453 -997 
L 453 -691 
Q 934 -359 1145 242 
Q 1356 844 1356 1931 
Q 1356 3022 1145 3623 
Q 934 4225 453 4556 
L 453 4863 
Q 1216 4522 1603 3783 
Q 1991 3044 1991 1931 
Q 1991 822 1603 83 
Q 1216 -656 453 -997 
z
" transform="scale(0.015625)"/>
     </defs>
     <use xlink:href="#DejaVuSerif-33" transform="translate(0 0.53125)"/>
     <use xlink:href="#DejaVuSerif-3d" transform="translate(82.587891 0.53125)"/>
     <use xlink:href="#DejaVuSerif-34" transform="translate(185.341797 0.53125)"/>
     <use xlink:href="#DejaVuSerif-2212" transform="translate(267.929688 0.53125)"/>
     <use xlink:href="#DejaVuSerif-34" transform="translate(370.683594 44.382812) scale(0.7)"/>
     <use xlink:href="#DejaVuSerif-34" transform="translate(370.683594 -38.820312) scale(0.7)"/>
     <use xlink:href="#DejaVuSerif-3d" transform="translate(446.68457 0.53125)"/>
     <use xlink:href="#DejaVuSerif-34" transform="translate(590.438477 45.378125) scale(0.7)"/>
     <use xlink:href="#DejaVuSerif-21" transform="translate(634.974609 45.378125) scale(0.7)"/>
     <use xlink:href="#DejaVuSerif-34" transform="translate(549.438477 -64.895312) scale(0.7)"/>
     <use xlink:href="#Cmex10-70" transform="translate(593.974609 6.464063) scale(0.615154)"/>
     <use xlink:href="#DejaVuSerif-34" transform="translate(664.237109 -65.195312) scale(0.7)"/>
     <use xlink:href="#DejaVuSerif-3d" transform="translate(748.988086 0.53125)"/>
     <use xlink:href="#DejaVuSerif-6c" transform="translate(851.741992 0.53125)"/>
     <use xlink:href="#DejaVuSerif-6f" transform="translate(883.724414 0.53125)"/>
     <use xlink:href="#DejaVuSerif-67" transform="translate(943.929492 0.53125)"/>
     <use xlink:href="#Cmex10-70" transform="translate(1008.851523 56.31875) scale(0.615154)"/>
     <use xlink:href="#DejaVuSerif-34" transform="translate(1079.114023 -15.340625) scale(0.7)"/>
     <use xlink:href="#DejaVuSerif-28" transform="translate(1150.799821 0.53125)"/>
     <use xlink:href="#DejaVuSerif-34" transform="translate(1189.813493 0.53125)"/>
     <use xlink:href="#Cmex10-70" transform="translate(1253.43654 102.484375) scale(0.878792)"/>
     <use xlink:href="#DejaVuSerif-34" transform="translate(1353.81154 0.53125)"/>
     <use xlink:href="#DejaVuSerif-29" transform="translate(1429.934587 0.53125)"/>
     <path d="M 370.683594 19.382812 
L 370.683594 25.632812 
L 415.219727 25.632812 
L 415.219727 19.382812 
L 370.683594 19.382812 
z
"/>
     <path d="M 549.438477 19.382813 
L 549.438477 25.632813 
L 717.523242 25.632813 
L 717.523242 19.382813 
L 549.438477 19.382813 
z
"/>
     <path d="M 655.487109 4.382813 
L 655.487109 8.757813 
L 717.523242 8.757813 
L 717.523242 4.382813 
L 655.487109 4.382813 
z
"/>
     <path d="M 1070.364023 54.2375 
L 1070.364023 58.6125 
L 1132.400156 58.6125 
L 1132.400156 54.2375 
L 1070.364023 54.2375 
z
"/>
     <path d="M 1341.31154 99.5 
L 1341.31154 105.75 
L 1429.934587 105.75 
L 1429.934587 99.5 
L 1341.31154 99.5 
z
"/>
    </g>
   </g>
  </g>
 </g>
</svg>
