<?xml version="1.0" encoding="utf-8" standalone="no"?>
<!DOCTYPE svg PUBLIC "-//W3C//DTD SVG 1.1//EN"
  "http://www.w3.org/Graphics/SVG/1.1/DTD/svg11.dtd">
<svg xmlns:xlink="http://www.w3.org/1999/xlink" width="446.4pt" height="81.6pt" viewBox="0 0 446.4 81.6" xmlns="http://www.w3.org/2000/svg" version="1.1">
 <metadata>
  <rdf:RDF xmlns:dc="http://purl.org/dc/elements/1.1/" xmlns:cc="http://creativecommons.org/ns#" xmlns:rdf="http://www.w3.org/1999/02/22-rdf-syntax-ns#">
   <cc:Work>
    <dc:type rdf:resource="http://purl.org/dc/dcmitype/StillImage"/>
    <dc:date>2026-03-01T11:54:44.566153</dc:date>
    <dc:format>image/svg+xml</dc:format>
    <dc:creator>
     <cc:Agent>
      <dc:title>Matplotlib v3.10.8, https://matplotlib.org/</dc:title>
     </cc:Agent>
    </dc:creator>
   </cc:Work>
  </rdf:RDF>
 </metadata>
 <defs>
  <style type="text/css">*{stroke-linejoin: round; stroke-linecap: butt}</style>
 </defs>
 <g id="figure_1">
  <g id="patch_1">
   <path d="M 0 81.6 
L 446.4 81.6 
L 446.4 0 
L 0 0 
L 0 81.6 
z
" style="fill: none"/>
  </g>
  <g id="axes_1">
   <g id="text_1">
    <!-- $30 = \frac{4!}{.4\sqrt{4}} = 4!+\frac{4!}{4}$ -->
    <g style="fill: #ffffff" transform="translate(0 49.44) scale(0.48 -0.48)">
     <defs>
      <path id="DejaVuSerif-33" d="M 622 4469 
Q 988 4606 1323 4678 
Q 1659 4750 1953 4750 
Q 2638 4750 3022 4454 
Q 3406 4159 3406 3634 
Q 3406 3213 3140 2930 
Q 2875 2647 2388 2547 
Q 2963 2466 3280 2130 
Q 3597 1794 3597 1259 
Q 3597 606 3158 257 
Q 2719 -91 1894 -91 
Q 1528 -91 1179 -12 
Q 831 66 488 225 
L 488 1131 
L 838 1131 
Q 869 681 1141 450 
Q 1413 219 1906 219 
Q 2384 219 2661 495 
Q 2938 772 2938 1253 
Q 2938 1803 2653 2086 
Q 2369 2369 1819 2369 
L 1522 2369 
L 1522 2688 
L 1678 2688 
Q 2225 2688 2498 2914 
Q 2772 3141 2772 3597 
Q 2772 4006 2547 4223 
Q 2322 4441 1900 4441 
Q 1478 4441 1245 4241 
Q 1013 4041 972 3647 
L 622 3647 
L 622 4469 
z
" transform="scale(0.015625)"/>
      <path id="DejaVuSerif-30" d="M 2034 219 
Q 2513 219 2750 744 
Q 2988 1269 2988 2328 
Q 2988 3391 2750 3916 
Q 2513 4441 2034 4441 
Q 1556 4441 1318 3916 
Q 1081 3391 1081 2328 
Q 1081 1269 1318 744 
Q 1556 219 2034 219 
z
M 2034 -91 
Q 1275 -91 848 546 
Q 422 1184 422 2328 
Q 422 3475 848 4112 
Q 1275 4750 2034 4750 
Q 2797 4750 3222 4112 
Q 3647 3475 3647 2328 
Q 3647 1184 3222 546 
Q 2797 -91 2034 -91 
z
" transform="scale(0.015625)"/>
      <path id="DejaVuSerif-3d" d="M 678 2894 
L 4684 2894 
L 4684 2394 
L 678 2394 
L 678 2894 
z
M 678 1619 
L 4684 1619 
L 4684 1119 
L 678 1119 
L 678 1619 
z
" transform="scale(0.015625)"/>
      <path id="DejaVuSerif-34" d="M 2234 1581 
L 2234 4063 
L 641 1581 
L 2234 1581 
z
M 3609 0 
L 1484 0 
L 1484 331 
L 2234 331 
L 2234 1247 
L 197 1247 
L 197 1588 
L 2241 4750 
L 2859 4750 
L 2859 1581 
L 3750 1581 
L 3750 1247 
L 2859 1247 
L 2859 331 
L 3609 331 
L 3609 0 
z
" transform="scale(0.015625)"/>
      <path id="DejaVuSerif-21" d="M 872 325 
Q 872 500 990 622 
Q 1109 744 1288 744 
Q 1459 744 1581 622 
Q 1703 500 1703 325 
Q 1703 153 1581 31 
Q 1459 -91 1288 -91 
Q 1109 -91 990 29 
Q 872 150 872 325 
z
M 884 4666 
L 1691 4666 
L 1478 2100 
L 1478 1313 
L 1094 1313 
L 1094 2100 
L 884 4666 
z
" transform="scale(0.015625)"/>
      <path id="DejaVuSerif-2e" d="M 603 325 
Q 603 500 722 622 
Q 841 744 1019 744 
Q 1191 744 1312 622 
Q 1434 500 1434 325 
Q 1434 153 1312 31 
Q 1191 -91 1019 -91 
Q 841 -91 722 29 
Q 603 150 603 325 
z
" transform="scale(0.015625)"/>
      <path id="Cmex10-70" d="M 2713 -7425 
L 1269 -4063 
L 819 -4409 
L 703 -4294 
L 1619 -3584 
L 2969 -6725 
L 6291 197 
Q 6322 256 6400 256 
Q 6453 256 6490 218 
Q 6528 181 6528 128 
Q 6528 97 6522 84 
L 2950 -7366 
Q 2925 -7425 2853 -7425 
L 2713 -7425 
z
" transform="scale(0.015625)"/>
      <path id="DejaVuSerif-2b" d="M 2931 4013 
L 2931 2259 
L 4684 2259 
L 4684 1753 
L 2931 1753 
L 2931 0 
L 2431 0 
L 2431 1753 
L 678 1753 
L 678 2259 
L 2431 2259 
L 2431 4013 
L 2931 4013 
z
" transform="scale(0.015625)"/>
     </defs>
     <use xlink:href="#DejaVuSerif-33" transform="translate(0 0.2)"/>
     <use xlink:href="#DejaVuSerif-30" transform="translate(63.623047 0.2)"/>
     <use xlink:href="#DejaVuSerif-3d" transform="translate(146.210938 0.2)"/>
     <use xlink:href="#DejaVuSerif-34" transform="translate(307.964844 45.046875) scale(0.7)"/>
     <use xlink:href="#DejaVuSerif-21" transform="translate(352.500977 45.046875) scale(0.7)"/>
     <use xlink:href="#DejaVuSerif-2e" transform="translate(248.964844 -65.226562) scale(0.7)"/>
     <use xlink:href="#DejaVuSerif-34" transform="translate(284.491211 -65.226562) scale(0.7)"/>
     <use xlink:href="#Cmex10-70" transform="translate(329.027344 6.132812) scale(0.615154)"/>
     <use xlink:href="#DejaVuSerif-34" transform="translate(399.289844 -65.526563) scale(0.7)"/>
     <use xlink:href="#DejaVuSerif-3d" transform="translate(484.04082 0.2)"/>
     <use xlink:href="#DejaVuSerif-34" transform="translate(586.794727 0.2)"/>
     <use xlink:href="#DejaVuSerif-21" transform="translate(650.417773 0.2)"/>
     <use xlink:href="#DejaVuSerif-2b" transform="translate(728.533008 0.2)"/>
     <use xlink:href="#DejaVuSerif-34" transform="translate(831.286914 45.046875) scale(0.7)"/>
     <use xlink:href="#DejaVuSerif-21" transform="translate(875.823047 45.046875) scale(0.7)"/>
     <use xlink:href="#DejaVuSerif-34" transform="translate(852.286914 -39.151563) scale(0.7)"/>
     <path d="M 248.964844 19.051563 
L 248.964844 25.301563 
L 452.575977 25.301563 
L 452.575977 19.051563 
L 248.964844 19.051563 
z
"/>
     <path d="M 390.539844 4.051563 
L 390.539844 8.426563 
L 452.575977 8.426563 
L 452.575977 4.051563 
L 390.539844 4.051563 
z
"/>
     <path d="M 831.286914 19.051563 
L 831.286914 25.301563 
L 917.22832 25.301563 
L 917.22832 19.051563 
L 831.286914 19.051563 
z
"/>
    </g>
   </g>
  </g>
 </g>
</svg>
