<svg xmlns="http://www.w3.org/2000/svg" width="542.566" height="118.256" viewBox="1.832 -63.832 542.566 118.256"><symbol id="STIXTwoMathRegular_1140" viewBox="0 -31.524 5.328 51.216"><path d="M 1.032 -5.976 L 1.032 -5.976 L 0.756 -6.132 Q 1.44 -7.728 2.928 -7.728 Q 3.852 -7.728 4.356 -7.266 Q 4.86 -6.804 4.86 -6.12 Q 4.86 -5.496 4.494 -5.112 Q 4.128 -4.728 3.564 -4.368 L 3.564 -4.332 Q 4.044 -4.188 4.446 -3.918 Q 4.848 -3.648 5.088 -3.258 Q 5.328 -2.868 5.328 -2.328 Q 5.328 -1.512 4.872 -0.954 Q 4.416 -0.396 3.672 -0.12 Q 2.928 0.156 2.052 0.156 Q 1.512 0.156 1.224 0.054 Q 0.936 -0.048 0.822 -0.198 Q 0.708 -0.348 0.708 -0.504 Q 0.708 -0.696 0.828 -0.864 Q 0.948 -1.032 1.176 -1.032 Q 1.32 -1.032 1.446 -0.978 Q 1.572 -0.924 1.884 -0.756 Q 2.268 -0.564 2.454 -0.504 Q 2.64 -0.444 2.856 -0.444 Q 3.24 -0.444 3.576 -0.582 Q 3.912 -0.72 4.128 -1.05 Q 4.344 -1.38 4.344 -1.968 Q 4.344 -2.508 4.044 -2.904 Q 3.744 -3.3 3.246 -3.522 Q 2.748 -3.744 2.172 -3.744 L 1.932 -3.744 L 1.932 -4.2 L 2.16 -4.2 Q 2.568 -4.2 2.952 -4.404 Q 3.336 -4.608 3.582 -4.98 Q 3.828 -5.352 3.828 -5.832 Q 3.828 -6.36 3.498 -6.654 Q 3.168 -6.948 2.604 -6.948 Q 2.064 -6.948 1.704 -6.702 Q 1.344 -6.456 1.032 -5.976 Z " /></symbol><use href="#STIXTwoMathRegular_1140" x="0" y="-126.096" width="21.312" height="204.864" fill="white" /><symbol id="STIXTwoMathRegular_1141" viewBox="0 -31.524 5.772 51.216"><path d="M 5.772 -1.896 L 5.772 -1.896 L 4.548 -1.896 L 4.548 0 L 3.48 0 L 3.48 -1.896 L 0.156 -1.896 L 0.156 -2.652 L 3.816 -7.74 L 4.548 -7.74 L 4.548 -2.724 L 5.772 -2.724 Z M 3.48 -2.724 L 3.48 -2.724 L 3.48 -6.432 L 3.432 -6.432 L 0.816 -2.772 L 0.816 -2.724 Z " /></symbol><use href="#STIXTwoMathRegular_1141" x="23.76" y="-126.096" width="23.088" height="204.864" fill="white" /><symbol id="STIXTwoMathRegular_1202" viewBox="0 -31.524 7.896 51.216"><path d="M 7.896 -3.924 L 7.896 -3.924 L 0.744 -3.924 L 0.744 -4.74 L 7.896 -4.74 Z M 7.896 -1.476 L 7.896 -1.476 L 0.744 -1.476 L 0.744 -2.28 L 7.896 -2.28 Z " /></symbol><use href="#STIXTwoMathRegular_1202" x="65.293" y="-126.096" width="31.584" height="204.864" fill="white" /><use href="#STIXTwoMathRegular_1141" x="128.603" y="-156.816" width="23.088" height="204.864" fill="white" /><use href="#STIXTwoMathRegular_1141" x="152.363" y="-156.816" width="23.088" height="204.864" fill="white" /><symbol id="STIXTwoMathRegular_1196" viewBox="0 -31.524 7.896 51.216"><path d="M 7.896 -2.7 L 7.896 -2.7 L 4.752 -2.7 L 4.752 0.48 L 3.888 0.48 L 3.888 -2.7 L 0.744 -2.7 L 0.744 -3.516 L 3.888 -3.516 L 3.888 -6.696 L 4.752 -6.696 L 4.752 -3.516 L 7.896 -3.516 Z " /></symbol><use href="#STIXTwoMathRegular_1196" x="190.341" y="-156.816" width="31.584" height="204.864" fill="white" /><use href="#STIXTwoMathRegular_1141" x="239.12" y="-156.816" width="23.088" height="204.864" fill="white" /><symbol id="STIXTwoMathRegular_1054" viewBox="0 -31.524 2.412 51.216"><path d="M 1.476 -2.04 L 1.476 -2.04 L 1.104 -6.456 Q 1.092 -6.708 1.074 -6.9 Q 1.056 -7.092 1.056 -7.236 Q 1.056 -7.572 1.188 -7.8 Q 1.32 -8.028 1.692 -8.028 Q 2.04 -8.028 2.184 -7.8 Q 2.328 -7.572 2.328 -7.212 Q 2.328 -6.876 2.292 -6.456 L 1.896 -2.04 Z M 2.412 -0.588 L 2.412 -0.588 Q 2.412 -0.312 2.226 -0.108 Q 2.04 0.096 1.692 0.096 Q 1.344 0.096 1.164 -0.102 Q 0.984 -0.3 0.984 -0.6 Q 0.984 -0.9 1.17 -1.116 Q 1.356 -1.332 1.692 -1.332 Q 2.04 -1.332 2.226 -1.11 Q 2.412 -0.888 2.412 -0.588 Z " /></symbol><use href="#STIXTwoMathRegular_1054" x="269.989" y="-156.816" width="9.648" height="204.864" fill="white" /><symbol id="STIXTwoMathRegular_1657" viewBox="0 -31.524 9.948 51.216"><path d="M 8.004 -11.064 L 8.004 -11.064 L 9.948 -11.064 L 9.948 -10.248 L 8.556 -10.248 L 4.956 3.18 L 4.452 3.18 L 1.656 -3.828 L 0.408 -3.348 L 0.216 -3.684 L 2.124 -5.004 L 2.364 -5.004 L 4.74 1.116 L 4.788 1.116 Z " /></symbol><use href="#STIXTwoMathRegular_1657" x="175.272" y="-85.392" width="39.792" height="204.864" fill="white" /><use href="#STIXTwoMathRegular_1141" x="213.384" y="-85.392" width="23.088" height="204.864" fill="white" /><rect x="213.384" y="-3.552" width="23.76" height="3.264" fill="white" /><rect x="128.291" y="-14.016" width="154.971" height="3.264" fill="white" /><use href="#STIXTwoMathRegular_1202" x="311.699" y="-126.096" width="31.584" height="204.864" fill="white" /><use href="#STIXTwoMathRegular_1141" x="364.032" y="-126.096" width="23.088" height="204.864" fill="white" /><use href="#STIXTwoMathRegular_1141" x="387.792" y="-126.096" width="23.088" height="204.864" fill="white" /><symbol id="STIXTwoMathRegular_1197" viewBox="0 -31.524 7.896 51.216"><path d="M 7.896 -2.7 L 7.896 -2.7 L 0.744 -2.7 L 0.744 -3.516 L 7.896 -3.516 Z " /></symbol><use href="#STIXTwoMathRegular_1197" x="425.771" y="-126.096" width="31.584" height="204.864" fill="white" /><use href="#STIXTwoMathRegular_1141" x="497.406" y="-156.816" width="23.088" height="204.864" fill="white" /><symbol id="STIXTwoMathRegular_6752" viewBox="0 -31.524 0 51.216" /><use href="#STIXTwoMathRegular_6752" x="485.214" y="-95.376" width="0" height="204.864" fill="white" /><symbol id="STIXTwoMathRegular_1052" viewBox="0 -31.524 2.196 51.216"><path d="M 2.196 -0.6 L 2.196 -0.6 Q 2.196 -0.324 2.004 -0.114 Q 1.812 0.096 1.452 0.096 Q 1.092 0.096 0.918 -0.108 Q 0.744 -0.312 0.744 -0.612 Q 0.744 -0.924 0.936 -1.146 Q 1.128 -1.368 1.464 -1.368 Q 1.812 -1.368 2.004 -1.14 Q 2.196 -0.912 2.196 -0.6 Z " /></symbol><use href="#STIXTwoMathRegular_1052" x="491.214" y="-95.376" width="8.784" height="204.864" fill="white" /><use href="#STIXTwoMathRegular_1141" x="502.974" y="-95.376" width="23.088" height="204.864" fill="white" /><use href="#STIXTwoMathRegular_6752" x="526.734" y="-95.376" width="0" height="204.864" fill="white" /><rect x="485.214" y="-14.016" width="47.52" height="3.264" fill="white" /></svg>