<?xml version="1.0" encoding="utf-8" standalone="no"?>
<!DOCTYPE svg PUBLIC "-//W3C//DTD SVG 1.1//EN"
  "http://www.w3.org/Graphics/SVG/1.1/DTD/svg11.dtd">
<svg xmlns:xlink="http://www.w3.org/1999/xlink" width="1770.331288pt" height="90.24pt" viewBox="0 0 1770.331288 90.24" xmlns="http://www.w3.org/2000/svg" version="1.1">
 <metadata>
  <rdf:RDF xmlns:dc="http://purl.org/dc/elements/1.1/" xmlns:cc="http://creativecommons.org/ns#" xmlns:rdf="http://www.w3.org/1999/02/22-rdf-syntax-ns#">
   <cc:Work>
    <dc:type rdf:resource="http://purl.org/dc/dcmitype/StillImage"/>
    <dc:date>2026-03-01T11:54:45.007140</dc:date>
    <dc:format>image/svg+xml</dc:format>
    <dc:creator>
     <cc:Agent>
      <dc:title>Matplotlib v3.10.8, https://matplotlib.org/</dc:title>
     </cc:Agent>
    </dc:creator>
   </cc:Work>
  </rdf:RDF>
 </metadata>
 <defs>
  <style type="text/css">*{stroke-linejoin: round; stroke-linecap: butt}</style>
 </defs>
 <g id="figure_1">
  <g id="patch_1">
   <path d="M 0 90.24 
L 1770.331288 90.24 
L 1770.331288 0 
L 0 0 
L 0 90.24 
z
" style="fill: none"/>
  </g>
  <g id="axes_1">
   <g id="text_1">
    <!-- $36 = \frac{4!+4}{4\sqrt{4}} = \frac{4!\times4!}{4\times4} = 4!\sqrt{4} - \frac{4!}{\sqrt{4}} = 4\times\frac{4!-.4}{.4}=44-4\sqrt{4} = 44 - 4\sqrt{4} = \frac{4!}{4}^{\sqrt{4}}$ -->
    <g style="fill: #ffffff" transform="translate(0 58.56) scale(0.48 -0.48)">
     <defs>
      <path id="DejaVuSerif-33" d="M 622 4469 
Q 988 4606 1323 4678 
Q 1659 4750 1953 4750 
Q 2638 4750 3022 4454 
Q 3406 4159 3406 3634 
Q 3406 3213 3140 2930 
Q 2875 2647 2388 2547 
Q 2963 2466 3280 2130 
Q 3597 1794 3597 1259 
Q 3597 606 3158 257 
Q 2719 -91 1894 -91 
Q 1528 -91 1179 -12 
Q 831 66 488 225 
L 488 1131 
L 838 1131 
Q 869 681 1141 450 
Q 1413 219 1906 219 
Q 2384 219 2661 495 
Q 2938 772 2938 1253 
Q 2938 1803 2653 2086 
Q 2369 2369 1819 2369 
L 1522 2369 
L 1522 2688 
L 1678 2688 
Q 2225 2688 2498 2914 
Q 2772 3141 2772 3597 
Q 2772 4006 2547 4223 
Q 2322 4441 1900 4441 
Q 1478 4441 1245 4241 
Q 1013 4041 972 3647 
L 622 3647 
L 622 4469 
z
" transform="scale(0.015625)"/>
      <path id="DejaVuSerif-36" d="M 2094 219 
Q 2534 219 2771 542 
Q 3009 866 3009 1472 
Q 3009 2078 2771 2401 
Q 2534 2725 2094 2725 
Q 1647 2725 1412 2412 
Q 1178 2100 1178 1509 
Q 1178 888 1415 553 
Q 1653 219 2094 219 
z
M 1075 2569 
Q 1288 2803 1556 2918 
Q 1825 3034 2163 3034 
Q 2859 3034 3264 2615 
Q 3669 2197 3669 1472 
Q 3669 763 3233 336 
Q 2797 -91 2069 -91 
Q 1278 -91 853 498 
Q 428 1088 428 2181 
Q 428 3406 931 4078 
Q 1434 4750 2350 4750 
Q 2597 4750 2869 4703 
Q 3141 4656 3425 4563 
L 3425 3794 
L 3072 3794 
Q 3034 4109 2831 4275 
Q 2628 4441 2284 4441 
Q 1678 4441 1381 3981 
Q 1084 3522 1075 2569 
z
" transform="scale(0.015625)"/>
      <path id="DejaVuSerif-3d" d="M 678 2894 
L 4684 2894 
L 4684 2394 
L 678 2394 
L 678 2894 
z
M 678 1619 
L 4684 1619 
L 4684 1119 
L 678 1119 
L 678 1619 
z
" transform="scale(0.015625)"/>
      <path id="DejaVuSerif-34" d="M 2234 1581 
L 2234 4063 
L 641 1581 
L 2234 1581 
z
M 3609 0 
L 1484 0 
L 1484 331 
L 2234 331 
L 2234 1247 
L 197 1247 
L 197 1588 
L 2241 4750 
L 2859 4750 
L 2859 1581 
L 3750 1581 
L 3750 1247 
L 2859 1247 
L 2859 331 
L 3609 331 
L 3609 0 
z
" transform="scale(0.015625)"/>
      <path id="DejaVuSerif-21" d="M 872 325 
Q 872 500 990 622 
Q 1109 744 1288 744 
Q 1459 744 1581 622 
Q 1703 500 1703 325 
Q 1703 153 1581 31 
Q 1459 -91 1288 -91 
Q 1109 -91 990 29 
Q 872 150 872 325 
z
M 884 4666 
L 1691 4666 
L 1478 2100 
L 1478 1313 
L 1094 1313 
L 1094 2100 
L 884 4666 
z
" transform="scale(0.015625)"/>
      <path id="DejaVuSerif-2b" d="M 2931 4013 
L 2931 2259 
L 4684 2259 
L 4684 1753 
L 2931 1753 
L 2931 0 
L 2431 0 
L 2431 1753 
L 678 1753 
L 678 2259 
L 2431 2259 
L 2431 4013 
L 2931 4013 
z
" transform="scale(0.015625)"/>
      <path id="Cmex10-70" d="M 2713 -7425 
L 1269 -4063 
L 819 -4409 
L 703 -4294 
L 1619 -3584 
L 2969 -6725 
L 6291 197 
Q 6322 256 6400 256 
Q 6453 256 6490 218 
Q 6528 181 6528 128 
Q 6528 97 6522 84 
L 2950 -7366 
Q 2925 -7425 2853 -7425 
L 2713 -7425 
z
" transform="scale(0.015625)"/>
      <path id="DejaVuSerif-d7" d="M 4481 3450 
L 3034 2003 
L 4481 563 
L 4122 213 
L 2681 1650 
L 1241 213 
L 884 563 
L 2322 2003 
L 884 3450 
L 1241 3803 
L 2681 2363 
L 4122 3803 
L 4481 3450 
z
" transform="scale(0.015625)"/>
      <path id="DejaVuSerif-2212" d="M 678 2259 
L 4684 2259 
L 4684 1753 
L 678 1753 
L 678 2259 
z
" transform="scale(0.015625)"/>
      <path id="DejaVuSerif-2e" d="M 603 325 
Q 603 500 722 622 
Q 841 744 1019 744 
Q 1191 744 1312 622 
Q 1434 500 1434 325 
Q 1434 153 1312 31 
Q 1191 -91 1019 -91 
Q 841 -91 722 29 
Q 603 150 603 325 
z
" transform="scale(0.015625)"/>
     </defs>
     <use xlink:href="#DejaVuSerif-33" transform="translate(0 0.6375)"/>
     <use xlink:href="#DejaVuSerif-36" transform="translate(63.623047 0.6375)"/>
     <use xlink:href="#DejaVuSerif-3d" transform="translate(146.210938 0.6375)"/>
     <use xlink:href="#DejaVuSerif-34" transform="translate(248.964844 45.484375) scale(0.7)"/>
     <use xlink:href="#DejaVuSerif-21" transform="translate(293.500977 45.484375) scale(0.7)"/>
     <use xlink:href="#DejaVuSerif-2b" transform="translate(348.181641 45.484375) scale(0.7)"/>
     <use xlink:href="#DejaVuSerif-34" transform="translate(420.109375 45.484375) scale(0.7)"/>
     <use xlink:href="#DejaVuSerif-34" transform="translate(272.964844 -64.789062) scale(0.7)"/>
     <use xlink:href="#Cmex10-70" transform="translate(317.500977 6.570313) scale(0.615154)"/>
     <use xlink:href="#DejaVuSerif-34" transform="translate(387.763477 -65.089062) scale(0.7)"/>
     <use xlink:href="#DejaVuSerif-3d" transform="translate(496.110352 0.6375)"/>
     <use xlink:href="#DejaVuSerif-34" transform="translate(598.864258 45.484375) scale(0.7)"/>
     <use xlink:href="#DejaVuSerif-21" transform="translate(643.400391 45.484375) scale(0.7)"/>
     <use xlink:href="#DejaVuSerif-d7" transform="translate(698.081055 45.484375) scale(0.7)"/>
     <use xlink:href="#DejaVuSerif-34" transform="translate(770.008789 45.484375) scale(0.7)"/>
     <use xlink:href="#DejaVuSerif-21" transform="translate(814.544922 45.484375) scale(0.7)"/>
     <use xlink:href="#DejaVuSerif-34" transform="translate(639.864258 -38.714062) scale(0.7)"/>
     <use xlink:href="#DejaVuSerif-d7" transform="translate(697.675781 -38.714062) scale(0.7)"/>
     <use xlink:href="#DejaVuSerif-34" transform="translate(769.603516 -38.714062) scale(0.7)"/>
     <use xlink:href="#DejaVuSerif-3d" transform="translate(887.415039 0.6375)"/>
     <use xlink:href="#DejaVuSerif-34" transform="translate(990.168945 0.6375)"/>
     <use xlink:href="#DejaVuSerif-21" transform="translate(1053.791992 0.6375)"/>
     <use xlink:href="#Cmex10-70" transform="translate(1112.942383 102.590625) scale(0.878792)"/>
     <use xlink:href="#DejaVuSerif-34" transform="translate(1213.317383 0.6375)"/>
     <use xlink:href="#DejaVuSerif-2212" transform="translate(1308.405273 0.6375)"/>
     <use xlink:href="#DejaVuSerif-34" transform="translate(1430.15918 45.484375) scale(0.7)"/>
     <use xlink:href="#DejaVuSerif-21" transform="translate(1474.695312 45.484375) scale(0.7)"/>
     <use xlink:href="#Cmex10-70" transform="translate(1411.15918 6.570313) scale(0.615154)"/>
     <use xlink:href="#DejaVuSerif-34" transform="translate(1481.42168 -65.089062) scale(0.7)"/>
     <use xlink:href="#DejaVuSerif-3d" transform="translate(1566.172656 0.6375)"/>
     <use xlink:href="#DejaVuSerif-34" transform="translate(1668.926563 0.6375)"/>
     <use xlink:href="#DejaVuSerif-d7" transform="translate(1751.514453 0.6375)"/>
     <use xlink:href="#DejaVuSerif-34" transform="translate(1854.268359 45.484375) scale(0.7)"/>
     <use xlink:href="#DejaVuSerif-21" transform="translate(1898.804492 45.484375) scale(0.7)"/>
     <use xlink:href="#DejaVuSerif-2212" transform="translate(1953.485156 45.484375) scale(0.7)"/>
     <use xlink:href="#DejaVuSerif-2e" transform="translate(2025.412891 45.484375) scale(0.7)"/>
     <use xlink:href="#DejaVuSerif-34" transform="translate(2060.939258 45.484375) scale(0.7)"/>
     <use xlink:href="#DejaVuSerif-2e" transform="translate(1940.268359 -38.714062) scale(0.7)"/>
     <use xlink:href="#DejaVuSerif-34" transform="translate(1975.794727 -38.714062) scale(0.7)"/>
     <use xlink:href="#DejaVuSerif-3d" transform="translate(2136.940234 0.6375)"/>
     <use xlink:href="#DejaVuSerif-34" transform="translate(2239.694141 0.6375)"/>
     <use xlink:href="#DejaVuSerif-34" transform="translate(2303.317187 0.6375)"/>
     <use xlink:href="#DejaVuSerif-2212" transform="translate(2385.905078 0.6375)"/>
     <use xlink:href="#DejaVuSerif-34" transform="translate(2488.658984 0.6375)"/>
     <use xlink:href="#Cmex10-70" transform="translate(2552.282031 102.590625) scale(0.878792)"/>
     <use xlink:href="#DejaVuSerif-34" transform="translate(2652.657031 0.6375)"/>
     <use xlink:href="#DejaVuSerif-3d" transform="translate(2747.744922 0.6375)"/>
     <use xlink:href="#DejaVuSerif-34" transform="translate(2850.498828 0.6375)"/>
     <use xlink:href="#DejaVuSerif-34" transform="translate(2914.121875 0.6375)"/>
     <use xlink:href="#DejaVuSerif-2212" transform="translate(2996.709766 0.6375)"/>
     <use xlink:href="#DejaVuSerif-34" transform="translate(3099.463672 0.6375)"/>
     <use xlink:href="#Cmex10-70" transform="translate(3163.086719 102.590625) scale(0.878792)"/>
     <use xlink:href="#DejaVuSerif-34" transform="translate(3263.461719 0.6375)"/>
     <use xlink:href="#DejaVuSerif-3d" transform="translate(3358.549609 0.6375)"/>
     <use xlink:href="#DejaVuSerif-34" transform="translate(3461.303516 45.484375) scale(0.7)"/>
     <use xlink:href="#DejaVuSerif-21" transform="translate(3505.839648 45.484375) scale(0.7)"/>
     <use xlink:href="#DejaVuSerif-34" transform="translate(3482.303516 -38.714062) scale(0.7)"/>
     <use xlink:href="#Cmex10-70" transform="translate(3560.653281 108.33125) scale(0.615154)"/>
     <use xlink:href="#DejaVuSerif-34" transform="translate(3630.915781 36.671875) scale(0.7)"/>
     <path d="M 248.964844 19.489063 
L 248.964844 25.739063 
L 464.645508 25.739063 
L 464.645508 19.489063 
L 248.964844 19.489063 
z
"/>
     <path d="M 379.013477 4.489063 
L 379.013477 8.864063 
L 441.049609 8.864063 
L 441.049609 4.489063 
L 379.013477 4.489063 
z
"/>
     <path d="M 598.864258 19.489063 
L 598.864258 25.739063 
L 855.950195 25.739063 
L 855.950195 19.489063 
L 598.864258 19.489063 
z
"/>
     <path d="M 1200.817383 99.60625 
L 1200.817383 105.85625 
L 1289.44043 105.85625 
L 1289.44043 99.60625 
L 1200.817383 99.60625 
z
"/>
     <path d="M 1411.15918 19.489063 
L 1411.15918 25.739063 
L 1534.707813 25.739063 
L 1534.707813 19.489063 
L 1411.15918 19.489063 
z
"/>
     <path d="M 1472.67168 4.489063 
L 1472.67168 8.864063 
L 1534.707813 8.864063 
L 1534.707813 4.489063 
L 1472.67168 4.489063 
z
"/>
     <path d="M 1854.268359 19.489063 
L 1854.268359 25.739063 
L 2105.475391 25.739063 
L 2105.475391 19.489063 
L 1854.268359 19.489063 
z
"/>
     <path d="M 2640.157031 99.60625 
L 2640.157031 105.85625 
L 2728.780078 105.85625 
L 2728.780078 99.60625 
L 2640.157031 99.60625 
z
"/>
     <path d="M 3250.961719 99.60625 
L 3250.961719 105.85625 
L 3339.584766 105.85625 
L 3339.584766 99.60625 
L 3250.961719 99.60625 
z
"/>
     <path d="M 3461.303516 19.489063 
L 3461.303516 25.739063 
L 3547.244922 25.739063 
L 3547.244922 19.489063 
L 3461.303516 19.489063 
z
"/>
     <path d="M 3622.165781 106.25 
L 3622.165781 110.625 
L 3684.201914 110.625 
L 3684.201914 106.25 
L 3622.165781 106.25 
z
"/>
    </g>
   </g>
  </g>
 </g>
</svg>
