<?xml version="1.0" encoding="utf-8" standalone="no"?>
<!DOCTYPE svg PUBLIC "-//W3C//DTD SVG 1.1//EN"
  "http://www.w3.org/Graphics/SVG/1.1/DTD/svg11.dtd">
<svg xmlns:xlink="http://www.w3.org/1999/xlink" width="942.24pt" height="75.816pt" viewBox="0 0 942.24 75.816" xmlns="http://www.w3.org/2000/svg" version="1.1">
 <metadata>
  <rdf:RDF xmlns:dc="http://purl.org/dc/elements/1.1/" xmlns:cc="http://creativecommons.org/ns#" xmlns:rdf="http://www.w3.org/1999/02/22-rdf-syntax-ns#">
   <cc:Work>
    <dc:type rdf:resource="http://purl.org/dc/dcmitype/StillImage"/>
    <dc:date>2026-03-01T11:54:45.139925</dc:date>
    <dc:format>image/svg+xml</dc:format>
    <dc:creator>
     <cc:Agent>
      <dc:title>Matplotlib v3.10.8, https://matplotlib.org/</dc:title>
     </cc:Agent>
    </dc:creator>
   </cc:Work>
  </rdf:RDF>
 </metadata>
 <defs>
  <style type="text/css">*{stroke-linejoin: round; stroke-linecap: butt}</style>
 </defs>
 <g id="figure_1">
  <g id="patch_1">
   <path d="M 0 75.816 
L 942.24 75.816 
L 942.24 0 
L 0 0 
L 0 75.816 
z
" style="fill: none"/>
  </g>
  <g id="axes_1">
   <g id="text_1">
    <!-- $38 = 44-4-\sqrt{4} = 4!\sqrt{4}-\frac{4}{.4} = 44-\frac{4!}{4}$ -->
    <g style="fill: #ffffff" transform="translate(0 56.136) scale(0.48 -0.48)">
     <defs>
      <path id="DejaVuSerif-33" d="M 622 4469 
Q 988 4606 1323 4678 
Q 1659 4750 1953 4750 
Q 2638 4750 3022 4454 
Q 3406 4159 3406 3634 
Q 3406 3213 3140 2930 
Q 2875 2647 2388 2547 
Q 2963 2466 3280 2130 
Q 3597 1794 3597 1259 
Q 3597 606 3158 257 
Q 2719 -91 1894 -91 
Q 1528 -91 1179 -12 
Q 831 66 488 225 
L 488 1131 
L 838 1131 
Q 869 681 1141 450 
Q 1413 219 1906 219 
Q 2384 219 2661 495 
Q 2938 772 2938 1253 
Q 2938 1803 2653 2086 
Q 2369 2369 1819 2369 
L 1522 2369 
L 1522 2688 
L 1678 2688 
Q 2225 2688 2498 2914 
Q 2772 3141 2772 3597 
Q 2772 4006 2547 4223 
Q 2322 4441 1900 4441 
Q 1478 4441 1245 4241 
Q 1013 4041 972 3647 
L 622 3647 
L 622 4469 
z
" transform="scale(0.015625)"/>
      <path id="DejaVuSerif-38" d="M 2981 1275 
Q 2981 1775 2732 2051 
Q 2484 2328 2034 2328 
Q 1584 2328 1336 2051 
Q 1088 1775 1088 1275 
Q 1088 772 1336 495 
Q 1584 219 2034 219 
Q 2484 219 2732 495 
Q 2981 772 2981 1275 
z
M 2853 3541 
Q 2853 3966 2637 4203 
Q 2422 4441 2034 4441 
Q 1650 4441 1433 4203 
Q 1216 3966 1216 3541 
Q 1216 3113 1433 2875 
Q 1650 2638 2034 2638 
Q 2422 2638 2637 2875 
Q 2853 3113 2853 3541 
z
M 2516 2484 
Q 3047 2413 3344 2092 
Q 3641 1772 3641 1275 
Q 3641 619 3225 264 
Q 2809 -91 2034 -91 
Q 1263 -91 845 264 
Q 428 619 428 1275 
Q 428 1772 725 2092 
Q 1022 2413 1556 2484 
Q 1084 2569 832 2842 
Q 581 3116 581 3541 
Q 581 4103 968 4426 
Q 1356 4750 2034 4750 
Q 2713 4750 3100 4426 
Q 3488 4103 3488 3541 
Q 3488 3116 3236 2842 
Q 2984 2569 2516 2484 
z
" transform="scale(0.015625)"/>
      <path id="DejaVuSerif-3d" d="M 678 2894 
L 4684 2894 
L 4684 2394 
L 678 2394 
L 678 2894 
z
M 678 1619 
L 4684 1619 
L 4684 1119 
L 678 1119 
L 678 1619 
z
" transform="scale(0.015625)"/>
      <path id="DejaVuSerif-34" d="M 2234 1581 
L 2234 4063 
L 641 1581 
L 2234 1581 
z
M 3609 0 
L 1484 0 
L 1484 331 
L 2234 331 
L 2234 1247 
L 197 1247 
L 197 1588 
L 2241 4750 
L 2859 4750 
L 2859 1581 
L 3750 1581 
L 3750 1247 
L 2859 1247 
L 2859 331 
L 3609 331 
L 3609 0 
z
" transform="scale(0.015625)"/>
      <path id="DejaVuSerif-2212" d="M 678 2259 
L 4684 2259 
L 4684 1753 
L 678 1753 
L 678 2259 
z
" transform="scale(0.015625)"/>
      <path id="Cmex10-70" d="M 2713 -7425 
L 1269 -4063 
L 819 -4409 
L 703 -4294 
L 1619 -3584 
L 2969 -6725 
L 6291 197 
Q 6322 256 6400 256 
Q 6453 256 6490 218 
Q 6528 181 6528 128 
Q 6528 97 6522 84 
L 2950 -7366 
Q 2925 -7425 2853 -7425 
L 2713 -7425 
z
" transform="scale(0.015625)"/>
      <path id="DejaVuSerif-21" d="M 872 325 
Q 872 500 990 622 
Q 1109 744 1288 744 
Q 1459 744 1581 622 
Q 1703 500 1703 325 
Q 1703 153 1581 31 
Q 1459 -91 1288 -91 
Q 1109 -91 990 29 
Q 872 150 872 325 
z
M 884 4666 
L 1691 4666 
L 1478 2100 
L 1478 1313 
L 1094 1313 
L 1094 2100 
L 884 4666 
z
" transform="scale(0.015625)"/>
      <path id="DejaVuSerif-2e" d="M 603 325 
Q 603 500 722 622 
Q 841 744 1019 744 
Q 1191 744 1312 622 
Q 1434 500 1434 325 
Q 1434 153 1312 31 
Q 1191 -91 1019 -91 
Q 841 -91 722 29 
Q 603 150 603 325 
z
" transform="scale(0.015625)"/>
     </defs>
     <use xlink:href="#DejaVuSerif-33" transform="translate(0 0.53125)"/>
     <use xlink:href="#DejaVuSerif-38" transform="translate(61.873047 0.53125)"/>
     <use xlink:href="#DejaVuSerif-3d" transform="translate(144.460938 0.53125)"/>
     <use xlink:href="#DejaVuSerif-34" transform="translate(247.214844 0.53125)"/>
     <use xlink:href="#DejaVuSerif-34" transform="translate(310.837891 0.53125)"/>
     <use xlink:href="#DejaVuSerif-2212" transform="translate(393.425781 0.53125)"/>
     <use xlink:href="#DejaVuSerif-34" transform="translate(496.179688 0.53125)"/>
     <use xlink:href="#DejaVuSerif-2212" transform="translate(578.767578 0.53125)"/>
     <use xlink:href="#Cmex10-70" transform="translate(681.521484 102.484375) scale(0.878792)"/>
     <use xlink:href="#DejaVuSerif-34" transform="translate(781.896484 0.53125)"/>
     <use xlink:href="#DejaVuSerif-3d" transform="translate(876.984375 0.53125)"/>
     <use xlink:href="#DejaVuSerif-34" transform="translate(979.738281 0.53125)"/>
     <use xlink:href="#DejaVuSerif-21" transform="translate(1043.361328 0.53125)"/>
     <use xlink:href="#Cmex10-70" transform="translate(1102.511719 102.484375) scale(0.878792)"/>
     <use xlink:href="#DejaVuSerif-34" transform="translate(1202.886719 0.53125)"/>
     <use xlink:href="#DejaVuSerif-2212" transform="translate(1297.974609 0.53125)"/>
     <use xlink:href="#DejaVuSerif-34" transform="translate(1418.728516 44.382812) scale(0.7)"/>
     <use xlink:href="#DejaVuSerif-2e" transform="translate(1400.728516 -38.820312) scale(0.7)"/>
     <use xlink:href="#DejaVuSerif-34" transform="translate(1436.254883 -38.820312) scale(0.7)"/>
     <use xlink:href="#DejaVuSerif-3d" transform="translate(1512.255859 0.53125)"/>
     <use xlink:href="#DejaVuSerif-34" transform="translate(1615.009766 0.53125)"/>
     <use xlink:href="#DejaVuSerif-34" transform="translate(1678.632812 0.53125)"/>
     <use xlink:href="#DejaVuSerif-2212" transform="translate(1761.220703 0.53125)"/>
     <use xlink:href="#DejaVuSerif-34" transform="translate(1863.974609 45.378125) scale(0.7)"/>
     <use xlink:href="#DejaVuSerif-21" transform="translate(1908.510742 45.378125) scale(0.7)"/>
     <use xlink:href="#DejaVuSerif-34" transform="translate(1884.974609 -38.820312) scale(0.7)"/>
     <path d="M 769.396484 99.5 
L 769.396484 105.75 
L 858.019531 105.75 
L 858.019531 99.5 
L 769.396484 99.5 
z
"/>
     <path d="M 1190.386719 99.5 
L 1190.386719 105.75 
L 1279.009766 105.75 
L 1279.009766 99.5 
L 1190.386719 99.5 
z
"/>
     <path d="M 1400.728516 19.382812 
L 1400.728516 25.632812 
L 1480.791016 25.632812 
L 1480.791016 19.382812 
L 1400.728516 19.382812 
z
"/>
     <path d="M 1863.974609 19.382813 
L 1863.974609 25.632813 
L 1949.916016 25.632813 
L 1949.916016 19.382813 
L 1863.974609 19.382813 
z
"/>
    </g>
   </g>
  </g>
 </g>
</svg>
