<?xml version="1.0" encoding="utf-8" standalone="no"?>
<!DOCTYPE svg PUBLIC "-//W3C//DTD SVG 1.1//EN"
  "http://www.w3.org/Graphics/SVG/1.1/DTD/svg11.dtd">
<svg xmlns:xlink="http://www.w3.org/1999/xlink" width="636.96pt" height="74.004pt" viewBox="0 0 636.96 74.004" xmlns="http://www.w3.org/2000/svg" version="1.1">
 <metadata>
  <rdf:RDF xmlns:dc="http://purl.org/dc/elements/1.1/" xmlns:cc="http://creativecommons.org/ns#" xmlns:rdf="http://www.w3.org/1999/02/22-rdf-syntax-ns#">
   <cc:Work>
    <dc:type rdf:resource="http://purl.org/dc/dcmitype/StillImage"/>
    <dc:date>2026-03-01T11:54:45.229357</dc:date>
    <dc:format>image/svg+xml</dc:format>
    <dc:creator>
     <cc:Agent>
      <dc:title>Matplotlib v3.10.8, https://matplotlib.org/</dc:title>
     </cc:Agent>
    </dc:creator>
   </cc:Work>
  </rdf:RDF>
 </metadata>
 <defs>
  <style type="text/css">*{stroke-linejoin: round; stroke-linecap: butt}</style>
 </defs>
 <g id="figure_1">
  <g id="patch_1">
   <path d="M 0 74.004 
L 636.96 74.004 
L 636.96 0 
L 0 0 
L 0 74.004 
z
" style="fill: none"/>
  </g>
  <g id="axes_1">
   <g id="text_1">
    <!-- $40 = 44-4 = \frac{4\times4}{.4} = \frac{4^{4}}{4}-4!$ -->
    <g style="fill: #ffffff" transform="translate(0 54.324) scale(0.48 -0.48)">
     <defs>
      <path id="DejaVuSerif-34" d="M 2234 1581 
L 2234 4063 
L 641 1581 
L 2234 1581 
z
M 3609 0 
L 1484 0 
L 1484 331 
L 2234 331 
L 2234 1247 
L 197 1247 
L 197 1588 
L 2241 4750 
L 2859 4750 
L 2859 1581 
L 3750 1581 
L 3750 1247 
L 2859 1247 
L 2859 331 
L 3609 331 
L 3609 0 
z
" transform="scale(0.015625)"/>
      <path id="DejaVuSerif-30" d="M 2034 219 
Q 2513 219 2750 744 
Q 2988 1269 2988 2328 
Q 2988 3391 2750 3916 
Q 2513 4441 2034 4441 
Q 1556 4441 1318 3916 
Q 1081 3391 1081 2328 
Q 1081 1269 1318 744 
Q 1556 219 2034 219 
z
M 2034 -91 
Q 1275 -91 848 546 
Q 422 1184 422 2328 
Q 422 3475 848 4112 
Q 1275 4750 2034 4750 
Q 2797 4750 3222 4112 
Q 3647 3475 3647 2328 
Q 3647 1184 3222 546 
Q 2797 -91 2034 -91 
z
" transform="scale(0.015625)"/>
      <path id="DejaVuSerif-3d" d="M 678 2894 
L 4684 2894 
L 4684 2394 
L 678 2394 
L 678 2894 
z
M 678 1619 
L 4684 1619 
L 4684 1119 
L 678 1119 
L 678 1619 
z
" transform="scale(0.015625)"/>
      <path id="DejaVuSerif-2212" d="M 678 2259 
L 4684 2259 
L 4684 1753 
L 678 1753 
L 678 2259 
z
" transform="scale(0.015625)"/>
      <path id="DejaVuSerif-d7" d="M 4481 3450 
L 3034 2003 
L 4481 563 
L 4122 213 
L 2681 1650 
L 1241 213 
L 884 563 
L 2322 2003 
L 884 3450 
L 1241 3803 
L 2681 2363 
L 4122 3803 
L 4481 3450 
z
" transform="scale(0.015625)"/>
      <path id="DejaVuSerif-2e" d="M 603 325 
Q 603 500 722 622 
Q 841 744 1019 744 
Q 1191 744 1312 622 
Q 1434 500 1434 325 
Q 1434 153 1312 31 
Q 1191 -91 1019 -91 
Q 841 -91 722 29 
Q 603 150 603 325 
z
" transform="scale(0.015625)"/>
      <path id="DejaVuSerif-21" d="M 872 325 
Q 872 500 990 622 
Q 1109 744 1288 744 
Q 1459 744 1581 622 
Q 1703 500 1703 325 
Q 1703 153 1581 31 
Q 1459 -91 1288 -91 
Q 1109 -91 990 29 
Q 872 150 872 325 
z
M 884 4666 
L 1691 4666 
L 1478 2100 
L 1478 1313 
L 1094 1313 
L 1094 2100 
L 884 4666 
z
" transform="scale(0.015625)"/>
     </defs>
     <use xlink:href="#DejaVuSerif-34" transform="translate(0 0.347188)"/>
     <use xlink:href="#DejaVuSerif-30" transform="translate(63.623047 0.347188)"/>
     <use xlink:href="#DejaVuSerif-3d" transform="translate(146.210938 0.347188)"/>
     <use xlink:href="#DejaVuSerif-34" transform="translate(248.964844 0.347188)"/>
     <use xlink:href="#DejaVuSerif-34" transform="translate(312.587891 0.347188)"/>
     <use xlink:href="#DejaVuSerif-2212" transform="translate(395.175781 0.347188)"/>
     <use xlink:href="#DejaVuSerif-34" transform="translate(497.929688 0.347188)"/>
     <use xlink:href="#DejaVuSerif-3d" transform="translate(580.517578 0.347188)"/>
     <use xlink:href="#DejaVuSerif-34" transform="translate(683.271484 44.19875) scale(0.7)"/>
     <use xlink:href="#DejaVuSerif-d7" transform="translate(741.083008 44.19875) scale(0.7)"/>
     <use xlink:href="#DejaVuSerif-34" transform="translate(813.010742 44.19875) scale(0.7)"/>
     <use xlink:href="#DejaVuSerif-2e" transform="translate(730.271484 -39.004375) scale(0.7)"/>
     <use xlink:href="#DejaVuSerif-34" transform="translate(765.797852 -39.004375) scale(0.7)"/>
     <use xlink:href="#DejaVuSerif-3d" transform="translate(889.011719 0.347188)"/>
     <use xlink:href="#DejaVuSerif-34" transform="translate(991.765625 44.19875) scale(0.7)"/>
     <use xlink:href="#DejaVuSerif-34" transform="translate(1036.937609 69.632812) scale(0.49)"/>
     <use xlink:href="#DejaVuSerif-34" transform="translate(1008.765625 -39.004375) scale(0.7)"/>
     <use xlink:href="#DejaVuSerif-2212" transform="translate(1101.394465 0.347188)"/>
     <use xlink:href="#DejaVuSerif-34" transform="translate(1204.148371 0.347188)"/>
     <use xlink:href="#DejaVuSerif-21" transform="translate(1267.771418 0.347188)"/>
     <path d="M 683.271484 19.19875 
L 683.271484 25.44875 
L 857.546875 25.44875 
L 857.546875 19.19875 
L 683.271484 19.19875 
z
"/>
     <path d="M 991.765625 19.19875 
L 991.765625 25.44875 
L 1069.929621 25.44875 
L 1069.929621 19.19875 
L 991.765625 19.19875 
z
"/>
    </g>
   </g>
  </g>
 </g>
</svg>
