<?xml version="1.0" encoding="utf-8" standalone="no"?>
<!DOCTYPE svg PUBLIC "-//W3C//DTD SVG 1.1//EN"
  "http://www.w3.org/Graphics/SVG/1.1/DTD/svg11.dtd">
<svg xmlns:xlink="http://www.w3.org/1999/xlink" width="671.027247pt" height="57.6pt" viewBox="0 0 671.027247 57.6" xmlns="http://www.w3.org/2000/svg" version="1.1">
 <metadata>
  <rdf:RDF xmlns:dc="http://purl.org/dc/elements/1.1/" xmlns:cc="http://creativecommons.org/ns#" xmlns:rdf="http://www.w3.org/1999/02/22-rdf-syntax-ns#">
   <cc:Work>
    <dc:type rdf:resource="http://purl.org/dc/dcmitype/StillImage"/>
    <dc:date>2026-03-01T11:54:45.467638</dc:date>
    <dc:format>image/svg+xml</dc:format>
    <dc:creator>
     <cc:Agent>
      <dc:title>Matplotlib v3.10.8, https://matplotlib.org/</dc:title>
     </cc:Agent>
    </dc:creator>
   </cc:Work>
  </rdf:RDF>
 </metadata>
 <defs>
  <style type="text/css">*{stroke-linejoin: round; stroke-linecap: butt}</style>
 </defs>
 <g id="figure_1">
  <g id="patch_1">
   <path d="M 0 57.6 
L 671.027247 57.6 
L 671.027247 0 
L 0 0 
L 0 57.6 
z
" style="fill: none"/>
  </g>
  <g id="axes_1">
   <g id="text_1">
    <!-- $46 = 4!\sqrt{4}-\sqrt{4} = 44+\sqrt{4}$ -->
    <g style="fill: #ffffff" transform="translate(0 47.6175) scale(0.48 -0.48)">
     <defs>
      <path id="DejaVuSerif-34" d="M 2234 1581 
L 2234 4063 
L 641 1581 
L 2234 1581 
z
M 3609 0 
L 1484 0 
L 1484 331 
L 2234 331 
L 2234 1247 
L 197 1247 
L 197 1588 
L 2241 4750 
L 2859 4750 
L 2859 1581 
L 3750 1581 
L 3750 1247 
L 2859 1247 
L 2859 331 
L 3609 331 
L 3609 0 
z
" transform="scale(0.015625)"/>
      <path id="DejaVuSerif-36" d="M 2094 219 
Q 2534 219 2771 542 
Q 3009 866 3009 1472 
Q 3009 2078 2771 2401 
Q 2534 2725 2094 2725 
Q 1647 2725 1412 2412 
Q 1178 2100 1178 1509 
Q 1178 888 1415 553 
Q 1653 219 2094 219 
z
M 1075 2569 
Q 1288 2803 1556 2918 
Q 1825 3034 2163 3034 
Q 2859 3034 3264 2615 
Q 3669 2197 3669 1472 
Q 3669 763 3233 336 
Q 2797 -91 2069 -91 
Q 1278 -91 853 498 
Q 428 1088 428 2181 
Q 428 3406 931 4078 
Q 1434 4750 2350 4750 
Q 2597 4750 2869 4703 
Q 3141 4656 3425 4563 
L 3425 3794 
L 3072 3794 
Q 3034 4109 2831 4275 
Q 2628 4441 2284 4441 
Q 1678 4441 1381 3981 
Q 1084 3522 1075 2569 
z
" transform="scale(0.015625)"/>
      <path id="DejaVuSerif-3d" d="M 678 2894 
L 4684 2894 
L 4684 2394 
L 678 2394 
L 678 2894 
z
M 678 1619 
L 4684 1619 
L 4684 1119 
L 678 1119 
L 678 1619 
z
" transform="scale(0.015625)"/>
      <path id="DejaVuSerif-21" d="M 872 325 
Q 872 500 990 622 
Q 1109 744 1288 744 
Q 1459 744 1581 622 
Q 1703 500 1703 325 
Q 1703 153 1581 31 
Q 1459 -91 1288 -91 
Q 1109 -91 990 29 
Q 872 150 872 325 
z
M 884 4666 
L 1691 4666 
L 1478 2100 
L 1478 1313 
L 1094 1313 
L 1094 2100 
L 884 4666 
z
" transform="scale(0.015625)"/>
      <path id="Cmex10-70" d="M 2713 -7425 
L 1269 -4063 
L 819 -4409 
L 703 -4294 
L 1619 -3584 
L 2969 -6725 
L 6291 197 
Q 6322 256 6400 256 
Q 6453 256 6490 218 
Q 6528 181 6528 128 
Q 6528 97 6522 84 
L 2950 -7366 
Q 2925 -7425 2853 -7425 
L 2713 -7425 
z
" transform="scale(0.015625)"/>
      <path id="DejaVuSerif-2212" d="M 678 2259 
L 4684 2259 
L 4684 1753 
L 678 1753 
L 678 2259 
z
" transform="scale(0.015625)"/>
      <path id="DejaVuSerif-2b" d="M 2931 4013 
L 2931 2259 
L 4684 2259 
L 4684 1753 
L 2931 1753 
L 2931 0 
L 2431 0 
L 2431 1753 
L 678 1753 
L 678 2259 
L 2431 2259 
L 2431 4013 
L 2931 4013 
z
" transform="scale(0.015625)"/>
     </defs>
     <use xlink:href="#DejaVuSerif-34" transform="translate(0 0.53125)"/>
     <use xlink:href="#DejaVuSerif-36" transform="translate(63.623047 0.53125)"/>
     <use xlink:href="#DejaVuSerif-3d" transform="translate(146.210938 0.53125)"/>
     <use xlink:href="#DejaVuSerif-34" transform="translate(248.964844 0.53125)"/>
     <use xlink:href="#DejaVuSerif-21" transform="translate(312.587891 0.53125)"/>
     <use xlink:href="#Cmex10-70" transform="translate(371.738281 102.484375) scale(0.878792)"/>
     <use xlink:href="#DejaVuSerif-34" transform="translate(472.113281 0.53125)"/>
     <use xlink:href="#DejaVuSerif-2212" transform="translate(567.201172 0.53125)"/>
     <use xlink:href="#Cmex10-70" transform="translate(669.955078 102.484375) scale(0.878792)"/>
     <use xlink:href="#DejaVuSerif-34" transform="translate(770.330078 0.53125)"/>
     <use xlink:href="#DejaVuSerif-3d" transform="translate(865.417969 0.53125)"/>
     <use xlink:href="#DejaVuSerif-34" transform="translate(968.171875 0.53125)"/>
     <use xlink:href="#DejaVuSerif-34" transform="translate(1031.794922 0.53125)"/>
     <use xlink:href="#DejaVuSerif-2b" transform="translate(1114.382812 0.53125)"/>
     <use xlink:href="#Cmex10-70" transform="translate(1217.136719 102.484375) scale(0.878792)"/>
     <use xlink:href="#DejaVuSerif-34" transform="translate(1317.511719 0.53125)"/>
     <path d="M 459.613281 99.5 
L 459.613281 105.75 
L 548.236328 105.75 
L 548.236328 99.5 
L 459.613281 99.5 
z
"/>
     <path d="M 757.830078 99.5 
L 757.830078 105.75 
L 846.453125 105.75 
L 846.453125 99.5 
L 757.830078 99.5 
z
"/>
     <path d="M 1305.011719 99.5 
L 1305.011719 105.75 
L 1393.634766 105.75 
L 1393.634766 99.5 
L 1305.011719 99.5 
z
"/>
    </g>
   </g>
  </g>
 </g>
</svg>
