<?xml version="1.0" encoding="utf-8" standalone="no"?>
<!DOCTYPE svg PUBLIC "-//W3C//DTD SVG 1.1//EN"
  "http://www.w3.org/Graphics/SVG/1.1/DTD/svg11.dtd">
<svg xmlns:xlink="http://www.w3.org/1999/xlink" width="409.92pt" height="75.6pt" viewBox="0 0 409.92 75.6" xmlns="http://www.w3.org/2000/svg" version="1.1">
 <metadata>
  <rdf:RDF xmlns:dc="http://purl.org/dc/elements/1.1/" xmlns:cc="http://creativecommons.org/ns#" xmlns:rdf="http://www.w3.org/1999/02/22-rdf-syntax-ns#">
   <cc:Work>
    <dc:type rdf:resource="http://purl.org/dc/dcmitype/StillImage"/>
    <dc:date>2026-03-01T11:54:45.509287</dc:date>
    <dc:format>image/svg+xml</dc:format>
    <dc:creator>
     <cc:Agent>
      <dc:title>Matplotlib v3.10.8, https://matplotlib.org/</dc:title>
     </cc:Agent>
    </dc:creator>
   </cc:Work>
  </rdf:RDF>
 </metadata>
 <defs>
  <style type="text/css">*{stroke-linejoin: round; stroke-linecap: butt}</style>
 </defs>
 <g id="figure_1">
  <g id="patch_1">
   <path d="M 0 75.6 
L 409.92 75.6 
L 409.92 0 
L 0 0 
L 0 75.6 
z
" style="fill: none"/>
  </g>
  <g id="axes_1">
   <g id="text_1">
    <!-- $47 = 44+\sqrt{4}+\frac{4}{4}$ -->
    <g style="fill: #ffffff" transform="translate(0 56.4) scale(0.48 -0.48)">
     <defs>
      <path id="DejaVuSerif-34" d="M 2234 1581 
L 2234 4063 
L 641 1581 
L 2234 1581 
z
M 3609 0 
L 1484 0 
L 1484 331 
L 2234 331 
L 2234 1247 
L 197 1247 
L 197 1588 
L 2241 4750 
L 2859 4750 
L 2859 1581 
L 3750 1581 
L 3750 1247 
L 2859 1247 
L 2859 331 
L 3609 331 
L 3609 0 
z
" transform="scale(0.015625)"/>
      <path id="DejaVuSerif-37" d="M 3609 4347 
L 1784 0 
L 1319 0 
L 3059 4153 
L 903 4153 
L 903 3578 
L 538 3578 
L 538 4666 
L 3609 4666 
L 3609 4347 
z
" transform="scale(0.015625)"/>
      <path id="DejaVuSerif-3d" d="M 678 2894 
L 4684 2894 
L 4684 2394 
L 678 2394 
L 678 2894 
z
M 678 1619 
L 4684 1619 
L 4684 1119 
L 678 1119 
L 678 1619 
z
" transform="scale(0.015625)"/>
      <path id="DejaVuSerif-2b" d="M 2931 4013 
L 2931 2259 
L 4684 2259 
L 4684 1753 
L 2931 1753 
L 2931 0 
L 2431 0 
L 2431 1753 
L 678 1753 
L 678 2259 
L 2431 2259 
L 2431 4013 
L 2931 4013 
z
" transform="scale(0.015625)"/>
      <path id="Cmex10-70" d="M 2713 -7425 
L 1269 -4063 
L 819 -4409 
L 703 -4294 
L 1619 -3584 
L 2969 -6725 
L 6291 197 
Q 6322 256 6400 256 
Q 6453 256 6490 218 
Q 6528 181 6528 128 
Q 6528 97 6522 84 
L 2950 -7366 
Q 2925 -7425 2853 -7425 
L 2713 -7425 
z
" transform="scale(0.015625)"/>
     </defs>
     <use xlink:href="#DejaVuSerif-34" transform="translate(0 0.53125)"/>
     <use xlink:href="#DejaVuSerif-37" transform="translate(63.623047 0.53125)"/>
     <use xlink:href="#DejaVuSerif-3d" transform="translate(146.210938 0.53125)"/>
     <use xlink:href="#DejaVuSerif-34" transform="translate(248.964844 0.53125)"/>
     <use xlink:href="#DejaVuSerif-34" transform="translate(312.587891 0.53125)"/>
     <use xlink:href="#DejaVuSerif-2b" transform="translate(395.175781 0.53125)"/>
     <use xlink:href="#Cmex10-70" transform="translate(497.929688 102.484375) scale(0.878792)"/>
     <use xlink:href="#DejaVuSerif-34" transform="translate(598.304688 0.53125)"/>
     <use xlink:href="#DejaVuSerif-2b" transform="translate(693.392578 0.53125)"/>
     <use xlink:href="#DejaVuSerif-34" transform="translate(796.146484 44.382812) scale(0.7)"/>
     <use xlink:href="#DejaVuSerif-34" transform="translate(796.146484 -38.820312) scale(0.7)"/>
     <path d="M 585.804688 99.5 
L 585.804688 105.75 
L 674.427734 105.75 
L 674.427734 99.5 
L 585.804688 99.5 
z
"/>
     <path d="M 796.146484 19.382812 
L 796.146484 25.632812 
L 840.682617 25.632812 
L 840.682617 19.382812 
L 796.146484 19.382812 
z
"/>
    </g>
   </g>
  </g>
 </g>
</svg>
