<svg xmlns="http://www.w3.org/2000/svg" width="312.72" height="111.296" viewBox="-0.376 -79.192 312.72 111.296"><symbol id="STIXTwoMathRegular_1141" viewBox="0 -31.524 5.772 51.216"><path d="M 5.772 -1.896 L 5.772 -1.896 L 4.548 -1.896 L 4.548 0 L 3.48 0 L 3.48 -1.896 L 0.156 -1.896 L 0.156 -2.652 L 3.816 -7.74 L 4.548 -7.74 L 4.548 -2.724 L 5.772 -2.724 Z M 3.48 -2.724 L 3.48 -2.724 L 3.48 -6.432 L 3.432 -6.432 L 0.816 -2.772 L 0.816 -2.724 Z " /></symbol><use href="#STIXTwoMathRegular_1141" x="0" y="-126.096" width="23.088" height="204.864" fill="white" /><symbol id="STIXTwoMathRegular_1146" viewBox="0 -31.524 5.4 51.216"><path d="M 1.02 0.156 L 1.02 0.156 L 0.996 -0.192 Q 1.824 -0.288 2.52 -0.678 Q 3.216 -1.068 3.678 -1.746 Q 4.14 -2.424 4.272 -3.396 L 4.2 -3.408 Q 3.792 -3.036 3.438 -2.85 Q 3.084 -2.664 2.628 -2.664 Q 1.644 -2.664 1.056 -3.33 Q 0.468 -3.996 0.468 -5.184 Q 0.468 -6.396 1.11 -7.074 Q 1.752 -7.752 2.88 -7.752 Q 3.78 -7.752 4.332 -7.308 Q 4.884 -6.864 5.142 -6.12 Q 5.4 -5.376 5.4 -4.488 Q 5.4 -2.94 4.86 -1.914 Q 4.32 -0.888 3.336 -0.372 Q 2.352 0.144 1.02 0.156 Z M 1.512 -5.256 L 1.512 -5.256 Q 1.512 -4.416 1.878 -3.894 Q 2.244 -3.372 2.988 -3.372 Q 3.516 -3.372 3.918 -3.69 Q 4.32 -4.008 4.32 -4.776 Q 4.32 -5.532 4.17 -6.108 Q 4.02 -6.684 3.69 -7.014 Q 3.36 -7.344 2.832 -7.344 Q 2.244 -7.344 1.878 -6.876 Q 1.512 -6.408 1.512 -5.256 Z " /></symbol><use href="#STIXTwoMathRegular_1146" x="23.76" y="-126.096" width="21.6" height="204.864" fill="white" /><symbol id="STIXTwoMathRegular_1202" viewBox="0 -31.524 7.896 51.216"><path d="M 7.896 -3.924 L 7.896 -3.924 L 0.744 -3.924 L 0.744 -4.74 L 7.896 -4.74 Z M 7.896 -1.476 L 7.896 -1.476 L 0.744 -1.476 L 0.744 -2.28 L 7.896 -2.28 Z " /></symbol><use href="#STIXTwoMathRegular_1202" x="65.293" y="-126.096" width="31.584" height="204.864" fill="white" /><use href="#STIXTwoMathRegular_1141" x="117.627" y="-126.096" width="23.088" height="204.864" fill="white" /><use href="#STIXTwoMathRegular_1141" x="141.387" y="-126.096" width="23.088" height="204.864" fill="white" /><symbol id="STIXTwoMathRegular_1196" viewBox="0 -31.524 7.896 51.216"><path d="M 7.896 -2.7 L 7.896 -2.7 L 4.752 -2.7 L 4.752 0.48 L 3.888 0.48 L 3.888 -2.7 L 0.744 -2.7 L 0.744 -3.516 L 3.888 -3.516 L 3.888 -6.696 L 4.752 -6.696 L 4.752 -3.516 L 7.896 -3.516 Z " /></symbol><use href="#STIXTwoMathRegular_1196" x="179.365" y="-126.096" width="31.584" height="204.864" fill="white" /><symbol id="STIXTwoMathRegular_1657" viewBox="0 -31.524 9.948 51.216"><path d="M 8.004 -11.064 L 8.004 -11.064 L 9.948 -11.064 L 9.948 -10.248 L 8.556 -10.248 L 4.956 3.18 L 4.452 3.18 L 1.656 -3.828 L 0.408 -3.348 L 0.216 -3.684 L 2.124 -5.004 L 2.364 -5.004 L 4.74 1.116 L 4.788 1.116 Z " /></symbol><use href="#STIXTwoMathRegular_1657" x="239.24" y="-160.032" width="39.792" height="204.864" fill="white" /><use href="#STIXTwoMathRegular_1141" x="277.352" y="-160.032" width="23.088" height="204.864" fill="white" /><rect x="277.352" y="-78.192" width="23.76" height="3.264" fill="white" /><symbol id="STIXTwoMathRegular_6752" viewBox="0 -31.524 0 51.216" /><use href="#STIXTwoMathRegular_6752" x="245.984" y="-95.376" width="0" height="204.864" fill="white" /><symbol id="STIXTwoMathRegular_1052" viewBox="0 -31.524 2.196 51.216"><path d="M 2.196 -0.6 L 2.196 -0.6 Q 2.196 -0.324 2.004 -0.114 Q 1.812 0.096 1.452 0.096 Q 1.092 0.096 0.918 -0.108 Q 0.744 -0.312 0.744 -0.612 Q 0.744 -0.924 0.936 -1.146 Q 1.128 -1.368 1.464 -1.368 Q 1.812 -1.368 2.004 -1.14 Q 2.196 -0.912 2.196 -0.6 Z " /></symbol><use href="#STIXTwoMathRegular_1052" x="251.984" y="-95.376" width="8.784" height="204.864" fill="white" /><use href="#STIXTwoMathRegular_1141" x="263.744" y="-95.376" width="23.088" height="204.864" fill="white" /><use href="#STIXTwoMathRegular_6752" x="287.504" y="-95.376" width="0" height="204.864" fill="white" /><rect x="238.808" y="-14.016" width="61.872" height="3.264" fill="white" /></svg>