<svg xmlns="http://www.w3.org/2000/svg" width="176.235" height="111.296" viewBox="1.832 -79.192 176.235 111.296"><symbol id="STIXTwoMathRegular_1142" viewBox="0 -31.524 5.316 51.216"><path d="M 5.004 -6.588 L 5.004 -6.588 L 2.184 -6.588 L 1.86 -5.22 L 2.424 -5.184 Q 2.952 -5.148 3.468 -5.004 Q 3.984 -4.86 4.404 -4.572 Q 4.824 -4.284 5.07 -3.81 Q 5.316 -3.336 5.316 -2.628 Q 5.316 -1.704 4.908 -1.086 Q 4.5 -0.468 3.774 -0.156 Q 3.048 0.156 2.088 0.156 Q 0.708 0.156 0.708 -0.516 Q 0.708 -0.72 0.834 -0.876 Q 0.96 -1.032 1.188 -1.032 Q 1.428 -1.032 1.662 -0.888 Q 1.896 -0.744 2.172 -0.594 Q 2.448 -0.444 2.832 -0.444 Q 3.264 -0.444 3.63 -0.612 Q 3.996 -0.78 4.218 -1.152 Q 4.44 -1.524 4.44 -2.148 Q 4.44 -3.276 3.768 -3.72 Q 3.096 -4.164 1.848 -4.224 Q 1.62 -4.248 1.53 -4.248 Q 1.44 -4.248 1.308 -4.248 L 1.164 -4.428 L 1.908 -7.56 L 5.196 -7.56 Z " /></symbol><use href="#STIXTwoMathRegular_1142" x="0" y="-126.096" width="21.264" height="204.864" fill="white" /><symbol id="STIXTwoMathRegular_1202" viewBox="0 -31.524 7.896 51.216"><path d="M 7.896 -3.924 L 7.896 -3.924 L 0.744 -3.924 L 0.744 -4.74 L 7.896 -4.74 Z M 7.896 -1.476 L 7.896 -1.476 L 0.744 -1.476 L 0.744 -2.28 L 7.896 -2.28 Z " /></symbol><use href="#STIXTwoMathRegular_1202" x="41.533" y="-126.096" width="31.584" height="204.864" fill="white" /><symbol id="STIXTwoMathRegular_1657" viewBox="0 -31.524 9.948 51.216"><path d="M 8.004 -11.064 L 8.004 -11.064 L 9.948 -11.064 L 9.948 -10.248 L 8.556 -10.248 L 4.956 3.18 L 4.452 3.18 L 1.656 -3.828 L 0.408 -3.348 L 0.216 -3.684 L 2.124 -5.004 L 2.364 -5.004 L 4.74 1.116 L 4.788 1.116 Z " /></symbol><use href="#STIXTwoMathRegular_1657" x="104.963" y="-160.032" width="39.792" height="204.864" fill="white" /><symbol id="STIXTwoMathRegular_1141" viewBox="0 -31.524 5.772 51.216"><path d="M 5.772 -1.896 L 5.772 -1.896 L 4.548 -1.896 L 4.548 0 L 3.48 0 L 3.48 -1.896 L 0.156 -1.896 L 0.156 -2.652 L 3.816 -7.74 L 4.548 -7.74 L 4.548 -2.724 L 5.772 -2.724 Z M 3.48 -2.724 L 3.48 -2.724 L 3.48 -6.432 L 3.432 -6.432 L 0.816 -2.772 L 0.816 -2.724 Z " /></symbol><use href="#STIXTwoMathRegular_1141" x="143.075" y="-160.032" width="23.088" height="204.864" fill="white" /><rect x="143.075" y="-78.192" width="23.76" height="3.264" fill="white" /><symbol id="STIXTwoMathRegular_6752" viewBox="0 -31.524 0 51.216" /><use href="#STIXTwoMathRegular_6752" x="111.707" y="-95.376" width="0" height="204.864" fill="white" /><symbol id="STIXTwoMathRegular_1052" viewBox="0 -31.524 2.196 51.216"><path d="M 2.196 -0.6 L 2.196 -0.6 Q 2.196 -0.324 2.004 -0.114 Q 1.812 0.096 1.452 0.096 Q 1.092 0.096 0.918 -0.108 Q 0.744 -0.312 0.744 -0.612 Q 0.744 -0.924 0.936 -1.146 Q 1.128 -1.368 1.464 -1.368 Q 1.812 -1.368 2.004 -1.14 Q 2.196 -0.912 2.196 -0.6 Z " /></symbol><use href="#STIXTwoMathRegular_1052" x="117.707" y="-95.376" width="8.784" height="204.864" fill="white" /><use href="#STIXTwoMathRegular_1141" x="129.467" y="-95.376" width="23.088" height="204.864" fill="white" /><use href="#STIXTwoMathRegular_6752" x="153.227" y="-95.376" width="0" height="204.864" fill="white" /><rect x="104.531" y="-14.016" width="61.872" height="3.264" fill="white" /></svg>