<?xml version="1.0" encoding="utf-8" standalone="no"?>
<!DOCTYPE svg PUBLIC "-//W3C//DTD SVG 1.1//EN"
  "http://www.w3.org/Graphics/SVG/1.1/DTD/svg11.dtd">
<svg xmlns:xlink="http://www.w3.org/1999/xlink" width="1696.32pt" height="93.696pt" viewBox="0 0 1696.32 93.696" xmlns="http://www.w3.org/2000/svg" version="1.1">
 <metadata>
  <rdf:RDF xmlns:dc="http://purl.org/dc/elements/1.1/" xmlns:cc="http://creativecommons.org/ns#" xmlns:rdf="http://www.w3.org/1999/02/22-rdf-syntax-ns#">
   <cc:Work>
    <dc:type rdf:resource="http://purl.org/dc/dcmitype/StillImage"/>
    <dc:date>2026-03-01T11:54:45.696095</dc:date>
    <dc:format>image/svg+xml</dc:format>
    <dc:creator>
     <cc:Agent>
      <dc:title>Matplotlib v3.10.8, https://matplotlib.org/</dc:title>
     </cc:Agent>
    </dc:creator>
   </cc:Work>
  </rdf:RDF>
 </metadata>
 <defs>
  <style type="text/css">*{stroke-linejoin: round; stroke-linecap: butt}</style>
 </defs>
 <g id="figure_1">
  <g id="patch_1">
   <path d="M 0 93.696 
L 1696.32 93.696 
L 1696.32 0 
L 0 0 
L 0 93.696 
z
" style="fill: none"/>
  </g>
  <g id="axes_1">
   <g id="text_1">
    <!-- $50 = \frac{44-4}{.4\sqrt{4}} = \frac{4\times4+4}{.4} = 44+4+\sqrt{4} = \frac{4\sqrt{4}}{.4\times4} = 44+\frac{4!}{4} = 4!\sqrt{4}+\sqrt{4} = \frac{4!-4}{.4}$ -->
    <g style="fill: #ffffff" transform="translate(0 61.536) scale(0.48 -0.48)">
     <defs>
      <path id="DejaVuSerif-35" d="M 3219 4666 
L 3219 4153 
L 1081 4153 
L 1081 2816 
Q 1244 2928 1461 2984 
Q 1678 3041 1947 3041 
Q 2703 3041 3140 2622 
Q 3578 2203 3578 1478 
Q 3578 738 3136 323 
Q 2694 -91 1894 -91 
Q 1572 -91 1234 -12 
Q 897 66 544 225 
L 544 1131 
L 897 1131 
Q 925 688 1179 453 
Q 1434 219 1894 219 
Q 2388 219 2653 544 
Q 2919 869 2919 1478 
Q 2919 2084 2655 2407 
Q 2391 2731 1894 2731 
Q 1613 2731 1398 2631 
Q 1184 2531 1019 2322 
L 750 2322 
L 750 4666 
L 3219 4666 
z
" transform="scale(0.015625)"/>
      <path id="DejaVuSerif-30" d="M 2034 219 
Q 2513 219 2750 744 
Q 2988 1269 2988 2328 
Q 2988 3391 2750 3916 
Q 2513 4441 2034 4441 
Q 1556 4441 1318 3916 
Q 1081 3391 1081 2328 
Q 1081 1269 1318 744 
Q 1556 219 2034 219 
z
M 2034 -91 
Q 1275 -91 848 546 
Q 422 1184 422 2328 
Q 422 3475 848 4112 
Q 1275 4750 2034 4750 
Q 2797 4750 3222 4112 
Q 3647 3475 3647 2328 
Q 3647 1184 3222 546 
Q 2797 -91 2034 -91 
z
" transform="scale(0.015625)"/>
      <path id="DejaVuSerif-3d" d="M 678 2894 
L 4684 2894 
L 4684 2394 
L 678 2394 
L 678 2894 
z
M 678 1619 
L 4684 1619 
L 4684 1119 
L 678 1119 
L 678 1619 
z
" transform="scale(0.015625)"/>
      <path id="DejaVuSerif-34" d="M 2234 1581 
L 2234 4063 
L 641 1581 
L 2234 1581 
z
M 3609 0 
L 1484 0 
L 1484 331 
L 2234 331 
L 2234 1247 
L 197 1247 
L 197 1588 
L 2241 4750 
L 2859 4750 
L 2859 1581 
L 3750 1581 
L 3750 1247 
L 2859 1247 
L 2859 331 
L 3609 331 
L 3609 0 
z
" transform="scale(0.015625)"/>
      <path id="DejaVuSerif-2212" d="M 678 2259 
L 4684 2259 
L 4684 1753 
L 678 1753 
L 678 2259 
z
" transform="scale(0.015625)"/>
      <path id="DejaVuSerif-2e" d="M 603 325 
Q 603 500 722 622 
Q 841 744 1019 744 
Q 1191 744 1312 622 
Q 1434 500 1434 325 
Q 1434 153 1312 31 
Q 1191 -91 1019 -91 
Q 841 -91 722 29 
Q 603 150 603 325 
z
" transform="scale(0.015625)"/>
      <path id="Cmex10-70" d="M 2713 -7425 
L 1269 -4063 
L 819 -4409 
L 703 -4294 
L 1619 -3584 
L 2969 -6725 
L 6291 197 
Q 6322 256 6400 256 
Q 6453 256 6490 218 
Q 6528 181 6528 128 
Q 6528 97 6522 84 
L 2950 -7366 
Q 2925 -7425 2853 -7425 
L 2713 -7425 
z
" transform="scale(0.015625)"/>
      <path id="DejaVuSerif-d7" d="M 4481 3450 
L 3034 2003 
L 4481 563 
L 4122 213 
L 2681 1650 
L 1241 213 
L 884 563 
L 2322 2003 
L 884 3450 
L 1241 3803 
L 2681 2363 
L 4122 3803 
L 4481 3450 
z
" transform="scale(0.015625)"/>
      <path id="DejaVuSerif-2b" d="M 2931 4013 
L 2931 2259 
L 4684 2259 
L 4684 1753 
L 2931 1753 
L 2931 0 
L 2431 0 
L 2431 1753 
L 678 1753 
L 678 2259 
L 2431 2259 
L 2431 4013 
L 2931 4013 
z
" transform="scale(0.015625)"/>
      <path id="DejaVuSerif-21" d="M 872 325 
Q 872 500 990 622 
Q 1109 744 1288 744 
Q 1459 744 1581 622 
Q 1703 500 1703 325 
Q 1703 153 1581 31 
Q 1459 -91 1288 -91 
Q 1109 -91 990 29 
Q 872 150 872 325 
z
M 884 4666 
L 1691 4666 
L 1478 2100 
L 1478 1313 
L 1094 1313 
L 1094 2100 
L 884 4666 
z
" transform="scale(0.015625)"/>
     </defs>
     <use xlink:href="#DejaVuSerif-35" transform="translate(0 0.120313)"/>
     <use xlink:href="#DejaVuSerif-30" transform="translate(63.623047 0.120313)"/>
     <use xlink:href="#DejaVuSerif-3d" transform="translate(146.210938 0.120313)"/>
     <use xlink:href="#DejaVuSerif-34" transform="translate(248.964844 43.971875) scale(0.7)"/>
     <use xlink:href="#DejaVuSerif-34" transform="translate(293.500977 43.971875) scale(0.7)"/>
     <use xlink:href="#DejaVuSerif-2212" transform="translate(351.3125 43.971875) scale(0.7)"/>
     <use xlink:href="#DejaVuSerif-34" transform="translate(423.240234 43.971875) scale(0.7)"/>
     <use xlink:href="#DejaVuSerif-2e" transform="translate(256.964844 -65.30625) scale(0.7)"/>
     <use xlink:href="#DejaVuSerif-34" transform="translate(292.491211 -65.30625) scale(0.7)"/>
     <use xlink:href="#Cmex10-70" transform="translate(337.027344 6.053125) scale(0.615154)"/>
     <use xlink:href="#DejaVuSerif-34" transform="translate(407.289844 -65.60625) scale(0.7)"/>
     <use xlink:href="#DejaVuSerif-3d" transform="translate(499.241211 0.120313)"/>
     <use xlink:href="#DejaVuSerif-34" transform="translate(601.995117 43.971875) scale(0.7)"/>
     <use xlink:href="#DejaVuSerif-d7" transform="translate(659.806641 43.971875) scale(0.7)"/>
     <use xlink:href="#DejaVuSerif-34" transform="translate(731.734375 43.971875) scale(0.7)"/>
     <use xlink:href="#DejaVuSerif-2b" transform="translate(789.545898 43.971875) scale(0.7)"/>
     <use xlink:href="#DejaVuSerif-34" transform="translate(861.473633 43.971875) scale(0.7)"/>
     <use xlink:href="#DejaVuSerif-2e" transform="translate(713.995117 -39.23125) scale(0.7)"/>
     <use xlink:href="#DejaVuSerif-34" transform="translate(749.521484 -39.23125) scale(0.7)"/>
     <use xlink:href="#DejaVuSerif-3d" transform="translate(937.474609 0.120313)"/>
     <use xlink:href="#DejaVuSerif-34" transform="translate(1040.228516 0.120313)"/>
     <use xlink:href="#DejaVuSerif-34" transform="translate(1103.851562 0.120313)"/>
     <use xlink:href="#DejaVuSerif-2b" transform="translate(1186.439453 0.120313)"/>
     <use xlink:href="#DejaVuSerif-34" transform="translate(1289.193359 0.120313)"/>
     <use xlink:href="#DejaVuSerif-2b" transform="translate(1371.78125 0.120313)"/>
     <use xlink:href="#Cmex10-70" transform="translate(1474.535156 102.073438) scale(0.878792)"/>
     <use xlink:href="#DejaVuSerif-34" transform="translate(1574.910156 0.120313)"/>
     <use xlink:href="#DejaVuSerif-3d" transform="translate(1669.998047 0.120313)"/>
     <use xlink:href="#DejaVuSerif-34" transform="translate(1793.751953 43.971875) scale(0.7)"/>
     <use xlink:href="#Cmex10-70" transform="translate(1838.288086 115.33125) scale(0.615154)"/>
     <use xlink:href="#DejaVuSerif-34" transform="translate(1908.550586 43.671875) scale(0.7)"/>
     <use xlink:href="#DejaVuSerif-2e" transform="translate(1772.751953 -39.23125) scale(0.7)"/>
     <use xlink:href="#DejaVuSerif-34" transform="translate(1808.27832 -39.23125) scale(0.7)"/>
     <use xlink:href="#DejaVuSerif-d7" transform="translate(1866.089844 -39.23125) scale(0.7)"/>
     <use xlink:href="#DejaVuSerif-34" transform="translate(1938.017578 -39.23125) scale(0.7)"/>
     <use xlink:href="#DejaVuSerif-3d" transform="translate(2014.018555 0.120313)"/>
     <use xlink:href="#DejaVuSerif-34" transform="translate(2116.772461 0.120313)"/>
     <use xlink:href="#DejaVuSerif-34" transform="translate(2180.395508 0.120313)"/>
     <use xlink:href="#DejaVuSerif-2b" transform="translate(2262.983398 0.120313)"/>
     <use xlink:href="#DejaVuSerif-34" transform="translate(2365.737305 44.967188) scale(0.7)"/>
     <use xlink:href="#DejaVuSerif-21" transform="translate(2410.273438 44.967188) scale(0.7)"/>
     <use xlink:href="#DejaVuSerif-34" transform="translate(2386.737305 -39.23125) scale(0.7)"/>
     <use xlink:href="#DejaVuSerif-3d" transform="translate(2483.143555 0.120313)"/>
     <use xlink:href="#DejaVuSerif-34" transform="translate(2585.897461 0.120313)"/>
     <use xlink:href="#DejaVuSerif-21" transform="translate(2649.520508 0.120313)"/>
     <use xlink:href="#Cmex10-70" transform="translate(2708.670898 102.073438) scale(0.878792)"/>
     <use xlink:href="#DejaVuSerif-34" transform="translate(2809.045898 0.120313)"/>
     <use xlink:href="#DejaVuSerif-2b" transform="translate(2904.133789 0.120313)"/>
     <use xlink:href="#Cmex10-70" transform="translate(3006.887695 102.073438) scale(0.878792)"/>
     <use xlink:href="#DejaVuSerif-34" transform="translate(3107.262695 0.120313)"/>
     <use xlink:href="#DejaVuSerif-3d" transform="translate(3202.350586 0.120313)"/>
     <use xlink:href="#DejaVuSerif-34" transform="translate(3305.104492 44.967188) scale(0.7)"/>
     <use xlink:href="#DejaVuSerif-21" transform="translate(3349.640625 44.967188) scale(0.7)"/>
     <use xlink:href="#DejaVuSerif-2212" transform="translate(3404.321289 44.967188) scale(0.7)"/>
     <use xlink:href="#DejaVuSerif-34" transform="translate(3476.249023 44.967188) scale(0.7)"/>
     <use xlink:href="#DejaVuSerif-2e" transform="translate(3373.104492 -39.23125) scale(0.7)"/>
     <use xlink:href="#DejaVuSerif-34" transform="translate(3408.630859 -39.23125) scale(0.7)"/>
     <path d="M 248.964844 18.971875 
L 248.964844 25.221875 
L 467.776367 25.221875 
L 467.776367 18.971875 
L 248.964844 18.971875 
z
"/>
     <path d="M 398.539844 3.971875 
L 398.539844 8.346875 
L 460.575977 8.346875 
L 460.575977 3.971875 
L 398.539844 3.971875 
z
"/>
     <path d="M 601.995117 18.971875 
L 601.995117 25.221875 
L 906.009766 25.221875 
L 906.009766 18.971875 
L 601.995117 18.971875 
z
"/>
     <path d="M 1562.410156 99.089063 
L 1562.410156 105.339063 
L 1651.033203 105.339063 
L 1651.033203 99.089063 
L 1562.410156 99.089063 
z
"/>
     <path d="M 1899.800586 113.25 
L 1899.800586 117.625 
L 1961.836719 117.625 
L 1961.836719 113.25 
L 1899.800586 113.25 
z
"/>
     <path d="M 1772.751953 18.971875 
L 1772.751953 25.221875 
L 1982.553711 25.221875 
L 1982.553711 18.971875 
L 1772.751953 18.971875 
z
"/>
     <path d="M 2365.737305 18.971875 
L 2365.737305 25.221875 
L 2451.678711 25.221875 
L 2451.678711 18.971875 
L 2365.737305 18.971875 
z
"/>
     <path d="M 2796.545898 99.089063 
L 2796.545898 105.339063 
L 2885.168945 105.339063 
L 2885.168945 99.089063 
L 2796.545898 99.089063 
z
"/>
     <path d="M 3094.762695 99.089063 
L 3094.762695 105.339063 
L 3183.385742 105.339063 
L 3183.385742 99.089063 
L 3094.762695 99.089063 
z
"/>
     <path d="M 3305.104492 18.971875 
L 3305.104492 25.221875 
L 3520.785156 25.221875 
L 3520.785156 18.971875 
L 3305.104492 18.971875 
z
"/>
    </g>
   </g>
  </g>
 </g>
</svg>
