<svg xmlns="http://www.w3.org/2000/svg" width="311.184" height="95.936" viewBox="1.16 -63.832 311.184 95.936"><symbol id="STIXTwoMathRegular_1143" viewBox="0 -31.524 5.484 51.216"><path d="M 4.98 -7.752 L 4.98 -7.752 L 5.004 -7.404 Q 4.164 -7.284 3.468 -6.864 Q 2.772 -6.444 2.304 -5.772 Q 1.836 -5.1 1.68 -4.224 L 1.764 -4.212 Q 2.136 -4.572 2.496 -4.764 Q 2.856 -4.956 3.324 -4.956 Q 4.308 -4.956 4.896 -4.284 Q 5.484 -3.612 5.484 -2.436 Q 5.484 -1.212 4.866 -0.534 Q 4.248 0.144 3.108 0.144 Q 2.22 0.144 1.65 -0.294 Q 1.08 -0.732 0.81 -1.47 Q 0.54 -2.208 0.54 -3.084 Q 0.54 -4.536 1.11 -5.556 Q 1.68 -6.576 2.688 -7.14 Q 3.696 -7.704 4.98 -7.752 Z M 4.44 -2.34 L 4.44 -2.34 Q 4.44 -3.156 4.074 -3.708 Q 3.708 -4.26 2.964 -4.26 Q 2.616 -4.26 2.31 -4.122 Q 2.004 -3.984 1.812 -3.672 Q 1.62 -3.36 1.62 -2.832 Q 1.62 -2.088 1.788 -1.512 Q 1.956 -0.936 2.298 -0.606 Q 2.64 -0.276 3.156 -0.276 Q 3.756 -0.276 4.098 -0.738 Q 4.44 -1.2 4.44 -2.34 Z " /></symbol><use href="#STIXTwoMathRegular_1143" x="0" y="-126.096" width="21.936" height="204.864" fill="white" /><symbol id="STIXTwoMathRegular_1139" viewBox="0 -31.524 5.568 51.216"><path d="M 5.568 -1.92 L 5.568 -1.92 L 5.184 0 L 0.456 0 L 0.456 -0.408 L 2.28 -2.232 Q 2.88 -2.844 3.276 -3.342 Q 3.672 -3.84 3.87 -4.344 Q 4.068 -4.848 4.068 -5.472 Q 4.068 -6.144 3.666 -6.546 Q 3.264 -6.948 2.568 -6.948 Q 1.98 -6.948 1.566 -6.696 Q 1.152 -6.444 0.816 -5.772 L 0.528 -5.892 Q 0.804 -6.768 1.404 -7.248 Q 2.004 -7.728 2.88 -7.728 Q 3.564 -7.728 4.08 -7.47 Q 4.596 -7.212 4.89 -6.75 Q 5.184 -6.288 5.184 -5.652 Q 5.184 -5.124 4.962 -4.638 Q 4.74 -4.152 4.302 -3.636 Q 3.864 -3.12 3.228 -2.472 L 1.644 -0.972 L 1.644 -0.912 L 2.484 -0.948 L 4.152 -0.948 Q 4.632 -0.948 4.824 -1.164 Q 5.016 -1.38 5.22 -1.92 Z " /></symbol><use href="#STIXTwoMathRegular_1139" x="23.76" y="-126.096" width="22.272" height="204.864" fill="white" /><symbol id="STIXTwoMathRegular_1202" viewBox="0 -31.524 7.896 51.216"><path d="M 7.896 -3.924 L 7.896 -3.924 L 0.744 -3.924 L 0.744 -4.74 L 7.896 -4.74 Z M 7.896 -1.476 L 7.896 -1.476 L 0.744 -1.476 L 0.744 -2.28 L 7.896 -2.28 Z " /></symbol><use href="#STIXTwoMathRegular_1202" x="65.293" y="-126.096" width="31.584" height="204.864" fill="white" /><symbol id="STIXTwoMathRegular_1141" viewBox="0 -31.524 5.772 51.216"><path d="M 5.772 -1.896 L 5.772 -1.896 L 4.548 -1.896 L 4.548 0 L 3.48 0 L 3.48 -1.896 L 0.156 -1.896 L 0.156 -2.652 L 3.816 -7.74 L 4.548 -7.74 L 4.548 -2.724 L 5.772 -2.724 Z M 3.48 -2.724 L 3.48 -2.724 L 3.48 -6.432 L 3.432 -6.432 L 0.816 -2.772 L 0.816 -2.724 Z " /></symbol><use href="#STIXTwoMathRegular_1141" x="130.136" y="-156.816" width="23.088" height="204.864" fill="white" /><symbol id="STIXTwoMathRegular_1054" viewBox="0 -31.524 2.412 51.216"><path d="M 1.476 -2.04 L 1.476 -2.04 L 1.104 -6.456 Q 1.092 -6.708 1.074 -6.9 Q 1.056 -7.092 1.056 -7.236 Q 1.056 -7.572 1.188 -7.8 Q 1.32 -8.028 1.692 -8.028 Q 2.04 -8.028 2.184 -7.8 Q 2.328 -7.572 2.328 -7.212 Q 2.328 -6.876 2.292 -6.456 L 1.896 -2.04 Z M 2.412 -0.588 L 2.412 -0.588 Q 2.412 -0.312 2.226 -0.108 Q 2.04 0.096 1.692 0.096 Q 1.344 0.096 1.164 -0.102 Q 0.984 -0.3 0.984 -0.6 Q 0.984 -0.9 1.17 -1.116 Q 1.356 -1.332 1.692 -1.332 Q 2.04 -1.332 2.226 -1.11 Q 2.412 -0.888 2.412 -0.588 Z " /></symbol><use href="#STIXTwoMathRegular_1054" x="161.005" y="-156.816" width="9.648" height="204.864" fill="white" /><symbol id="STIXTwoMathRegular_6752" viewBox="0 -31.524 0 51.216" /><use href="#STIXTwoMathRegular_6752" x="128.291" y="-95.376" width="0" height="204.864" fill="white" /><symbol id="STIXTwoMathRegular_1052" viewBox="0 -31.524 2.196 51.216"><path d="M 2.196 -0.6 L 2.196 -0.6 Q 2.196 -0.324 2.004 -0.114 Q 1.812 0.096 1.452 0.096 Q 1.092 0.096 0.918 -0.108 Q 0.744 -0.312 0.744 -0.612 Q 0.744 -0.924 0.936 -1.146 Q 1.128 -1.368 1.464 -1.368 Q 1.812 -1.368 2.004 -1.14 Q 2.196 -0.912 2.196 -0.6 Z " /></symbol><use href="#STIXTwoMathRegular_1052" x="134.291" y="-95.376" width="8.784" height="204.864" fill="white" /><use href="#STIXTwoMathRegular_1141" x="146.051" y="-95.376" width="23.088" height="204.864" fill="white" /><use href="#STIXTwoMathRegular_6752" x="169.811" y="-95.376" width="0" height="204.864" fill="white" /><rect x="128.291" y="-14.016" width="47.52" height="3.264" fill="white" /><symbol id="STIXTwoMathRegular_1196" viewBox="0 -31.524 7.896 51.216"><path d="M 7.896 -2.7 L 7.896 -2.7 L 4.752 -2.7 L 4.752 0.48 L 3.888 0.48 L 3.888 -2.7 L 0.744 -2.7 L 0.744 -3.516 L 3.888 -3.516 L 3.888 -6.696 L 4.752 -6.696 L 4.752 -3.516 L 7.896 -3.516 Z " /></symbol><use href="#STIXTwoMathRegular_1196" x="200.693" y="-126.096" width="31.584" height="204.864" fill="white" /><symbol id="STIXTwoMathRegular_1657" viewBox="0 -31.524 9.948 51.216"><path d="M 8.004 -11.064 L 8.004 -11.064 L 9.948 -11.064 L 9.948 -10.248 L 8.556 -10.248 L 4.956 3.18 L 4.452 3.18 L 1.656 -3.828 L 0.408 -3.348 L 0.216 -3.684 L 2.124 -5.004 L 2.364 -5.004 L 4.74 1.116 L 4.788 1.116 Z " /></symbol><use href="#STIXTwoMathRegular_1657" x="249.472" y="-126.096" width="39.792" height="204.864" fill="white" /><use href="#STIXTwoMathRegular_1141" x="287.584" y="-126.096" width="23.088" height="204.864" fill="white" /><rect x="287.584" y="-44.256" width="23.76" height="3.264" fill="white" /></svg>