<svg xmlns="http://www.w3.org/2000/svg" width="320.592" height="94.4" viewBox="1.16 -62.68 320.592 94.4"><symbol id="STIXTwoMathRegular_1143" viewBox="0 -31.524 5.484 51.216"><path d="M 4.98 -7.752 L 4.98 -7.752 L 5.004 -7.404 Q 4.164 -7.284 3.468 -6.864 Q 2.772 -6.444 2.304 -5.772 Q 1.836 -5.1 1.68 -4.224 L 1.764 -4.212 Q 2.136 -4.572 2.496 -4.764 Q 2.856 -4.956 3.324 -4.956 Q 4.308 -4.956 4.896 -4.284 Q 5.484 -3.612 5.484 -2.436 Q 5.484 -1.212 4.866 -0.534 Q 4.248 0.144 3.108 0.144 Q 2.22 0.144 1.65 -0.294 Q 1.08 -0.732 0.81 -1.47 Q 0.54 -2.208 0.54 -3.084 Q 0.54 -4.536 1.11 -5.556 Q 1.68 -6.576 2.688 -7.14 Q 3.696 -7.704 4.98 -7.752 Z M 4.44 -2.34 L 4.44 -2.34 Q 4.44 -3.156 4.074 -3.708 Q 3.708 -4.26 2.964 -4.26 Q 2.616 -4.26 2.31 -4.122 Q 2.004 -3.984 1.812 -3.672 Q 1.62 -3.36 1.62 -2.832 Q 1.62 -2.088 1.788 -1.512 Q 1.956 -0.936 2.298 -0.606 Q 2.64 -0.276 3.156 -0.276 Q 3.756 -0.276 4.098 -0.738 Q 4.44 -1.2 4.44 -2.34 Z " /></symbol><use href="#STIXTwoMathRegular_1143" x="0" y="-126.096" width="21.936" height="204.864" fill="white" /><symbol id="STIXTwoMathRegular_1144" viewBox="0 -31.524 5.568 51.216"><path d="M 5.568 -7.188 L 5.568 -7.188 L 2.76 0.096 L 1.812 0.096 L 4.644 -6.588 L 1.968 -6.588 Q 1.632 -6.588 1.452 -6.528 Q 1.272 -6.468 1.158 -6.276 Q 1.044 -6.084 0.876 -5.688 L 0.504 -5.724 L 0.984 -7.56 L 5.568 -7.56 Z " /></symbol><use href="#STIXTwoMathRegular_1144" x="23.76" y="-126.096" width="22.272" height="204.864" fill="white" /><symbol id="STIXTwoMathRegular_1202" viewBox="0 -31.524 7.896 51.216"><path d="M 7.896 -3.924 L 7.896 -3.924 L 0.744 -3.924 L 0.744 -4.74 L 7.896 -4.74 Z M 7.896 -1.476 L 7.896 -1.476 L 0.744 -1.476 L 0.744 -2.28 L 7.896 -2.28 Z " /></symbol><use href="#STIXTwoMathRegular_1202" x="65.293" y="-126.096" width="31.584" height="204.864" fill="white" /><symbol id="STIXTwoMathRegular_1141" viewBox="0 -31.524 5.772 51.216"><path d="M 5.772 -1.896 L 5.772 -1.896 L 4.548 -1.896 L 4.548 0 L 3.48 0 L 3.48 -1.896 L 0.156 -1.896 L 0.156 -2.652 L 3.816 -7.74 L 4.548 -7.74 L 4.548 -2.724 L 5.772 -2.724 Z M 3.48 -2.724 L 3.48 -2.724 L 3.48 -6.432 L 3.432 -6.432 L 0.816 -2.772 L 0.816 -2.724 Z " /></symbol><use href="#STIXTwoMathRegular_1141" x="128.603" y="-156.816" width="23.088" height="204.864" fill="white" /><use href="#STIXTwoMathRegular_1141" x="152.363" y="-156.816" width="23.088" height="204.864" fill="white" /><use href="#STIXTwoMathRegular_1141" x="176.123" y="-156.816" width="23.088" height="204.864" fill="white" /><use href="#STIXTwoMathRegular_1141" x="152.363" y="-95.376" width="23.088" height="204.864" fill="white" /><rect x="128.291" y="-14.016" width="71.28" height="3.264" fill="white" /><symbol id="STIXTwoMathRegular_1197" viewBox="0 -31.524 7.896 51.216"><path d="M 7.896 -2.7 L 7.896 -2.7 L 0.744 -2.7 L 0.744 -3.516 L 7.896 -3.516 Z " /></symbol><use href="#STIXTwoMathRegular_1197" x="224.453" y="-126.096" width="31.584" height="204.864" fill="white" /><use href="#STIXTwoMathRegular_1141" x="273.232" y="-126.096" width="23.088" height="204.864" fill="white" /><use href="#STIXTwoMathRegular_1141" x="296.992" y="-126.096" width="23.088" height="204.864" fill="white" /></svg>