<svg xmlns="http://www.w3.org/2000/svg" width="939.078" height="112.16" viewBox="1.16 -79.192 939.078 112.16"><symbol id="STIXTwoMathRegular_1143" viewBox="0 -31.524 5.484 51.216"><path d="M 4.98 -7.752 L 4.98 -7.752 L 5.004 -7.404 Q 4.164 -7.284 3.468 -6.864 Q 2.772 -6.444 2.304 -5.772 Q 1.836 -5.1 1.68 -4.224 L 1.764 -4.212 Q 2.136 -4.572 2.496 -4.764 Q 2.856 -4.956 3.324 -4.956 Q 4.308 -4.956 4.896 -4.284 Q 5.484 -3.612 5.484 -2.436 Q 5.484 -1.212 4.866 -0.534 Q 4.248 0.144 3.108 0.144 Q 2.22 0.144 1.65 -0.294 Q 1.08 -0.732 0.81 -1.47 Q 0.54 -2.208 0.54 -3.084 Q 0.54 -4.536 1.11 -5.556 Q 1.68 -6.576 2.688 -7.14 Q 3.696 -7.704 4.98 -7.752 Z M 4.44 -2.34 L 4.44 -2.34 Q 4.44 -3.156 4.074 -3.708 Q 3.708 -4.26 2.964 -4.26 Q 2.616 -4.26 2.31 -4.122 Q 2.004 -3.984 1.812 -3.672 Q 1.62 -3.36 1.62 -2.832 Q 1.62 -2.088 1.788 -1.512 Q 1.956 -0.936 2.298 -0.606 Q 2.64 -0.276 3.156 -0.276 Q 3.756 -0.276 4.098 -0.738 Q 4.44 -1.2 4.44 -2.34 Z " /></symbol><use href="#STIXTwoMathRegular_1143" x="0" y="-126.096" width="21.936" height="204.864" fill="white" /><symbol id="STIXTwoMathRegular_1146" viewBox="0 -31.524 5.4 51.216"><path d="M 1.02 0.156 L 1.02 0.156 L 0.996 -0.192 Q 1.824 -0.288 2.52 -0.678 Q 3.216 -1.068 3.678 -1.746 Q 4.14 -2.424 4.272 -3.396 L 4.2 -3.408 Q 3.792 -3.036 3.438 -2.85 Q 3.084 -2.664 2.628 -2.664 Q 1.644 -2.664 1.056 -3.33 Q 0.468 -3.996 0.468 -5.184 Q 0.468 -6.396 1.11 -7.074 Q 1.752 -7.752 2.88 -7.752 Q 3.78 -7.752 4.332 -7.308 Q 4.884 -6.864 5.142 -6.12 Q 5.4 -5.376 5.4 -4.488 Q 5.4 -2.94 4.86 -1.914 Q 4.32 -0.888 3.336 -0.372 Q 2.352 0.144 1.02 0.156 Z M 1.512 -5.256 L 1.512 -5.256 Q 1.512 -4.416 1.878 -3.894 Q 2.244 -3.372 2.988 -3.372 Q 3.516 -3.372 3.918 -3.69 Q 4.32 -4.008 4.32 -4.776 Q 4.32 -5.532 4.17 -6.108 Q 4.02 -6.684 3.69 -7.014 Q 3.36 -7.344 2.832 -7.344 Q 2.244 -7.344 1.878 -6.876 Q 1.512 -6.408 1.512 -5.256 Z " /></symbol><use href="#STIXTwoMathRegular_1146" x="23.76" y="-126.096" width="21.6" height="204.864" fill="white" /><symbol id="STIXTwoMathRegular_1202" viewBox="0 -31.524 7.896 51.216"><path d="M 7.896 -3.924 L 7.896 -3.924 L 0.744 -3.924 L 0.744 -4.74 L 7.896 -4.74 Z M 7.896 -1.476 L 7.896 -1.476 L 0.744 -1.476 L 0.744 -2.28 L 7.896 -2.28 Z " /></symbol><use href="#STIXTwoMathRegular_1202" x="65.293" y="-126.096" width="31.584" height="204.864" fill="white" /><symbol id="STIXTwoMathRegular_1141" viewBox="0 -31.524 5.772 51.216"><path d="M 5.772 -1.896 L 5.772 -1.896 L 4.548 -1.896 L 4.548 0 L 3.48 0 L 3.48 -1.896 L 0.156 -1.896 L 0.156 -2.652 L 3.816 -7.74 L 4.548 -7.74 L 4.548 -2.724 L 5.772 -2.724 Z M 3.48 -2.724 L 3.48 -2.724 L 3.48 -6.432 L 3.432 -6.432 L 0.816 -2.772 L 0.816 -2.724 Z " /></symbol><use href="#STIXTwoMathRegular_1141" x="128.603" y="-156.816" width="23.088" height="204.864" fill="white" /><symbol id="STIXTwoMathRegular_1054" viewBox="0 -31.524 2.412 51.216"><path d="M 1.476 -2.04 L 1.476 -2.04 L 1.104 -6.456 Q 1.092 -6.708 1.074 -6.9 Q 1.056 -7.092 1.056 -7.236 Q 1.056 -7.572 1.188 -7.8 Q 1.32 -8.028 1.692 -8.028 Q 2.04 -8.028 2.184 -7.8 Q 2.328 -7.572 2.328 -7.212 Q 2.328 -6.876 2.292 -6.456 L 1.896 -2.04 Z M 2.412 -0.588 L 2.412 -0.588 Q 2.412 -0.312 2.226 -0.108 Q 2.04 0.096 1.692 0.096 Q 1.344 0.096 1.164 -0.102 Q 0.984 -0.3 0.984 -0.6 Q 0.984 -0.9 1.17 -1.116 Q 1.356 -1.332 1.692 -1.332 Q 2.04 -1.332 2.226 -1.11 Q 2.412 -0.888 2.412 -0.588 Z " /></symbol><use href="#STIXTwoMathRegular_1054" x="159.472" y="-156.816" width="9.648" height="204.864" fill="white" /><use href="#STIXTwoMathRegular_1141" x="138.949" y="-95.376" width="23.088" height="204.864" fill="white" /><rect x="128.291" y="-14.016" width="44.453" height="3.264" fill="white" /><symbol id="STIXTwoMathRegular_1200" viewBox="0 -31.524 7.332 51.216"><path d="M 7.332 -0.264 L 7.332 -0.264 L 6.768 0.312 L 3.924 -2.52 L 1.092 0.312 L 0.528 -0.252 L 3.348 -3.096 L 0.528 -5.928 L 1.104 -6.492 L 3.924 -3.672 L 6.768 -6.492 L 7.332 -5.94 L 4.512 -3.096 Z " /></symbol><use href="#STIXTwoMathRegular_1200" x="190.517" y="-126.096" width="29.328" height="204.864" fill="white" /><use href="#STIXTwoMathRegular_1141" x="240.043" y="-160.032" width="23.088" height="204.864" fill="white" /><use href="#STIXTwoMathRegular_1054" x="270.912" y="-160.032" width="9.648" height="204.864" fill="white" /><use href="#STIXTwoMathRegular_1200" x="291.606" y="-160.032" width="29.328" height="204.864" fill="white" /><symbol id="STIXTwoMathRegular_6752" viewBox="0 -31.524 0 51.216" /><use href="#STIXTwoMathRegular_6752" x="330.155" y="-160.032" width="0" height="204.864" fill="white" /><symbol id="STIXTwoMathRegular_1052" viewBox="0 -31.524 2.196 51.216"><path d="M 2.196 -0.6 L 2.196 -0.6 Q 2.196 -0.324 2.004 -0.114 Q 1.812 0.096 1.452 0.096 Q 1.092 0.096 0.918 -0.108 Q 0.744 -0.312 0.744 -0.612 Q 0.744 -0.924 0.936 -1.146 Q 1.128 -1.368 1.464 -1.368 Q 1.812 -1.368 2.004 -1.14 Q 2.196 -0.912 2.196 -0.6 Z " /></symbol><use href="#STIXTwoMathRegular_1052" x="336.155" y="-160.032" width="8.784" height="204.864" fill="white" /><use href="#STIXTwoMathRegular_1141" x="347.915" y="-160.032" width="23.088" height="204.864" fill="white" /><use href="#STIXTwoMathRegular_6752" x="371.675" y="-160.032" width="0" height="204.864" fill="white" /><use href="#STIXTwoMathRegular_1200" x="384.784" y="-160.032" width="29.328" height="204.864" fill="white" /><use href="#STIXTwoMathRegular_6752" x="423.334" y="-160.032" width="0" height="204.864" fill="white" /><use href="#STIXTwoMathRegular_1052" x="429.334" y="-160.032" width="8.784" height="204.864" fill="white" /><use href="#STIXTwoMathRegular_1141" x="441.094" y="-160.032" width="23.088" height="204.864" fill="white" /><use href="#STIXTwoMathRegular_6752" x="464.854" y="-160.032" width="0" height="204.864" fill="white" /><symbol id="STIXTwoMathRegular_1197" viewBox="0 -31.524 7.896 51.216"><path d="M 7.896 -2.7 L 7.896 -2.7 L 0.744 -2.7 L 0.744 -3.516 L 7.896 -3.516 Z " /></symbol><use href="#STIXTwoMathRegular_1197" x="485.072" y="-160.032" width="31.584" height="204.864" fill="white" /><symbol id="STIXTwoMathRegular_1657" viewBox="0 -31.524 9.948 51.216"><path d="M 8.004 -11.064 L 8.004 -11.064 L 9.948 -11.064 L 9.948 -10.248 L 8.556 -10.248 L 4.956 3.18 L 4.452 3.18 L 1.656 -3.828 L 0.408 -3.348 L 0.216 -3.684 L 2.124 -5.004 L 2.364 -5.004 L 4.74 1.116 L 4.788 1.116 Z " /></symbol><use href="#STIXTwoMathRegular_1657" x="533.851" y="-160.032" width="39.792" height="204.864" fill="white" /><use href="#STIXTwoMathRegular_1141" x="571.963" y="-160.032" width="23.088" height="204.864" fill="white" /><rect x="571.963" y="-78.192" width="23.76" height="3.264" fill="white" /><use href="#STIXTwoMathRegular_6752" x="347.222" y="-95.376" width="0" height="204.864" fill="white" /><use href="#STIXTwoMathRegular_1052" x="353.222" y="-95.376" width="8.784" height="204.864" fill="white" /><use href="#STIXTwoMathRegular_1141" x="364.982" y="-95.376" width="23.088" height="204.864" fill="white" /><use href="#STIXTwoMathRegular_6752" x="388.742" y="-95.376" width="0" height="204.864" fill="white" /><use href="#STIXTwoMathRegular_1200" x="401.851" y="-95.376" width="29.328" height="204.864" fill="white" /><use href="#STIXTwoMathRegular_6752" x="440.4" y="-95.376" width="0" height="204.864" fill="white" /><use href="#STIXTwoMathRegular_1052" x="446.4" y="-95.376" width="8.784" height="204.864" fill="white" /><use href="#STIXTwoMathRegular_1141" x="458.16" y="-95.376" width="23.088" height="204.864" fill="white" /><use href="#STIXTwoMathRegular_6752" x="481.92" y="-95.376" width="0" height="204.864" fill="white" /><rect x="239.731" y="-14.016" width="355.68" height="3.264" fill="white" /><use href="#STIXTwoMathRegular_1202" x="623.848" y="-126.096" width="31.584" height="204.864" fill="white" /><use href="#STIXTwoMathRegular_1141" x="687.158" y="-156.816" width="23.088" height="204.864" fill="white" /><use href="#STIXTwoMathRegular_1054" x="718.027" y="-156.816" width="9.648" height="204.864" fill="white" /><symbol id="STIXTwoMathRegular_1196" viewBox="0 -31.524 7.896 51.216"><path d="M 7.896 -2.7 L 7.896 -2.7 L 4.752 -2.7 L 4.752 0.48 L 3.888 0.48 L 3.888 -2.7 L 0.744 -2.7 L 0.744 -3.516 L 3.888 -3.516 L 3.888 -6.696 L 4.752 -6.696 L 4.752 -3.516 L 7.896 -3.516 Z " /></symbol><use href="#STIXTwoMathRegular_1196" x="745.83" y="-156.816" width="31.584" height="204.864" fill="white" /><use href="#STIXTwoMathRegular_1141" x="794.608" y="-156.816" width="23.088" height="204.864" fill="white" /><use href="#STIXTwoMathRegular_1197" x="832.587" y="-156.816" width="31.584" height="204.864" fill="white" /><use href="#STIXTwoMathRegular_6752" x="881.366" y="-156.816" width="0" height="204.864" fill="white" /><use href="#STIXTwoMathRegular_1052" x="887.366" y="-156.816" width="8.784" height="204.864" fill="white" /><use href="#STIXTwoMathRegular_1141" x="899.126" y="-156.816" width="23.088" height="204.864" fill="white" /><use href="#STIXTwoMathRegular_6752" x="922.886" y="-156.816" width="0" height="204.864" fill="white" /><use href="#STIXTwoMathRegular_6752" x="783.95" y="-95.376" width="0" height="204.864" fill="white" /><use href="#STIXTwoMathRegular_1052" x="789.95" y="-95.376" width="8.784" height="204.864" fill="white" /><use href="#STIXTwoMathRegular_1141" x="801.71" y="-95.376" width="23.088" height="204.864" fill="white" /><use href="#STIXTwoMathRegular_6752" x="825.47" y="-95.376" width="0" height="204.864" fill="white" /><rect x="686.846" y="-14.016" width="241.728" height="3.264" fill="white" /></svg>