<svg xmlns="http://www.w3.org/2000/svg" width="274.825" height="126.92" viewBox="1.016 -75.184 274.825 126.92"><symbol id="STIXTwoMathRegular_1144" viewBox="0 -31.524 5.568 51.216"><path d="M 5.568 -7.188 L 5.568 -7.188 L 2.76 0.096 L 1.812 0.096 L 4.644 -6.588 L 1.968 -6.588 Q 1.632 -6.588 1.452 -6.528 Q 1.272 -6.468 1.158 -6.276 Q 1.044 -6.084 0.876 -5.688 L 0.504 -5.724 L 0.984 -7.56 L 5.568 -7.56 Z " /></symbol><use href="#STIXTwoMathRegular_1144" x="0" y="-126.096" width="22.272" height="204.864" fill="white" /><symbol id="STIXTwoMathRegular_1137" viewBox="0 -31.524 5.616 51.216"><path d="M 5.616 -3.804 L 5.616 -3.804 Q 5.616 -3.036 5.466 -2.328 Q 5.316 -1.62 4.998 -1.068 Q 4.68 -0.516 4.176 -0.192 Q 3.672 0.132 2.964 0.132 Q 2.244 0.132 1.74 -0.186 Q 1.236 -0.504 0.924 -1.056 Q 0.612 -1.608 0.468 -2.328 Q 0.324 -3.048 0.324 -3.84 Q 0.324 -4.98 0.63 -5.85 Q 0.936 -6.72 1.53 -7.212 Q 2.124 -7.704 2.988 -7.704 Q 3.768 -7.704 4.356 -7.242 Q 4.944 -6.78 5.28 -5.91 Q 5.616 -5.04 5.616 -3.804 Z M 4.452 -3.732 L 4.452 -3.732 Q 4.452 -5.556 4.074 -6.426 Q 3.696 -7.296 2.952 -7.296 Q 2.244 -7.296 1.86 -6.432 Q 1.476 -5.568 1.476 -3.78 Q 1.476 -2.04 1.86 -1.17 Q 2.244 -0.3 2.964 -0.3 Q 3.672 -0.3 4.062 -1.152 Q 4.452 -2.004 4.452 -3.732 Z " /></symbol><use href="#STIXTwoMathRegular_1137" x="23.76" y="-126.096" width="22.464" height="204.864" fill="white" /><symbol id="STIXTwoMathRegular_1145" viewBox="0 -31.524 5.376 51.216"><path d="M 5.376 -1.8 L 5.376 -1.8 Q 5.376 -0.852 4.698 -0.354 Q 4.02 0.144 2.952 0.144 Q 1.908 0.144 1.23 -0.324 Q 0.552 -0.792 0.552 -1.704 Q 0.552 -2.184 0.732 -2.514 Q 0.912 -2.844 1.278 -3.132 Q 1.644 -3.42 2.196 -3.792 L 2.196 -3.828 Q 1.584 -4.26 1.266 -4.59 Q 0.948 -4.92 0.828 -5.25 Q 0.708 -5.58 0.708 -5.988 Q 0.708 -6.54 1.002 -6.936 Q 1.296 -7.332 1.812 -7.548 Q 2.328 -7.764 2.988 -7.764 Q 3.588 -7.764 4.062 -7.548 Q 4.536 -7.332 4.812 -6.96 Q 5.088 -6.588 5.088 -6.108 Q 5.088 -5.676 4.932 -5.364 Q 4.776 -5.052 4.44 -4.794 Q 4.104 -4.536 3.54 -4.224 L 3.54 -4.188 Q 4.248 -3.768 4.644 -3.402 Q 5.04 -3.036 5.208 -2.658 Q 5.376 -2.28 5.376 -1.8 Z M 2.556 -3.6 L 2.556 -3.6 Q 2.04 -3.192 1.764 -2.808 Q 1.488 -2.424 1.488 -1.8 Q 1.488 -0.996 1.902 -0.612 Q 2.316 -0.228 3 -0.228 Q 3.564 -0.228 3.966 -0.534 Q 4.368 -0.84 4.368 -1.452 Q 4.368 -1.836 4.218 -2.148 Q 4.068 -2.46 3.678 -2.796 Q 3.288 -3.132 2.556 -3.6 Z M 4.2 -6.132 L 4.2 -6.132 Q 4.2 -6.732 3.87 -7.05 Q 3.54 -7.368 2.964 -7.368 Q 2.352 -7.368 1.998 -7.062 Q 1.644 -6.756 1.644 -6.204 Q 1.644 -5.676 2.004 -5.292 Q 2.364 -4.908 3.168 -4.416 Q 3.768 -4.776 3.984 -5.166 Q 4.2 -5.556 4.2 -6.132 Z " /></symbol><use href="#STIXTwoMathRegular_1145" x="47.52" y="-126.096" width="21.504" height="204.864" fill="white" /><symbol id="STIXTwoMathRegular_1202" viewBox="0 -31.524 7.896 51.216"><path d="M 7.896 -3.924 L 7.896 -3.924 L 0.744 -3.924 L 0.744 -4.74 L 7.896 -4.74 Z M 7.896 -1.476 L 7.896 -1.476 L 0.744 -1.476 L 0.744 -2.28 L 7.896 -2.28 Z " /></symbol><use href="#STIXTwoMathRegular_1202" x="89.053" y="-126.096" width="31.584" height="204.864" fill="white" /><symbol id="STIXTwoMathRegular_1647" viewBox="0 -31.524 12.564 51.216"><path d="M 12.564 0 L 12.564 0 L 11.616 4.872 L 0.18 4.872 L 0.18 4.56 L 6.312 -3.36 L 0.348 -10.656 L 0.348 -11.028 L 11.88 -11.028 L 12.048 -7.152 L 11.508 -7.152 Q 11.388 -8.184 11.148 -8.802 Q 10.908 -9.42 10.506 -9.738 Q 10.104 -10.056 9.492 -10.164 Q 8.88 -10.272 7.992 -10.272 L 2.688 -10.272 L 2.688 -10.212 L 7.668 -4.032 L 7.668 -3.792 L 2.196 3.336 L 2.196 3.408 L 9.048 3.408 Q 9.732 3.408 10.182 3.198 Q 10.632 2.988 10.944 2.568 Q 11.256 2.148 11.49 1.506 Q 11.724 0.864 11.976 0 Z " /></symbol><use href="#STIXTwoMathRegular_1647" x="154.955" y="-126.096" width="50.256" height="204.864" fill="white" /><symbol id="STIXTwoMathRegular_1141" viewBox="0 -31.524 5.772 51.216"><path d="M 5.772 -1.896 L 5.772 -1.896 L 4.548 -1.896 L 4.548 0 L 3.48 0 L 3.48 -1.896 L 0.156 -1.896 L 0.156 -2.652 L 3.816 -7.74 L 4.548 -7.74 L 4.548 -2.724 L 5.772 -2.724 Z M 3.48 -2.724 L 3.48 -2.724 L 3.48 -6.432 L 3.432 -6.432 L 0.816 -2.772 L 0.816 -2.724 Z " /></symbol><use href="#STIXTwoMathRegular_1141" x="176.952" y="-140.779" width="16.162" height="143.405" fill="white" /><symbol id="STIXTwoMathRegular_4450" viewBox="0 -31.524 7.224 51.216"><path d="M 4.236 -3.852 L 4.236 -3.852 L 4.86 -4.956 Q 5.148 -5.436 5.556 -5.82 Q 5.964 -6.204 6.552 -6.204 Q 6.936 -6.204 7.08 -6.054 Q 7.224 -5.904 7.224 -5.628 Q 7.224 -5.388 7.044 -5.184 Q 6.864 -4.98 6.612 -4.98 Q 6.492 -4.98 6.258 -5.052 Q 6.024 -5.124 5.928 -5.124 Q 5.664 -5.124 5.514 -4.986 Q 5.364 -4.848 5.208 -4.608 L 4.404 -3.3 L 4.704 -2.412 Q 4.98 -1.5 5.208 -1.158 Q 5.436 -0.816 5.724 -0.816 Q 5.964 -0.816 6.162 -1.014 Q 6.36 -1.212 6.636 -1.56 L 6.948 -1.32 Q 6.768 -1.044 6.528 -0.702 Q 6.288 -0.36 5.946 -0.12 Q 5.604 0.12 5.136 0.12 Q 4.62 0.12 4.368 -0.246 Q 4.116 -0.612 3.948 -1.308 L 3.684 -2.484 L 3.624 -2.484 L 2.772 -1.14 Q 2.448 -0.648 2.082 -0.264 Q 1.716 0.12 1.14 0.12 Q 0.708 0.12 0.534 -0.09 Q 0.36 -0.3 0.36 -0.528 Q 0.36 -0.732 0.504 -0.924 Q 0.648 -1.116 0.852 -1.116 Q 1.056 -1.116 1.32 -1.038 Q 1.584 -0.96 1.704 -0.96 Q 1.704 -0.96 1.704 -0.96 Q 1.74 -0.96 1.83 -0.99 Q 1.92 -1.02 2.076 -1.17 Q 2.232 -1.32 2.496 -1.68 L 3.432 -2.988 L 3.06 -4.176 Q 2.88 -4.728 2.7 -5.034 Q 2.52 -5.34 2.262 -5.46 Q 2.004 -5.58 1.596 -5.568 Q 1.464 -5.568 1.368 -5.562 Q 1.272 -5.556 1.272 -5.556 L 1.272 -6.012 L 3.12 -6.156 L 3.396 -6.156 Q 3.588 -5.844 3.75 -5.394 Q 3.912 -4.944 3.996 -4.62 L 4.164 -3.852 Z " /></symbol><use href="#STIXTwoMathRegular_4450" x="141.387" y="-37.867" width="20.227" height="143.405" fill="white" /><symbol id="STIXTwoMathRegular_4285" viewBox="0 -31.524 8.376 51.216"><path d="M 8.376 -1.26 L 8.376 -1.26 L 0.888 -1.26 L 0.888 -2.196 L 8.376 -2.196 Z M 8.376 -4.188 L 8.376 -4.188 L 0.888 -4.188 L 0.888 -5.124 L 8.376 -5.124 Z " /></symbol><use href="#STIXTwoMathRegular_4285" x="162.723" y="-37.867" width="23.453" height="143.405" fill="white" /><symbol id="STIXTwoMathRegular_4284" viewBox="0 -31.524 8.376 51.216"><path d="M 8.376 -2.724 L 8.376 -2.724 L 0.888 -2.724 L 0.888 -3.66 L 8.376 -3.66 Z " /></symbol><use href="#STIXTwoMathRegular_4284" x="186.176" y="-37.867" width="23.453" height="143.405" fill="white" /><symbol id="STIXTwoMathRegular_4277" viewBox="0 -31.524 6.444 51.216"><path d="M 6.444 -1.896 L 6.444 -1.896 L 5.136 -1.896 L 5.136 0 L 3.948 0 L 3.948 -1.896 L 0.42 -1.896 L 0.42 -2.808 L 4.272 -8.04 L 5.136 -8.04 L 5.136 -2.88 L 6.444 -2.88 Z M 3.948 -2.88 L 3.948 -2.88 L 3.948 -6.588 L 3.876 -6.588 L 1.236 -2.952 L 1.236 -2.88 Z " /></symbol><use href="#STIXTwoMathRegular_4277" x="209.628" y="-37.867" width="18.043" height="143.405" fill="white" /><symbol id="STIXTwoMathRegular_3354" viewBox="0 -31.524 6.48 51.216"><path d="M 3.78 -3.576 L 3.78 -3.576 L 4.368 -4.584 Q 4.608 -5.016 4.98 -5.382 Q 5.352 -5.748 5.88 -5.748 Q 6.228 -5.748 6.354 -5.61 Q 6.48 -5.472 6.48 -5.22 Q 6.48 -5.004 6.324 -4.83 Q 6.168 -4.656 5.928 -4.656 Q 5.784 -4.656 5.604 -4.716 Q 5.424 -4.776 5.304 -4.776 Q 5.1 -4.776 4.956 -4.65 Q 4.812 -4.524 4.656 -4.272 L 3.924 -3.108 L 4.176 -2.292 Q 4.428 -1.464 4.638 -1.104 Q 4.848 -0.744 5.124 -0.744 Q 5.364 -0.744 5.556 -0.918 Q 5.748 -1.092 5.988 -1.416 L 6.24 -1.224 Q 6.072 -0.96 5.838 -0.648 Q 5.604 -0.336 5.292 -0.108 Q 4.98 0.12 4.572 0.12 Q 4.164 0.12 3.942 -0.204 Q 3.72 -0.528 3.588 -1.116 L 3.288 -2.328 L 3.24 -2.328 L 2.472 -1.08 Q 2.184 -0.612 1.848 -0.252 Q 1.512 0.108 0.972 0.108 Q 0.588 0.108 0.432 -0.072 Q 0.276 -0.252 0.276 -0.48 Q 0.276 -0.66 0.402 -0.822 Q 0.528 -0.984 0.744 -0.984 Q 0.948 -0.984 1.146 -0.906 Q 1.344 -0.828 1.5 -0.828 Q 1.524 -0.828 1.608 -0.858 Q 1.692 -0.888 1.848 -1.032 Q 2.004 -1.176 2.232 -1.512 L 3.096 -2.772 L 2.76 -3.864 Q 2.604 -4.368 2.448 -4.656 Q 2.292 -4.944 2.064 -5.07 Q 1.836 -5.196 1.44 -5.184 Q 1.296 -5.184 1.182 -5.166 Q 1.068 -5.148 1.068 -5.148 L 1.068 -5.508 L 2.736 -5.7 L 2.916 -5.7 Q 3.132 -5.448 3.306 -5.064 Q 3.48 -4.68 3.6 -4.188 L 3.744 -3.576 Z " /></symbol><use href="#STIXTwoMathRegular_3354" x="228.579" y="-126.096" width="25.92" height="204.864" fill="white" /><use href="#STIXTwoMathRegular_4277" x="255.891" y="-105.547" width="18.043" height="143.405" fill="white" /></svg>