<svg xmlns="http://www.w3.org/2000/svg" width="1160.31" height="133.616" viewBox="1.016 -79.192 1160.31 133.616"><symbol id="STIXTwoMathRegular_1144" viewBox="0 -31.524 5.568 51.216"><path d="M 5.568 -7.188 L 5.568 -7.188 L 2.76 0.096 L 1.812 0.096 L 4.644 -6.588 L 1.968 -6.588 Q 1.632 -6.588 1.452 -6.528 Q 1.272 -6.468 1.158 -6.276 Q 1.044 -6.084 0.876 -5.688 L 0.504 -5.724 L 0.984 -7.56 L 5.568 -7.56 Z " /></symbol><use href="#STIXTwoMathRegular_1144" x="0" y="-126.096" width="22.272" height="204.864" fill="white" /><symbol id="STIXTwoMathRegular_1139" viewBox="0 -31.524 5.568 51.216"><path d="M 5.568 -1.92 L 5.568 -1.92 L 5.184 0 L 0.456 0 L 0.456 -0.408 L 2.28 -2.232 Q 2.88 -2.844 3.276 -3.342 Q 3.672 -3.84 3.87 -4.344 Q 4.068 -4.848 4.068 -5.472 Q 4.068 -6.144 3.666 -6.546 Q 3.264 -6.948 2.568 -6.948 Q 1.98 -6.948 1.566 -6.696 Q 1.152 -6.444 0.816 -5.772 L 0.528 -5.892 Q 0.804 -6.768 1.404 -7.248 Q 2.004 -7.728 2.88 -7.728 Q 3.564 -7.728 4.08 -7.47 Q 4.596 -7.212 4.89 -6.75 Q 5.184 -6.288 5.184 -5.652 Q 5.184 -5.124 4.962 -4.638 Q 4.74 -4.152 4.302 -3.636 Q 3.864 -3.12 3.228 -2.472 L 1.644 -0.972 L 1.644 -0.912 L 2.484 -0.948 L 4.152 -0.948 Q 4.632 -0.948 4.824 -1.164 Q 5.016 -1.38 5.22 -1.92 Z " /></symbol><use href="#STIXTwoMathRegular_1139" x="23.76" y="-126.096" width="22.272" height="204.864" fill="white" /><symbol id="STIXTwoMathRegular_1202" viewBox="0 -31.524 7.896 51.216"><path d="M 7.896 -3.924 L 7.896 -3.924 L 0.744 -3.924 L 0.744 -4.74 L 7.896 -4.74 Z M 7.896 -1.476 L 7.896 -1.476 L 0.744 -1.476 L 0.744 -2.28 L 7.896 -2.28 Z " /></symbol><use href="#STIXTwoMathRegular_1202" x="65.293" y="-126.096" width="31.584" height="204.864" fill="white" /><symbol id="STIXTwoMathRegular_1141" viewBox="0 -31.524 5.772 51.216"><path d="M 5.772 -1.896 L 5.772 -1.896 L 4.548 -1.896 L 4.548 0 L 3.48 0 L 3.48 -1.896 L 0.156 -1.896 L 0.156 -2.652 L 3.816 -7.74 L 4.548 -7.74 L 4.548 -2.724 L 5.772 -2.724 Z M 3.48 -2.724 L 3.48 -2.724 L 3.48 -6.432 L 3.432 -6.432 L 0.816 -2.772 L 0.816 -2.724 Z " /></symbol><use href="#STIXTwoMathRegular_1141" x="128.603" y="-160.032" width="23.088" height="204.864" fill="white" /><symbol id="STIXTwoMathRegular_1657" viewBox="0 -31.524 9.948 51.216"><path d="M 8.004 -11.064 L 8.004 -11.064 L 9.948 -11.064 L 9.948 -10.248 L 8.556 -10.248 L 4.956 3.18 L 4.452 3.18 L 1.656 -3.828 L 0.408 -3.348 L 0.216 -3.684 L 2.124 -5.004 L 2.364 -5.004 L 4.74 1.116 L 4.788 1.116 Z " /></symbol><use href="#STIXTwoMathRegular_1657" x="152.363" y="-160.032" width="39.792" height="204.864" fill="white" /><use href="#STIXTwoMathRegular_1141" x="190.475" y="-160.032" width="23.088" height="204.864" fill="white" /><rect x="190.475" y="-78.192" width="23.76" height="3.264" fill="white" /><symbol id="STIXTwoMathRegular_1064" viewBox="0 -31.524 3.924 51.216"><path d="M 0.54 -3.24 L 0.54 -3.24 Q 0.54 -5.244 1.41 -6.66 Q 2.28 -8.076 3.732 -8.832 L 3.924 -8.52 Q 2.616 -7.632 2.07 -6.354 Q 1.524 -5.076 1.524 -3.24 Q 1.524 -1.404 2.07 -0.126 Q 2.616 1.152 3.924 2.04 L 3.732 2.352 Q 2.28 1.596 1.41 0.18 Q 0.54 -1.236 0.54 -3.24 Z " /></symbol><use href="#STIXTwoMathRegular_1064" x="214.235" y="-160.032" width="15.696" height="204.864" fill="white" /><use href="#STIXTwoMathRegular_1141" x="231.371" y="-160.032" width="23.088" height="204.864" fill="white" /><symbol id="STIXTwoMathRegular_1197" viewBox="0 -31.524 7.896 51.216"><path d="M 7.896 -2.7 L 7.896 -2.7 L 0.744 -2.7 L 0.744 -3.516 L 7.896 -3.516 Z " /></symbol><use href="#STIXTwoMathRegular_1197" x="269.349" y="-160.032" width="31.584" height="204.864" fill="white" /><symbol id="STIXTwoMathRegular_6752" viewBox="0 -31.524 0 51.216" /><use href="#STIXTwoMathRegular_6752" x="318.128" y="-160.032" width="0" height="204.864" fill="white" /><symbol id="STIXTwoMathRegular_1052" viewBox="0 -31.524 2.196 51.216"><path d="M 2.196 -0.6 L 2.196 -0.6 Q 2.196 -0.324 2.004 -0.114 Q 1.812 0.096 1.452 0.096 Q 1.092 0.096 0.918 -0.108 Q 0.744 -0.312 0.744 -0.612 Q 0.744 -0.924 0.936 -1.146 Q 1.128 -1.368 1.464 -1.368 Q 1.812 -1.368 2.004 -1.14 Q 2.196 -0.912 2.196 -0.6 Z " /></symbol><use href="#STIXTwoMathRegular_1052" x="324.128" y="-160.032" width="8.784" height="204.864" fill="white" /><use href="#STIXTwoMathRegular_1141" x="335.888" y="-160.032" width="23.088" height="204.864" fill="white" /><use href="#STIXTwoMathRegular_6752" x="359.648" y="-160.032" width="0" height="204.864" fill="white" /><symbol id="STIXTwoMathRegular_1065" viewBox="0 -31.524 3.744 51.216"><path d="M 3.744 -3.24 L 3.744 -3.24 Q 3.744 -1.236 2.874 0.18 Q 2.004 1.596 0.552 2.352 L 0.36 2.04 Q 1.68 1.152 2.22 -0.126 Q 2.76 -1.404 2.76 -3.24 Q 2.76 -5.076 2.22 -6.354 Q 1.68 -7.632 0.36 -8.52 L 0.552 -8.832 Q 2.004 -8.076 2.874 -6.66 Q 3.744 -5.244 3.744 -3.24 Z " /></symbol><use href="#STIXTwoMathRegular_1065" x="365.648" y="-160.032" width="14.976" height="204.864" fill="white" /><use href="#STIXTwoMathRegular_6752" x="231.621" y="-95.376" width="0" height="204.864" fill="white" /><use href="#STIXTwoMathRegular_1052" x="237.621" y="-95.376" width="8.784" height="204.864" fill="white" /><use href="#STIXTwoMathRegular_1141" x="249.381" y="-95.376" width="23.088" height="204.864" fill="white" /><use href="#STIXTwoMathRegular_6752" x="273.141" y="-95.376" width="0" height="204.864" fill="white" /><rect x="128.291" y="-14.016" width="254.181" height="3.264" fill="white" /><use href="#STIXTwoMathRegular_1202" x="410.91" y="-126.096" width="31.584" height="204.864" fill="white" /><use href="#STIXTwoMathRegular_1141" x="474.219" y="-156.816" width="23.088" height="204.864" fill="white" /><symbol id="STIXTwoMathRegular_1054" viewBox="0 -31.524 2.412 51.216"><path d="M 1.476 -2.04 L 1.476 -2.04 L 1.104 -6.456 Q 1.092 -6.708 1.074 -6.9 Q 1.056 -7.092 1.056 -7.236 Q 1.056 -7.572 1.188 -7.8 Q 1.32 -8.028 1.692 -8.028 Q 2.04 -8.028 2.184 -7.8 Q 2.328 -7.572 2.328 -7.212 Q 2.328 -6.876 2.292 -6.456 L 1.896 -2.04 Z M 2.412 -0.588 L 2.412 -0.588 Q 2.412 -0.312 2.226 -0.108 Q 2.04 0.096 1.692 0.096 Q 1.344 0.096 1.164 -0.102 Q 0.984 -0.3 0.984 -0.6 Q 0.984 -0.9 1.17 -1.116 Q 1.356 -1.332 1.692 -1.332 Q 2.04 -1.332 2.226 -1.11 Q 2.412 -0.888 2.412 -0.588 Z " /></symbol><use href="#STIXTwoMathRegular_1054" x="505.088" y="-156.816" width="9.648" height="204.864" fill="white" /><symbol id="STIXTwoMathRegular_1200" viewBox="0 -31.524 7.332 51.216"><path d="M 7.332 -0.264 L 7.332 -0.264 L 6.768 0.312 L 3.924 -2.52 L 1.092 0.312 L 0.528 -0.252 L 3.348 -3.096 L 0.528 -5.928 L 1.104 -6.492 L 3.924 -3.672 L 6.768 -6.492 L 7.332 -5.94 L 4.512 -3.096 Z " /></symbol><use href="#STIXTwoMathRegular_1200" x="525.782" y="-156.816" width="29.328" height="204.864" fill="white" /><use href="#STIXTwoMathRegular_1141" x="564.331" y="-156.816" width="23.088" height="204.864" fill="white" /><use href="#STIXTwoMathRegular_1054" x="595.2" y="-156.816" width="9.648" height="204.864" fill="white" /><use href="#STIXTwoMathRegular_1141" x="498.686" y="-85.392" width="23.088" height="204.864" fill="white" /><use href="#STIXTwoMathRegular_1657" x="522.446" y="-85.392" width="39.792" height="204.864" fill="white" /><use href="#STIXTwoMathRegular_1141" x="560.558" y="-85.392" width="23.088" height="204.864" fill="white" /><rect x="560.558" y="-3.552" width="23.76" height="3.264" fill="white" /><rect x="473.907" y="-14.016" width="134.565" height="3.264" fill="white" /><use href="#STIXTwoMathRegular_1202" x="636.91" y="-126.096" width="31.584" height="204.864" fill="white" /><use href="#STIXTwoMathRegular_1141" x="689.243" y="-126.096" width="23.088" height="204.864" fill="white" /><use href="#STIXTwoMathRegular_1054" x="720.112" y="-126.096" width="9.648" height="204.864" fill="white" /><use href="#STIXTwoMathRegular_1200" x="740.806" y="-126.096" width="29.328" height="204.864" fill="white" /><use href="#STIXTwoMathRegular_1197" x="793.574" y="-126.096" width="31.584" height="204.864" fill="white" /><use href="#STIXTwoMathRegular_1141" x="842.353" y="-126.096" width="23.088" height="204.864" fill="white" /><use href="#STIXTwoMathRegular_1054" x="873.222" y="-126.096" width="9.648" height="204.864" fill="white" /><use href="#STIXTwoMathRegular_1202" x="904.579" y="-126.096" width="31.584" height="204.864" fill="white" /><use href="#STIXTwoMathRegular_1141" x="967.889" y="-156.816" width="23.088" height="204.864" fill="white" /><use href="#STIXTwoMathRegular_1054" x="998.758" y="-156.816" width="9.648" height="204.864" fill="white" /><use href="#STIXTwoMathRegular_1141" x="978.235" y="-95.376" width="23.088" height="204.864" fill="white" /><rect x="967.577" y="-14.016" width="44.453" height="3.264" fill="white" /><use href="#STIXTwoMathRegular_1054" x="1029.803" y="-126.096" width="9.648" height="204.864" fill="white" /><use href="#STIXTwoMathRegular_1200" x="1050.497" y="-126.096" width="29.328" height="204.864" fill="white" /><use href="#STIXTwoMathRegular_6752" x="1089.046" y="-126.096" width="0" height="204.864" fill="white" /><use href="#STIXTwoMathRegular_1052" x="1095.046" y="-126.096" width="8.784" height="204.864" fill="white" /><use href="#STIXTwoMathRegular_1141" x="1106.806" y="-126.096" width="23.088" height="204.864" fill="white" /><use href="#STIXTwoMathRegular_6752" x="1130.566" y="-126.096" width="0" height="204.864" fill="white" /><use href="#STIXTwoMathRegular_1141" x="1136.566" y="-126.096" width="23.088" height="204.864" fill="white" /></svg>