<svg xmlns="http://www.w3.org/2000/svg" width="341.509" height="118.256" viewBox="1.016 -63.832 341.509 118.256"><symbol id="STIXTwoMathRegular_1144" viewBox="0 -31.524 5.568 51.216"><path d="M 5.568 -7.188 L 5.568 -7.188 L 2.76 0.096 L 1.812 0.096 L 4.644 -6.588 L 1.968 -6.588 Q 1.632 -6.588 1.452 -6.528 Q 1.272 -6.468 1.158 -6.276 Q 1.044 -6.084 0.876 -5.688 L 0.504 -5.724 L 0.984 -7.56 L 5.568 -7.56 Z " /></symbol><use href="#STIXTwoMathRegular_1144" x="0" y="-126.096" width="22.272" height="204.864" fill="white" /><symbol id="STIXTwoMathRegular_1142" viewBox="0 -31.524 5.316 51.216"><path d="M 5.004 -6.588 L 5.004 -6.588 L 2.184 -6.588 L 1.86 -5.22 L 2.424 -5.184 Q 2.952 -5.148 3.468 -5.004 Q 3.984 -4.86 4.404 -4.572 Q 4.824 -4.284 5.07 -3.81 Q 5.316 -3.336 5.316 -2.628 Q 5.316 -1.704 4.908 -1.086 Q 4.5 -0.468 3.774 -0.156 Q 3.048 0.156 2.088 0.156 Q 0.708 0.156 0.708 -0.516 Q 0.708 -0.72 0.834 -0.876 Q 0.96 -1.032 1.188 -1.032 Q 1.428 -1.032 1.662 -0.888 Q 1.896 -0.744 2.172 -0.594 Q 2.448 -0.444 2.832 -0.444 Q 3.264 -0.444 3.63 -0.612 Q 3.996 -0.78 4.218 -1.152 Q 4.44 -1.524 4.44 -2.148 Q 4.44 -3.276 3.768 -3.72 Q 3.096 -4.164 1.848 -4.224 Q 1.62 -4.248 1.53 -4.248 Q 1.44 -4.248 1.308 -4.248 L 1.164 -4.428 L 1.908 -7.56 L 5.196 -7.56 Z " /></symbol><use href="#STIXTwoMathRegular_1142" x="23.76" y="-126.096" width="21.264" height="204.864" fill="white" /><symbol id="STIXTwoMathRegular_1202" viewBox="0 -31.524 7.896 51.216"><path d="M 7.896 -3.924 L 7.896 -3.924 L 0.744 -3.924 L 0.744 -4.74 L 7.896 -4.74 Z M 7.896 -1.476 L 7.896 -1.476 L 0.744 -1.476 L 0.744 -2.28 L 7.896 -2.28 Z " /></symbol><use href="#STIXTwoMathRegular_1202" x="65.293" y="-126.096" width="31.584" height="204.864" fill="white" /><symbol id="STIXTwoMathRegular_1141" viewBox="0 -31.524 5.772 51.216"><path d="M 5.772 -1.896 L 5.772 -1.896 L 4.548 -1.896 L 4.548 0 L 3.48 0 L 3.48 -1.896 L 0.156 -1.896 L 0.156 -2.652 L 3.816 -7.74 L 4.548 -7.74 L 4.548 -2.724 L 5.772 -2.724 Z M 3.48 -2.724 L 3.48 -2.724 L 3.48 -6.432 L 3.432 -6.432 L 0.816 -2.772 L 0.816 -2.724 Z " /></symbol><use href="#STIXTwoMathRegular_1141" x="207.661" y="-156.816" width="23.088" height="204.864" fill="white" /><symbol id="STIXTwoMathRegular_1054" viewBox="0 -31.524 2.412 51.216"><path d="M 1.476 -2.04 L 1.476 -2.04 L 1.104 -6.456 Q 1.092 -6.708 1.074 -6.9 Q 1.056 -7.092 1.056 -7.236 Q 1.056 -7.572 1.188 -7.8 Q 1.32 -8.028 1.692 -8.028 Q 2.04 -8.028 2.184 -7.8 Q 2.328 -7.572 2.328 -7.212 Q 2.328 -6.876 2.292 -6.456 L 1.896 -2.04 Z M 2.412 -0.588 L 2.412 -0.588 Q 2.412 -0.312 2.226 -0.108 Q 2.04 0.096 1.692 0.096 Q 1.344 0.096 1.164 -0.102 Q 0.984 -0.3 0.984 -0.6 Q 0.984 -0.9 1.17 -1.116 Q 1.356 -1.332 1.692 -1.332 Q 2.04 -1.332 2.226 -1.11 Q 2.412 -0.888 2.412 -0.588 Z " /></symbol><use href="#STIXTwoMathRegular_1054" x="238.531" y="-156.816" width="9.648" height="204.864" fill="white" /><symbol id="STIXTwoMathRegular_6752" viewBox="0 -31.524 0 51.216" /><use href="#STIXTwoMathRegular_6752" x="128.291" y="-85.392" width="0" height="204.864" fill="white" /><symbol id="STIXTwoMathRegular_1052" viewBox="0 -31.524 2.196 51.216"><path d="M 2.196 -0.6 L 2.196 -0.6 Q 2.196 -0.324 2.004 -0.114 Q 1.812 0.096 1.452 0.096 Q 1.092 0.096 0.918 -0.108 Q 0.744 -0.312 0.744 -0.612 Q 0.744 -0.924 0.936 -1.146 Q 1.128 -1.368 1.464 -1.368 Q 1.812 -1.368 2.004 -1.14 Q 2.196 -0.912 2.196 -0.6 Z " /></symbol><use href="#STIXTwoMathRegular_1052" x="134.291" y="-85.392" width="8.784" height="204.864" fill="white" /><use href="#STIXTwoMathRegular_1141" x="146.051" y="-85.392" width="23.088" height="204.864" fill="white" /><use href="#STIXTwoMathRegular_6752" x="169.811" y="-85.392" width="0" height="204.864" fill="white" /><symbol id="STIXTwoMathRegular_1200" viewBox="0 -31.524 7.332 51.216"><path d="M 7.332 -0.264 L 7.332 -0.264 L 6.768 0.312 L 3.924 -2.52 L 1.092 0.312 L 0.528 -0.252 L 3.348 -3.096 L 0.528 -5.928 L 1.104 -6.492 L 3.924 -3.672 L 6.768 -6.492 L 7.332 -5.94 L 4.512 -3.096 Z " /></symbol><use href="#STIXTwoMathRegular_1200" x="182.92" y="-85.392" width="29.328" height="204.864" fill="white" /><use href="#STIXTwoMathRegular_6752" x="221.469" y="-85.392" width="0" height="204.864" fill="white" /><use href="#STIXTwoMathRegular_1052" x="227.469" y="-85.392" width="8.784" height="204.864" fill="white" /><use href="#STIXTwoMathRegular_1141" x="239.229" y="-85.392" width="23.088" height="204.864" fill="white" /><use href="#STIXTwoMathRegular_6752" x="262.989" y="-85.392" width="0" height="204.864" fill="white" /><symbol id="STIXTwoMathRegular_1657" viewBox="0 -31.524 9.948 51.216"><path d="M 8.004 -11.064 L 8.004 -11.064 L 9.948 -11.064 L 9.948 -10.248 L 8.556 -10.248 L 4.956 3.18 L 4.452 3.18 L 1.656 -3.828 L 0.408 -3.348 L 0.216 -3.684 L 2.124 -5.004 L 2.364 -5.004 L 4.74 1.116 L 4.788 1.116 Z " /></symbol><use href="#STIXTwoMathRegular_1657" x="268.989" y="-85.392" width="39.792" height="204.864" fill="white" /><use href="#STIXTwoMathRegular_1141" x="307.101" y="-85.392" width="23.088" height="204.864" fill="white" /><rect x="307.101" y="-3.552" width="23.76" height="3.264" fill="white" /><rect x="128.291" y="-14.016" width="202.571" height="3.264" fill="white" /></svg>