<svg xmlns="http://www.w3.org/2000/svg" width="397.6" height="95.648" viewBox="1.016 -62.68 397.6 95.648"><symbol id="STIXTwoMathRegular_1144" viewBox="0 -31.524 5.568 51.216"><path d="M 5.568 -7.188 L 5.568 -7.188 L 2.76 0.096 L 1.812 0.096 L 4.644 -6.588 L 1.968 -6.588 Q 1.632 -6.588 1.452 -6.528 Q 1.272 -6.468 1.158 -6.276 Q 1.044 -6.084 0.876 -5.688 L 0.504 -5.724 L 0.984 -7.56 L 5.568 -7.56 Z " /></symbol><use href="#STIXTwoMathRegular_1144" x="0" y="-126.096" width="22.272" height="204.864" fill="white" /><use href="#STIXTwoMathRegular_1144" x="23.76" y="-126.096" width="22.272" height="204.864" fill="white" /><symbol id="STIXTwoMathRegular_1202" viewBox="0 -31.524 7.896 51.216"><path d="M 7.896 -3.924 L 7.896 -3.924 L 0.744 -3.924 L 0.744 -4.74 L 7.896 -4.74 Z M 7.896 -1.476 L 7.896 -1.476 L 0.744 -1.476 L 0.744 -2.28 L 7.896 -2.28 Z " /></symbol><use href="#STIXTwoMathRegular_1202" x="65.293" y="-126.096" width="31.584" height="204.864" fill="white" /><symbol id="STIXTwoMathRegular_1141" viewBox="0 -31.524 5.772 51.216"><path d="M 5.772 -1.896 L 5.772 -1.896 L 4.548 -1.896 L 4.548 0 L 3.48 0 L 3.48 -1.896 L 0.156 -1.896 L 0.156 -2.652 L 3.816 -7.74 L 4.548 -7.74 L 4.548 -2.724 L 5.772 -2.724 Z M 3.48 -2.724 L 3.48 -2.724 L 3.48 -6.432 L 3.432 -6.432 L 0.816 -2.772 L 0.816 -2.724 Z " /></symbol><use href="#STIXTwoMathRegular_1141" x="151.432" y="-156.816" width="23.088" height="204.864" fill="white" /><use href="#STIXTwoMathRegular_1141" x="175.192" y="-156.816" width="23.088" height="204.864" fill="white" /><use href="#STIXTwoMathRegular_1141" x="128.603" y="-95.376" width="23.088" height="204.864" fill="white" /><symbol id="STIXTwoMathRegular_1200" viewBox="0 -31.524 7.332 51.216"><path d="M 7.332 -0.264 L 7.332 -0.264 L 6.768 0.312 L 3.924 -2.52 L 1.092 0.312 L 0.528 -0.252 L 3.348 -3.096 L 0.528 -5.928 L 1.104 -6.492 L 3.924 -3.672 L 6.768 -6.492 L 7.332 -5.94 L 4.512 -3.096 Z " /></symbol><use href="#STIXTwoMathRegular_1200" x="159.472" y="-95.376" width="29.328" height="204.864" fill="white" /><use href="#STIXTwoMathRegular_1141" x="198.021" y="-95.376" width="23.088" height="204.864" fill="white" /><rect x="128.291" y="-14.016" width="93.179" height="3.264" fill="white" /><symbol id="STIXTwoMathRegular_1064" viewBox="0 -31.524 3.924 51.216"><path d="M 0.54 -3.24 L 0.54 -3.24 Q 0.54 -5.244 1.41 -6.66 Q 2.28 -8.076 3.732 -8.832 L 3.924 -8.52 Q 2.616 -7.632 2.07 -6.354 Q 1.524 -5.076 1.524 -3.24 Q 1.524 -1.404 2.07 -0.126 Q 2.616 1.152 3.924 2.04 L 3.732 2.352 Q 2.28 1.596 1.41 0.18 Q 0.54 -1.236 0.54 -3.24 Z " /></symbol><use href="#STIXTwoMathRegular_1064" x="232.133" y="-126.096" width="15.696" height="204.864" fill="white" /><use href="#STIXTwoMathRegular_1141" x="249.269" y="-126.096" width="23.088" height="204.864" fill="white" /><symbol id="STIXTwoMathRegular_1054" viewBox="0 -31.524 2.412 51.216"><path d="M 1.476 -2.04 L 1.476 -2.04 L 1.104 -6.456 Q 1.092 -6.708 1.074 -6.9 Q 1.056 -7.092 1.056 -7.236 Q 1.056 -7.572 1.188 -7.8 Q 1.32 -8.028 1.692 -8.028 Q 2.04 -8.028 2.184 -7.8 Q 2.328 -7.572 2.328 -7.212 Q 2.328 -6.876 2.292 -6.456 L 1.896 -2.04 Z M 2.412 -0.588 L 2.412 -0.588 Q 2.412 -0.312 2.226 -0.108 Q 2.04 0.096 1.692 0.096 Q 1.344 0.096 1.164 -0.102 Q 0.984 -0.3 0.984 -0.6 Q 0.984 -0.9 1.17 -1.116 Q 1.356 -1.332 1.692 -1.332 Q 2.04 -1.332 2.226 -1.11 Q 2.412 -0.888 2.412 -0.588 Z " /></symbol><use href="#STIXTwoMathRegular_1054" x="280.139" y="-126.096" width="9.648" height="204.864" fill="white" /><symbol id="STIXTwoMathRegular_1196" viewBox="0 -31.524 7.896 51.216"><path d="M 7.896 -2.7 L 7.896 -2.7 L 4.752 -2.7 L 4.752 0.48 L 3.888 0.48 L 3.888 -2.7 L 0.744 -2.7 L 0.744 -3.516 L 3.888 -3.516 L 3.888 -6.696 L 4.752 -6.696 L 4.752 -3.516 L 7.896 -3.516 Z " /></symbol><use href="#STIXTwoMathRegular_1196" x="307.942" y="-126.096" width="31.584" height="204.864" fill="white" /><use href="#STIXTwoMathRegular_1141" x="356.72" y="-126.096" width="23.088" height="204.864" fill="white" /><symbol id="STIXTwoMathRegular_1065" viewBox="0 -31.524 3.744 51.216"><path d="M 3.744 -3.24 L 3.744 -3.24 Q 3.744 -1.236 2.874 0.18 Q 2.004 1.596 0.552 2.352 L 0.36 2.04 Q 1.68 1.152 2.22 -0.126 Q 2.76 -1.404 2.76 -3.24 Q 2.76 -5.076 2.22 -6.354 Q 1.68 -7.632 0.36 -8.52 L 0.552 -8.832 Q 2.004 -8.076 2.874 -6.66 Q 3.744 -5.244 3.744 -3.24 Z " /></symbol><use href="#STIXTwoMathRegular_1065" x="380.48" y="-126.096" width="14.976" height="204.864" fill="white" /></svg>