<svg xmlns="http://www.w3.org/2000/svg" width="769.648" height="133.616" viewBox="1.016 -79.192 769.648 133.616"><symbol id="STIXTwoMathRegular_1144" viewBox="0 -31.524 5.568 51.216"><path d="M 5.568 -7.188 L 5.568 -7.188 L 2.76 0.096 L 1.812 0.096 L 4.644 -6.588 L 1.968 -6.588 Q 1.632 -6.588 1.452 -6.528 Q 1.272 -6.468 1.158 -6.276 Q 1.044 -6.084 0.876 -5.688 L 0.504 -5.724 L 0.984 -7.56 L 5.568 -7.56 Z " /></symbol><use href="#STIXTwoMathRegular_1144" x="0" y="-126.096" width="22.272" height="204.864" fill="white" /><symbol id="STIXTwoMathRegular_1145" viewBox="0 -31.524 5.376 51.216"><path d="M 5.376 -1.8 L 5.376 -1.8 Q 5.376 -0.852 4.698 -0.354 Q 4.02 0.144 2.952 0.144 Q 1.908 0.144 1.23 -0.324 Q 0.552 -0.792 0.552 -1.704 Q 0.552 -2.184 0.732 -2.514 Q 0.912 -2.844 1.278 -3.132 Q 1.644 -3.42 2.196 -3.792 L 2.196 -3.828 Q 1.584 -4.26 1.266 -4.59 Q 0.948 -4.92 0.828 -5.25 Q 0.708 -5.58 0.708 -5.988 Q 0.708 -6.54 1.002 -6.936 Q 1.296 -7.332 1.812 -7.548 Q 2.328 -7.764 2.988 -7.764 Q 3.588 -7.764 4.062 -7.548 Q 4.536 -7.332 4.812 -6.96 Q 5.088 -6.588 5.088 -6.108 Q 5.088 -5.676 4.932 -5.364 Q 4.776 -5.052 4.44 -4.794 Q 4.104 -4.536 3.54 -4.224 L 3.54 -4.188 Q 4.248 -3.768 4.644 -3.402 Q 5.04 -3.036 5.208 -2.658 Q 5.376 -2.28 5.376 -1.8 Z M 2.556 -3.6 L 2.556 -3.6 Q 2.04 -3.192 1.764 -2.808 Q 1.488 -2.424 1.488 -1.8 Q 1.488 -0.996 1.902 -0.612 Q 2.316 -0.228 3 -0.228 Q 3.564 -0.228 3.966 -0.534 Q 4.368 -0.84 4.368 -1.452 Q 4.368 -1.836 4.218 -2.148 Q 4.068 -2.46 3.678 -2.796 Q 3.288 -3.132 2.556 -3.6 Z M 4.2 -6.132 L 4.2 -6.132 Q 4.2 -6.732 3.87 -7.05 Q 3.54 -7.368 2.964 -7.368 Q 2.352 -7.368 1.998 -7.062 Q 1.644 -6.756 1.644 -6.204 Q 1.644 -5.676 2.004 -5.292 Q 2.364 -4.908 3.168 -4.416 Q 3.768 -4.776 3.984 -5.166 Q 4.2 -5.556 4.2 -6.132 Z " /></symbol><use href="#STIXTwoMathRegular_1145" x="23.76" y="-126.096" width="21.504" height="204.864" fill="white" /><symbol id="STIXTwoMathRegular_1202" viewBox="0 -31.524 7.896 51.216"><path d="M 7.896 -3.924 L 7.896 -3.924 L 0.744 -3.924 L 0.744 -4.74 L 7.896 -4.74 Z M 7.896 -1.476 L 7.896 -1.476 L 0.744 -1.476 L 0.744 -2.28 L 7.896 -2.28 Z " /></symbol><use href="#STIXTwoMathRegular_1202" x="65.293" y="-126.096" width="31.584" height="204.864" fill="white" /><symbol id="STIXTwoMathRegular_1141" viewBox="0 -31.524 5.772 51.216"><path d="M 5.772 -1.896 L 5.772 -1.896 L 4.548 -1.896 L 4.548 0 L 3.48 0 L 3.48 -1.896 L 0.156 -1.896 L 0.156 -2.652 L 3.816 -7.74 L 4.548 -7.74 L 4.548 -2.724 L 5.772 -2.724 Z M 3.48 -2.724 L 3.48 -2.724 L 3.48 -6.432 L 3.432 -6.432 L 0.816 -2.772 L 0.816 -2.724 Z " /></symbol><use href="#STIXTwoMathRegular_1141" x="128.603" y="-156.816" width="23.088" height="204.864" fill="white" /><symbol id="STIXTwoMathRegular_1054" viewBox="0 -31.524 2.412 51.216"><path d="M 1.476 -2.04 L 1.476 -2.04 L 1.104 -6.456 Q 1.092 -6.708 1.074 -6.9 Q 1.056 -7.092 1.056 -7.236 Q 1.056 -7.572 1.188 -7.8 Q 1.32 -8.028 1.692 -8.028 Q 2.04 -8.028 2.184 -7.8 Q 2.328 -7.572 2.328 -7.212 Q 2.328 -6.876 2.292 -6.456 L 1.896 -2.04 Z M 2.412 -0.588 L 2.412 -0.588 Q 2.412 -0.312 2.226 -0.108 Q 2.04 0.096 1.692 0.096 Q 1.344 0.096 1.164 -0.102 Q 0.984 -0.3 0.984 -0.6 Q 0.984 -0.9 1.17 -1.116 Q 1.356 -1.332 1.692 -1.332 Q 2.04 -1.332 2.226 -1.11 Q 2.412 -0.888 2.412 -0.588 Z " /></symbol><use href="#STIXTwoMathRegular_1054" x="159.472" y="-156.816" width="9.648" height="204.864" fill="white" /><symbol id="STIXTwoMathRegular_1196" viewBox="0 -31.524 7.896 51.216"><path d="M 7.896 -2.7 L 7.896 -2.7 L 4.752 -2.7 L 4.752 0.48 L 3.888 0.48 L 3.888 -2.7 L 0.744 -2.7 L 0.744 -3.516 L 3.888 -3.516 L 3.888 -6.696 L 4.752 -6.696 L 4.752 -3.516 L 7.896 -3.516 Z " /></symbol><use href="#STIXTwoMathRegular_1196" x="187.275" y="-156.816" width="31.584" height="204.864" fill="white" /><use href="#STIXTwoMathRegular_1141" x="236.053" y="-156.816" width="23.088" height="204.864" fill="white" /><symbol id="STIXTwoMathRegular_6752" viewBox="0 -31.524 0 51.216" /><use href="#STIXTwoMathRegular_6752" x="170.136" y="-95.376" width="0" height="204.864" fill="white" /><symbol id="STIXTwoMathRegular_1052" viewBox="0 -31.524 2.196 51.216"><path d="M 2.196 -0.6 L 2.196 -0.6 Q 2.196 -0.324 2.004 -0.114 Q 1.812 0.096 1.452 0.096 Q 1.092 0.096 0.918 -0.108 Q 0.744 -0.312 0.744 -0.612 Q 0.744 -0.924 0.936 -1.146 Q 1.128 -1.368 1.464 -1.368 Q 1.812 -1.368 2.004 -1.14 Q 2.196 -0.912 2.196 -0.6 Z " /></symbol><use href="#STIXTwoMathRegular_1052" x="176.136" y="-95.376" width="8.784" height="204.864" fill="white" /><use href="#STIXTwoMathRegular_1141" x="187.896" y="-95.376" width="23.088" height="204.864" fill="white" /><use href="#STIXTwoMathRegular_6752" x="211.656" y="-95.376" width="0" height="204.864" fill="white" /><rect x="128.291" y="-14.016" width="131.211" height="3.264" fill="white" /><use href="#STIXTwoMathRegular_1196" x="284.384" y="-126.096" width="31.584" height="204.864" fill="white" /><use href="#STIXTwoMathRegular_1141" x="333.163" y="-126.096" width="23.088" height="204.864" fill="white" /><symbol id="STIXTwoMathRegular_1657" viewBox="0 -31.524 9.948 51.216"><path d="M 8.004 -11.064 L 8.004 -11.064 L 9.948 -11.064 L 9.948 -10.248 L 8.556 -10.248 L 4.956 3.18 L 4.452 3.18 L 1.656 -3.828 L 0.408 -3.348 L 0.216 -3.684 L 2.124 -5.004 L 2.364 -5.004 L 4.74 1.116 L 4.788 1.116 Z " /></symbol><use href="#STIXTwoMathRegular_1657" x="356.923" y="-126.096" width="39.792" height="204.864" fill="white" /><use href="#STIXTwoMathRegular_1141" x="395.035" y="-126.096" width="23.088" height="204.864" fill="white" /><rect x="395.035" y="-44.256" width="23.76" height="3.264" fill="white" /><use href="#STIXTwoMathRegular_1202" x="436.568" y="-126.096" width="31.584" height="204.864" fill="white" /><use href="#STIXTwoMathRegular_1141" x="488.902" y="-126.096" width="23.088" height="204.864" fill="white" /><use href="#STIXTwoMathRegular_1054" x="519.771" y="-126.096" width="9.648" height="204.864" fill="white" /><symbol id="STIXTwoMathRegular_1200" viewBox="0 -31.524 7.332 51.216"><path d="M 7.332 -0.264 L 7.332 -0.264 L 6.768 0.312 L 3.924 -2.52 L 1.092 0.312 L 0.528 -0.252 L 3.348 -3.096 L 0.528 -5.928 L 1.104 -6.492 L 3.924 -3.672 L 6.768 -6.492 L 7.332 -5.94 L 4.512 -3.096 Z " /></symbol><use href="#STIXTwoMathRegular_1200" x="540.464" y="-126.096" width="29.328" height="204.864" fill="white" /><use href="#STIXTwoMathRegular_1141" x="589.99" y="-160.032" width="23.088" height="204.864" fill="white" /><use href="#STIXTwoMathRegular_1054" x="620.859" y="-160.032" width="9.648" height="204.864" fill="white" /><use href="#STIXTwoMathRegular_1196" x="648.662" y="-160.032" width="31.584" height="204.864" fill="white" /><use href="#STIXTwoMathRegular_1657" x="697.44" y="-160.032" width="39.792" height="204.864" fill="white" /><use href="#STIXTwoMathRegular_1141" x="735.552" y="-160.032" width="23.088" height="204.864" fill="white" /><rect x="735.552" y="-78.192" width="23.76" height="3.264" fill="white" /><use href="#STIXTwoMathRegular_1141" x="631.835" y="-85.392" width="23.088" height="204.864" fill="white" /><use href="#STIXTwoMathRegular_1657" x="655.595" y="-85.392" width="39.792" height="204.864" fill="white" /><use href="#STIXTwoMathRegular_1141" x="693.707" y="-85.392" width="23.088" height="204.864" fill="white" /><rect x="693.707" y="-3.552" width="23.76" height="3.264" fill="white" /><rect x="589.678" y="-14.016" width="169.323" height="3.264" fill="white" /></svg>