<svg xmlns="http://www.w3.org/2000/svg" width="347.84" height="58.976" viewBox="1.208 -45.256 347.84 58.976"><symbol id="STIXTwoMathRegular_1145" viewBox="0 -31.524 5.376 51.216"><path d="M 5.376 -1.8 L 5.376 -1.8 Q 5.376 -0.852 4.698 -0.354 Q 4.02 0.144 2.952 0.144 Q 1.908 0.144 1.23 -0.324 Q 0.552 -0.792 0.552 -1.704 Q 0.552 -2.184 0.732 -2.514 Q 0.912 -2.844 1.278 -3.132 Q 1.644 -3.42 2.196 -3.792 L 2.196 -3.828 Q 1.584 -4.26 1.266 -4.59 Q 0.948 -4.92 0.828 -5.25 Q 0.708 -5.58 0.708 -5.988 Q 0.708 -6.54 1.002 -6.936 Q 1.296 -7.332 1.812 -7.548 Q 2.328 -7.764 2.988 -7.764 Q 3.588 -7.764 4.062 -7.548 Q 4.536 -7.332 4.812 -6.96 Q 5.088 -6.588 5.088 -6.108 Q 5.088 -5.676 4.932 -5.364 Q 4.776 -5.052 4.44 -4.794 Q 4.104 -4.536 3.54 -4.224 L 3.54 -4.188 Q 4.248 -3.768 4.644 -3.402 Q 5.04 -3.036 5.208 -2.658 Q 5.376 -2.28 5.376 -1.8 Z M 2.556 -3.6 L 2.556 -3.6 Q 2.04 -3.192 1.764 -2.808 Q 1.488 -2.424 1.488 -1.8 Q 1.488 -0.996 1.902 -0.612 Q 2.316 -0.228 3 -0.228 Q 3.564 -0.228 3.966 -0.534 Q 4.368 -0.84 4.368 -1.452 Q 4.368 -1.836 4.218 -2.148 Q 4.068 -2.46 3.678 -2.796 Q 3.288 -3.132 2.556 -3.6 Z M 4.2 -6.132 L 4.2 -6.132 Q 4.2 -6.732 3.87 -7.05 Q 3.54 -7.368 2.964 -7.368 Q 2.352 -7.368 1.998 -7.062 Q 1.644 -6.756 1.644 -6.204 Q 1.644 -5.676 2.004 -5.292 Q 2.364 -4.908 3.168 -4.416 Q 3.768 -4.776 3.984 -5.166 Q 4.2 -5.556 4.2 -6.132 Z " /></symbol><use href="#STIXTwoMathRegular_1145" x="0" y="-126.096" width="21.504" height="204.864" fill="white" /><symbol id="STIXTwoMathRegular_1137" viewBox="0 -31.524 5.616 51.216"><path d="M 5.616 -3.804 L 5.616 -3.804 Q 5.616 -3.036 5.466 -2.328 Q 5.316 -1.62 4.998 -1.068 Q 4.68 -0.516 4.176 -0.192 Q 3.672 0.132 2.964 0.132 Q 2.244 0.132 1.74 -0.186 Q 1.236 -0.504 0.924 -1.056 Q 0.612 -1.608 0.468 -2.328 Q 0.324 -3.048 0.324 -3.84 Q 0.324 -4.98 0.63 -5.85 Q 0.936 -6.72 1.53 -7.212 Q 2.124 -7.704 2.988 -7.704 Q 3.768 -7.704 4.356 -7.242 Q 4.944 -6.78 5.28 -5.91 Q 5.616 -5.04 5.616 -3.804 Z M 4.452 -3.732 L 4.452 -3.732 Q 4.452 -5.556 4.074 -6.426 Q 3.696 -7.296 2.952 -7.296 Q 2.244 -7.296 1.86 -6.432 Q 1.476 -5.568 1.476 -3.78 Q 1.476 -2.04 1.86 -1.17 Q 2.244 -0.3 2.964 -0.3 Q 3.672 -0.3 4.062 -1.152 Q 4.452 -2.004 4.452 -3.732 Z " /></symbol><use href="#STIXTwoMathRegular_1137" x="23.76" y="-126.096" width="22.464" height="204.864" fill="white" /><symbol id="STIXTwoMathRegular_1202" viewBox="0 -31.524 7.896 51.216"><path d="M 7.896 -3.924 L 7.896 -3.924 L 0.744 -3.924 L 0.744 -4.74 L 7.896 -4.74 Z M 7.896 -1.476 L 7.896 -1.476 L 0.744 -1.476 L 0.744 -2.28 L 7.896 -2.28 Z " /></symbol><use href="#STIXTwoMathRegular_1202" x="65.293" y="-126.096" width="31.584" height="204.864" fill="white" /><symbol id="STIXTwoMathRegular_1657" viewBox="0 -31.524 9.948 51.216"><path d="M 8.004 -11.064 L 8.004 -11.064 L 9.948 -11.064 L 9.948 -10.248 L 8.556 -10.248 L 4.956 3.18 L 4.452 3.18 L 1.656 -3.828 L 0.408 -3.348 L 0.216 -3.684 L 2.124 -5.004 L 2.364 -5.004 L 4.74 1.116 L 4.788 1.116 Z " /></symbol><use href="#STIXTwoMathRegular_1657" x="117.627" y="-126.096" width="39.792" height="204.864" fill="white" /><symbol id="STIXTwoMathRegular_1141" viewBox="0 -31.524 5.772 51.216"><path d="M 5.772 -1.896 L 5.772 -1.896 L 4.548 -1.896 L 4.548 0 L 3.48 0 L 3.48 -1.896 L 0.156 -1.896 L 0.156 -2.652 L 3.816 -7.74 L 4.548 -7.74 L 4.548 -2.724 L 5.772 -2.724 Z M 3.48 -2.724 L 3.48 -2.724 L 3.48 -6.432 L 3.432 -6.432 L 0.816 -2.772 L 0.816 -2.724 Z " /></symbol><use href="#STIXTwoMathRegular_1141" x="155.739" y="-126.096" width="23.088" height="204.864" fill="white" /><rect x="155.739" y="-44.256" width="23.76" height="3.264" fill="white" /><symbol id="STIXTwoMathRegular_1064" viewBox="0 -31.524 3.924 51.216"><path d="M 0.54 -3.24 L 0.54 -3.24 Q 0.54 -5.244 1.41 -6.66 Q 2.28 -8.076 3.732 -8.832 L 3.924 -8.52 Q 2.616 -7.632 2.07 -6.354 Q 1.524 -5.076 1.524 -3.24 Q 1.524 -1.404 2.07 -0.126 Q 2.616 1.152 3.924 2.04 L 3.732 2.352 Q 2.28 1.596 1.41 0.18 Q 0.54 -1.236 0.54 -3.24 Z " /></symbol><use href="#STIXTwoMathRegular_1064" x="179.499" y="-126.096" width="15.696" height="204.864" fill="white" /><use href="#STIXTwoMathRegular_1141" x="196.635" y="-126.096" width="23.088" height="204.864" fill="white" /><use href="#STIXTwoMathRegular_1141" x="220.395" y="-126.096" width="23.088" height="204.864" fill="white" /><symbol id="STIXTwoMathRegular_1197" viewBox="0 -31.524 7.896 51.216"><path d="M 7.896 -2.7 L 7.896 -2.7 L 0.744 -2.7 L 0.744 -3.516 L 7.896 -3.516 Z " /></symbol><use href="#STIXTwoMathRegular_1197" x="258.373" y="-126.096" width="31.584" height="204.864" fill="white" /><use href="#STIXTwoMathRegular_1141" x="307.152" y="-126.096" width="23.088" height="204.864" fill="white" /><symbol id="STIXTwoMathRegular_1065" viewBox="0 -31.524 3.744 51.216"><path d="M 3.744 -3.24 L 3.744 -3.24 Q 3.744 -1.236 2.874 0.18 Q 2.004 1.596 0.552 2.352 L 0.36 2.04 Q 1.68 1.152 2.22 -0.126 Q 2.76 -1.404 2.76 -3.24 Q 2.76 -5.076 2.22 -6.354 Q 1.68 -7.632 0.36 -8.52 L 0.552 -8.832 Q 2.004 -8.076 2.874 -6.66 Q 3.744 -5.244 3.744 -3.24 Z " /></symbol><use href="#STIXTwoMathRegular_1065" x="330.912" y="-126.096" width="14.976" height="204.864" fill="white" /></svg>