<svg xmlns="http://www.w3.org/2000/svg" width="409.211" height="168.752" viewBox="0.872 -101.003 409.211 168.752"><symbol id="STIXTwoMathRegular_1146" viewBox="0 -31.524 5.4 51.216"><path d="M 1.02 0.156 L 1.02 0.156 L 0.996 -0.192 Q 1.824 -0.288 2.52 -0.678 Q 3.216 -1.068 3.678 -1.746 Q 4.14 -2.424 4.272 -3.396 L 4.2 -3.408 Q 3.792 -3.036 3.438 -2.85 Q 3.084 -2.664 2.628 -2.664 Q 1.644 -2.664 1.056 -3.33 Q 0.468 -3.996 0.468 -5.184 Q 0.468 -6.396 1.11 -7.074 Q 1.752 -7.752 2.88 -7.752 Q 3.78 -7.752 4.332 -7.308 Q 4.884 -6.864 5.142 -6.12 Q 5.4 -5.376 5.4 -4.488 Q 5.4 -2.94 4.86 -1.914 Q 4.32 -0.888 3.336 -0.372 Q 2.352 0.144 1.02 0.156 Z M 1.512 -5.256 L 1.512 -5.256 Q 1.512 -4.416 1.878 -3.894 Q 2.244 -3.372 2.988 -3.372 Q 3.516 -3.372 3.918 -3.69 Q 4.32 -4.008 4.32 -4.776 Q 4.32 -5.532 4.17 -6.108 Q 4.02 -6.684 3.69 -7.014 Q 3.36 -7.344 2.832 -7.344 Q 2.244 -7.344 1.878 -6.876 Q 1.512 -6.408 1.512 -5.256 Z " /></symbol><use href="#STIXTwoMathRegular_1146" x="0" y="-126.096" width="21.6" height="204.864" fill="white" /><symbol id="STIXTwoMathRegular_1137" viewBox="0 -31.524 5.616 51.216"><path d="M 5.616 -3.804 L 5.616 -3.804 Q 5.616 -3.036 5.466 -2.328 Q 5.316 -1.62 4.998 -1.068 Q 4.68 -0.516 4.176 -0.192 Q 3.672 0.132 2.964 0.132 Q 2.244 0.132 1.74 -0.186 Q 1.236 -0.504 0.924 -1.056 Q 0.612 -1.608 0.468 -2.328 Q 0.324 -3.048 0.324 -3.84 Q 0.324 -4.98 0.63 -5.85 Q 0.936 -6.72 1.53 -7.212 Q 2.124 -7.704 2.988 -7.704 Q 3.768 -7.704 4.356 -7.242 Q 4.944 -6.78 5.28 -5.91 Q 5.616 -5.04 5.616 -3.804 Z M 4.452 -3.732 L 4.452 -3.732 Q 4.452 -5.556 4.074 -6.426 Q 3.696 -7.296 2.952 -7.296 Q 2.244 -7.296 1.86 -6.432 Q 1.476 -5.568 1.476 -3.78 Q 1.476 -2.04 1.86 -1.17 Q 2.244 -0.3 2.964 -0.3 Q 3.672 -0.3 4.062 -1.152 Q 4.452 -2.004 4.452 -3.732 Z " /></symbol><use href="#STIXTwoMathRegular_1137" x="23.76" y="-126.096" width="22.464" height="204.864" fill="white" /><use href="#STIXTwoMathRegular_1137" x="47.52" y="-126.096" width="22.464" height="204.864" fill="white" /><symbol id="STIXTwoMathRegular_1202" viewBox="0 -31.524 7.896 51.216"><path d="M 7.896 -3.924 L 7.896 -3.924 L 0.744 -3.924 L 0.744 -4.74 L 7.896 -4.74 Z M 7.896 -1.476 L 7.896 -1.476 L 0.744 -1.476 L 0.744 -2.28 L 7.896 -2.28 Z " /></symbol><use href="#STIXTwoMathRegular_1202" x="89.053" y="-126.096" width="31.584" height="204.864" fill="white" /><symbol id="STIXTwoMathRegular_1302" viewBox="0 -31.524 4.476 51.216"><path d="M 0.648 -3.24 L 0.648 -3.24 Q 0.648 -5.208 1.11 -6.858 Q 1.572 -8.508 2.382 -9.768 Q 3.192 -11.028 4.248 -11.796 L 4.476 -11.496 Q 3.024 -10.104 2.37 -7.998 Q 1.716 -5.892 1.716 -3.24 Q 1.716 -0.588 2.37 1.518 Q 3.024 3.624 4.476 5.016 L 4.248 5.316 Q 3.192 4.548 2.382 3.288 Q 1.572 2.028 1.11 0.372 Q 0.648 -1.284 0.648 -3.24 Z " /></symbol><use href="#STIXTwoMathRegular_1302" x="141.387" y="-126.096" width="17.904" height="204.864" fill="white" /><symbol id="STIXTwoMathRegular_1141" viewBox="0 -31.524 5.772 51.216"><path d="M 5.772 -1.896 L 5.772 -1.896 L 4.548 -1.896 L 4.548 0 L 3.48 0 L 3.48 -1.896 L 0.156 -1.896 L 0.156 -2.652 L 3.816 -7.74 L 4.548 -7.74 L 4.548 -2.724 L 5.772 -2.724 Z M 3.48 -2.724 L 3.48 -2.724 L 3.48 -6.432 L 3.432 -6.432 L 0.816 -2.772 L 0.816 -2.724 Z " /></symbol><use href="#STIXTwoMathRegular_1141" x="160.779" y="-126.096" width="23.088" height="204.864" fill="white" /><symbol id="STIXTwoMathRegular_1699" viewBox="0 -31.524 11.484 51.216"><path d="M 10.476 -16.38 L 10.476 -16.38 L 10.476 -16.452 Q 10.476 -16.452 10.374 -16.494 Q 10.272 -16.536 10.068 -16.536 Q 9.564 -16.536 9.18 -15.978 Q 8.796 -15.42 8.508 -14.436 Q 8.22 -13.452 8.004 -12.168 Q 7.788 -10.884 7.626 -9.42 Q 7.464 -7.956 7.314 -6.438 Q 7.164 -4.92 7.008 -3.48 Q 6.504 1.188 5.85 4.422 Q 5.196 7.656 4.266 9.33 Q 3.336 11.004 2.016 11.004 Q 1.272 11.004 0.936 10.632 Q 0.6 10.26 0.6 9.792 Q 0.6 9.264 0.84 8.994 Q 1.08 8.724 1.416 8.724 Q 1.692 8.724 1.83 8.904 Q 1.968 9.084 1.968 9.396 Q 1.968 9.66 1.884 9.87 Q 1.8 10.08 1.68 10.26 L 1.68 10.332 Q 1.68 10.332 1.764 10.374 Q 1.848 10.416 2.028 10.416 Q 2.652 10.416 3.096 9.768 Q 3.54 9.12 3.876 7.92 Q 4.212 6.72 4.47 5.046 Q 4.728 3.372 4.968 1.308 Q 5.208 -0.756 5.472 -3.108 Q 5.664 -4.728 5.874 -6.39 Q 6.084 -8.052 6.348 -9.624 Q 6.612 -11.196 6.966 -12.558 Q 7.32 -13.92 7.782 -14.952 Q 8.244 -15.984 8.85 -16.566 Q 9.456 -17.148 10.236 -17.148 Q 10.776 -17.148 11.13 -16.866 Q 11.484 -16.584 11.484 -16.008 Q 11.484 -15.456 11.19 -15.21 Q 10.896 -14.964 10.596 -14.964 Q 10.368 -14.964 10.224 -15.114 Q 10.08 -15.264 10.08 -15.564 Q 10.08 -16.044 10.476 -16.38 Z " /></symbol><use href="#STIXTwoMathRegular_1699" x="184.539" y="-126.096" width="45.936" height="204.864" fill="white" /><symbol id="STIXTwoMathRegular_4277" viewBox="0 -31.524 6.444 51.216"><path d="M 6.444 -1.896 L 6.444 -1.896 L 5.136 -1.896 L 5.136 0 L 3.948 0 L 3.948 -1.896 L 0.42 -1.896 L 0.42 -2.808 L 4.272 -8.04 L 5.136 -8.04 L 5.136 -2.88 L 6.444 -2.88 Z M 3.948 -2.88 L 3.948 -2.88 L 3.948 -6.588 L 3.876 -6.588 L 1.236 -2.952 L 1.236 -2.88 Z " /></symbol><use href="#STIXTwoMathRegular_4277" x="208.566" y="-25.144" width="12.63" height="100.383" fill="white" /><use href="#STIXTwoMathRegular_4277" x="208.566" y="4.962" width="12.63" height="100.383" fill="white" /><rect x="208.155" y="44.485" width="13.265" height="2.285" fill="white" /><use href="#STIXTwoMathRegular_4277" x="234.075" y="-145.819" width="18.043" height="143.405" fill="white" /><symbol id="STIXTwoMathRegular_3354" viewBox="0 -31.524 6.48 51.216"><path d="M 3.78 -3.576 L 3.78 -3.576 L 4.368 -4.584 Q 4.608 -5.016 4.98 -5.382 Q 5.352 -5.748 5.88 -5.748 Q 6.228 -5.748 6.354 -5.61 Q 6.48 -5.472 6.48 -5.22 Q 6.48 -5.004 6.324 -4.83 Q 6.168 -4.656 5.928 -4.656 Q 5.784 -4.656 5.604 -4.716 Q 5.424 -4.776 5.304 -4.776 Q 5.1 -4.776 4.956 -4.65 Q 4.812 -4.524 4.656 -4.272 L 3.924 -3.108 L 4.176 -2.292 Q 4.428 -1.464 4.638 -1.104 Q 4.848 -0.744 5.124 -0.744 Q 5.364 -0.744 5.556 -0.918 Q 5.748 -1.092 5.988 -1.416 L 6.24 -1.224 Q 6.072 -0.96 5.838 -0.648 Q 5.604 -0.336 5.292 -0.108 Q 4.98 0.12 4.572 0.12 Q 4.164 0.12 3.942 -0.204 Q 3.72 -0.528 3.588 -1.116 L 3.288 -2.328 L 3.24 -2.328 L 2.472 -1.08 Q 2.184 -0.612 1.848 -0.252 Q 1.512 0.108 0.972 0.108 Q 0.588 0.108 0.432 -0.072 Q 0.276 -0.252 0.276 -0.48 Q 0.276 -0.66 0.402 -0.822 Q 0.528 -0.984 0.744 -0.984 Q 0.948 -0.984 1.146 -0.906 Q 1.344 -0.828 1.5 -0.828 Q 1.524 -0.828 1.608 -0.858 Q 1.692 -0.888 1.848 -1.032 Q 2.004 -1.176 2.232 -1.512 L 3.096 -2.772 L 2.76 -3.864 Q 2.604 -4.368 2.448 -4.656 Q 2.292 -4.944 2.064 -5.07 Q 1.836 -5.196 1.44 -5.184 Q 1.296 -5.184 1.182 -5.166 Q 1.068 -5.148 1.068 -5.148 L 1.068 -5.508 L 2.736 -5.7 L 2.916 -5.7 Q 3.132 -5.448 3.306 -5.064 Q 3.48 -4.68 3.6 -4.188 L 3.744 -3.576 Z " /></symbol><use href="#STIXTwoMathRegular_3354" x="253.025" y="-126.096" width="25.92" height="204.864" fill="white" /><symbol id="STIXTwoMathRegular_3329" viewBox="0 -31.524 6.36 51.216"><path d="M 6.348 -8.46 L 6.348 -8.46 L 5.076 -1.452 Q 5.076 -1.452 5.046 -1.26 Q 5.016 -1.068 5.016 -0.948 Q 5.016 -0.72 5.244 -0.72 Q 5.532 -0.72 5.766 -0.948 Q 6 -1.176 6.12 -1.344 L 6.36 -1.164 Q 6.18 -0.9 5.952 -0.6 Q 5.724 -0.3 5.43 -0.09 Q 5.136 0.12 4.716 0.12 Q 4.356 0.12 4.17 -0.054 Q 3.984 -0.228 3.984 -0.504 Q 3.984 -0.612 4.008 -0.762 Q 4.032 -0.912 4.044 -1.02 L 3.948 -1.02 Q 3.504 -0.468 2.994 -0.162 Q 2.484 0.144 1.956 0.144 Q 1.296 0.144 0.87 -0.372 Q 0.444 -0.888 0.444 -1.944 Q 0.444 -2.748 0.69 -3.438 Q 0.936 -4.128 1.368 -4.65 Q 1.8 -5.172 2.364 -5.46 Q 2.928 -5.748 3.552 -5.748 Q 3.96 -5.748 4.26 -5.622 Q 4.56 -5.496 4.776 -5.268 L 4.812 -5.268 L 5.208 -7.284 Q 5.208 -7.284 5.226 -7.416 Q 5.244 -7.548 5.244 -7.668 Q 5.244 -7.824 5.172 -7.932 Q 5.1 -8.04 4.824 -8.04 Q 4.716 -8.04 4.584 -8.028 Q 4.452 -8.016 4.452 -8.016 L 4.452 -8.328 L 6.084 -8.46 Z M 4.152 -2.124 L 4.152 -2.124 Q 4.308 -2.58 4.386 -3.018 Q 4.464 -3.456 4.494 -3.78 Q 4.524 -4.104 4.524 -4.212 Q 4.524 -4.596 4.272 -4.944 Q 4.02 -5.292 3.492 -5.292 Q 3.036 -5.292 2.67 -5.004 Q 2.304 -4.716 2.046 -4.242 Q 1.788 -3.768 1.65 -3.192 Q 1.512 -2.616 1.512 -2.028 Q 1.512 -1.212 1.77 -0.93 Q 2.028 -0.648 2.472 -0.648 Q 3.084 -0.648 3.498 -1.044 Q 3.912 -1.44 4.152 -2.124 Z " /></symbol><use href="#STIXTwoMathRegular_3329" x="290.542" y="-126.096" width="25.44" height="204.864" fill="white" /><use href="#STIXTwoMathRegular_3354" x="317.23" y="-126.096" width="25.92" height="204.864" fill="white" /><symbol id="STIXTwoMathRegular_1314" viewBox="0 -31.524 4.2 51.216"><path d="M 4.2 -3.24 L 4.2 -3.24 Q 4.2 -1.284 3.738 0.372 Q 3.276 2.028 2.466 3.288 Q 1.656 4.548 0.6 5.316 L 0.372 5.016 Q 1.824 3.624 2.478 1.518 Q 3.132 -0.588 3.132 -3.24 Q 3.132 -5.892 2.478 -7.998 Q 1.824 -10.104 0.372 -11.496 L 0.6 -11.796 Q 1.656 -11.028 2.466 -9.768 Q 3.276 -8.508 3.738 -6.858 Q 4.2 -5.208 4.2 -3.24 Z " /></symbol><use href="#STIXTwoMathRegular_1314" x="344.062" y="-126.096" width="16.8" height="204.864" fill="white" /><symbol id="STIXTwoMathRegular_1657" viewBox="0 -31.524 9.948 51.216"><path d="M 8.004 -11.064 L 8.004 -11.064 L 9.948 -11.064 L 9.948 -10.248 L 8.556 -10.248 L 4.956 3.18 L 4.452 3.18 L 1.656 -3.828 L 0.408 -3.348 L 0.216 -3.684 L 2.124 -5.004 L 2.364 -5.004 L 4.74 1.116 L 4.788 1.116 Z " /></symbol><use href="#STIXTwoMathRegular_1657" x="363.454" y="-157.291" width="27.854" height="143.405" fill="white" /><use href="#STIXTwoMathRegular_4277" x="390.133" y="-157.291" width="18.043" height="143.405" fill="white" /><rect x="390.133" y="-100.003" width="18.95" height="2.285" fill="white" /></svg>