<svg xmlns="http://www.w3.org/2000/svg" width="865.662" height="203.067" viewBox="-1 -171.347 865.662 203.067"><symbol id="STIXTwoMathRegular_1140" viewBox="0 -31.524 5.328 51.216"><path d="M 1.032 -5.976 L 1.032 -5.976 L 0.756 -6.132 Q 1.44 -7.728 2.928 -7.728 Q 3.852 -7.728 4.356 -7.266 Q 4.86 -6.804 4.86 -6.12 Q 4.86 -5.496 4.494 -5.112 Q 4.128 -4.728 3.564 -4.368 L 3.564 -4.332 Q 4.044 -4.188 4.446 -3.918 Q 4.848 -3.648 5.088 -3.258 Q 5.328 -2.868 5.328 -2.328 Q 5.328 -1.512 4.872 -0.954 Q 4.416 -0.396 3.672 -0.12 Q 2.928 0.156 2.052 0.156 Q 1.512 0.156 1.224 0.054 Q 0.936 -0.048 0.822 -0.198 Q 0.708 -0.348 0.708 -0.504 Q 0.708 -0.696 0.828 -0.864 Q 0.948 -1.032 1.176 -1.032 Q 1.32 -1.032 1.446 -0.978 Q 1.572 -0.924 1.884 -0.756 Q 2.268 -0.564 2.454 -0.504 Q 2.64 -0.444 2.856 -0.444 Q 3.24 -0.444 3.576 -0.582 Q 3.912 -0.72 4.128 -1.05 Q 4.344 -1.38 4.344 -1.968 Q 4.344 -2.508 4.044 -2.904 Q 3.744 -3.3 3.246 -3.522 Q 2.748 -3.744 2.172 -3.744 L 1.932 -3.744 L 1.932 -4.2 L 2.16 -4.2 Q 2.568 -4.2 2.952 -4.404 Q 3.336 -4.608 3.582 -4.98 Q 3.828 -5.352 3.828 -5.832 Q 3.828 -6.36 3.498 -6.654 Q 3.168 -6.948 2.604 -6.948 Q 2.064 -6.948 1.704 -6.702 Q 1.344 -6.456 1.032 -5.976 Z " /></symbol><use href="#STIXTwoMathRegular_1140" x="0" y="-126.096" width="21.312" height="204.864" fill="white" /><symbol id="STIXTwoMathRegular_1052" viewBox="0 -31.524 2.196 51.216"><path d="M 2.196 -0.6 L 2.196 -0.6 Q 2.196 -0.324 2.004 -0.114 Q 1.812 0.096 1.452 0.096 Q 1.092 0.096 0.918 -0.108 Q 0.744 -0.312 0.744 -0.612 Q 0.744 -0.924 0.936 -1.146 Q 1.128 -1.368 1.464 -1.368 Q 1.812 -1.368 2.004 -1.14 Q 2.196 -0.912 2.196 -0.6 Z " /></symbol><use href="#STIXTwoMathRegular_1052" x="23.76" y="-126.096" width="8.784" height="204.864" fill="white" /><symbol id="STIXTwoMathRegular_1138" viewBox="0 -31.524 5.112 51.216"><path d="M 5.112 0 L 5.112 0 L 0.96 0 L 0.96 -0.336 Q 1.812 -0.336 2.16 -0.516 Q 2.508 -0.696 2.508 -1.14 L 2.508 -6.216 Q 2.508 -6.528 2.424 -6.666 Q 2.34 -6.804 2.112 -6.804 Q 1.932 -6.804 1.548 -6.756 Q 1.164 -6.708 0.888 -6.612 L 0.888 -7.008 L 3.216 -7.668 L 3.564 -7.668 L 3.564 -1.14 Q 3.564 -0.696 3.924 -0.516 Q 4.284 -0.336 5.112 -0.336 Z " /></symbol><use href="#STIXTwoMathRegular_1138" x="35.52" y="-126.096" width="20.448" height="204.864" fill="white" /><symbol id="STIXTwoMathRegular_1141" viewBox="0 -31.524 5.772 51.216"><path d="M 5.772 -1.896 L 5.772 -1.896 L 4.548 -1.896 L 4.548 0 L 3.48 0 L 3.48 -1.896 L 0.156 -1.896 L 0.156 -2.652 L 3.816 -7.74 L 4.548 -7.74 L 4.548 -2.724 L 5.772 -2.724 Z M 3.48 -2.724 L 3.48 -2.724 L 3.48 -6.432 L 3.432 -6.432 L 0.816 -2.772 L 0.816 -2.724 Z " /></symbol><use href="#STIXTwoMathRegular_1141" x="59.28" y="-126.096" width="23.088" height="204.864" fill="white" /><rect x="0" y="10.656" width="80.208" height="3.264" fill="black" /><symbol id="STIXTwoMathRegular_1137" viewBox="0 -31.524 5.616 51.216"><path d="M 5.616 -3.804 L 5.616 -3.804 Q 5.616 -3.036 5.466 -2.328 Q 5.316 -1.62 4.998 -1.068 Q 4.68 -0.516 4.176 -0.192 Q 3.672 0.132 2.964 0.132 Q 2.244 0.132 1.74 -0.186 Q 1.236 -0.504 0.924 -1.056 Q 0.612 -1.608 0.468 -2.328 Q 0.324 -3.048 0.324 -3.84 Q 0.324 -4.98 0.63 -5.85 Q 0.936 -6.72 1.53 -7.212 Q 2.124 -7.704 2.988 -7.704 Q 3.768 -7.704 4.356 -7.242 Q 4.944 -6.78 5.28 -5.91 Q 5.616 -5.04 5.616 -3.804 Z M 4.452 -3.732 L 4.452 -3.732 Q 4.452 -5.556 4.074 -6.426 Q 3.696 -7.296 2.952 -7.296 Q 2.244 -7.296 1.86 -6.432 Q 1.476 -5.568 1.476 -3.78 Q 1.476 -2.04 1.86 -1.17 Q 2.244 -0.3 2.964 -0.3 Q 3.672 -0.3 4.062 -1.152 Q 4.452 -2.004 4.452 -3.732 Z " /></symbol><use href="#STIXTwoMathRegular_1137" x="83.04" y="-126.096" width="22.464" height="204.864" fill="white" /><use href="#STIXTwoMathRegular_1140" x="106.8" y="-126.096" width="21.312" height="204.864" fill="white" /><symbol id="STIXTwoMathRegular_1143" viewBox="0 -31.524 5.484 51.216"><path d="M 4.98 -7.752 L 4.98 -7.752 L 5.004 -7.404 Q 4.164 -7.284 3.468 -6.864 Q 2.772 -6.444 2.304 -5.772 Q 1.836 -5.1 1.68 -4.224 L 1.764 -4.212 Q 2.136 -4.572 2.496 -4.764 Q 2.856 -4.956 3.324 -4.956 Q 4.308 -4.956 4.896 -4.284 Q 5.484 -3.612 5.484 -2.436 Q 5.484 -1.212 4.866 -0.534 Q 4.248 0.144 3.108 0.144 Q 2.22 0.144 1.65 -0.294 Q 1.08 -0.732 0.81 -1.47 Q 0.54 -2.208 0.54 -3.084 Q 0.54 -4.536 1.11 -5.556 Q 1.68 -6.576 2.688 -7.14 Q 3.696 -7.704 4.98 -7.752 Z M 4.44 -2.34 L 4.44 -2.34 Q 4.44 -3.156 4.074 -3.708 Q 3.708 -4.26 2.964 -4.26 Q 2.616 -4.26 2.31 -4.122 Q 2.004 -3.984 1.812 -3.672 Q 1.62 -3.36 1.62 -2.832 Q 1.62 -2.088 1.788 -1.512 Q 1.956 -0.936 2.298 -0.606 Q 2.64 -0.276 3.156 -0.276 Q 3.756 -0.276 4.098 -0.738 Q 4.44 -1.2 4.44 -2.34 Z " /></symbol><use href="#STIXTwoMathRegular_1143" x="130.56" y="-126.096" width="21.936" height="204.864" fill="white" /><symbol id="STIXTwoMathRegular_1053" viewBox="0 -31.524 9.444 51.216"><path d="M 2.652 -0.6 L 2.652 -0.6 Q 2.652 -0.324 2.46 -0.114 Q 2.268 0.096 1.908 0.096 Q 1.548 0.096 1.374 -0.108 Q 1.2 -0.312 1.2 -0.612 Q 1.2 -0.924 1.392 -1.146 Q 1.584 -1.368 1.92 -1.368 Q 2.268 -1.368 2.46 -1.14 Q 2.652 -0.912 2.652 -0.6 Z M 6.048 -0.6 L 6.048 -0.6 Q 6.048 -0.324 5.856 -0.114 Q 5.664 0.096 5.304 0.096 Q 4.944 0.096 4.77 -0.108 Q 4.596 -0.312 4.596 -0.612 Q 4.596 -0.924 4.788 -1.146 Q 4.98 -1.368 5.316 -1.368 Q 5.664 -1.368 5.856 -1.14 Q 6.048 -0.912 6.048 -0.6 Z M 9.444 -0.6 L 9.444 -0.6 Q 9.444 -0.324 9.252 -0.114 Q 9.06 0.096 8.7 0.096 Q 8.34 0.096 8.166 -0.108 Q 7.992 -0.312 7.992 -0.612 Q 7.992 -0.924 8.184 -1.146 Q 8.376 -1.368 8.712 -1.368 Q 9.06 -1.368 9.252 -1.14 Q 9.444 -0.912 9.444 -0.6 Z " /></symbol><use href="#STIXTwoMathRegular_1053" x="154.32" y="-126.096" width="37.776" height="204.864" fill="white" /><symbol id="STIXTwoMathRegular_1202" viewBox="0 -31.524 7.896 51.216"><path d="M 7.896 -3.924 L 7.896 -3.924 L 0.744 -3.924 L 0.744 -4.74 L 7.896 -4.74 Z M 7.896 -1.476 L 7.896 -1.476 L 0.744 -1.476 L 0.744 -2.28 L 7.896 -2.28 Z " /></symbol><use href="#STIXTwoMathRegular_1202" x="214.669" y="-126.096" width="31.584" height="204.864" fill="white" /><symbol id="STIXTwoMathRegular_1699" viewBox="0 -31.524 11.484 51.216"><path d="M 10.476 -16.38 L 10.476 -16.38 L 10.476 -16.452 Q 10.476 -16.452 10.374 -16.494 Q 10.272 -16.536 10.068 -16.536 Q 9.564 -16.536 9.18 -15.978 Q 8.796 -15.42 8.508 -14.436 Q 8.22 -13.452 8.004 -12.168 Q 7.788 -10.884 7.626 -9.42 Q 7.464 -7.956 7.314 -6.438 Q 7.164 -4.92 7.008 -3.48 Q 6.504 1.188 5.85 4.422 Q 5.196 7.656 4.266 9.33 Q 3.336 11.004 2.016 11.004 Q 1.272 11.004 0.936 10.632 Q 0.6 10.26 0.6 9.792 Q 0.6 9.264 0.84 8.994 Q 1.08 8.724 1.416 8.724 Q 1.692 8.724 1.83 8.904 Q 1.968 9.084 1.968 9.396 Q 1.968 9.66 1.884 9.87 Q 1.8 10.08 1.68 10.26 L 1.68 10.332 Q 1.68 10.332 1.764 10.374 Q 1.848 10.416 2.028 10.416 Q 2.652 10.416 3.096 9.768 Q 3.54 9.12 3.876 7.92 Q 4.212 6.72 4.47 5.046 Q 4.728 3.372 4.968 1.308 Q 5.208 -0.756 5.472 -3.108 Q 5.664 -4.728 5.874 -6.39 Q 6.084 -8.052 6.348 -9.624 Q 6.612 -11.196 6.966 -12.558 Q 7.32 -13.92 7.782 -14.952 Q 8.244 -15.984 8.85 -16.566 Q 9.456 -17.148 10.236 -17.148 Q 10.776 -17.148 11.13 -16.866 Q 11.484 -16.584 11.484 -16.008 Q 11.484 -15.456 11.19 -15.21 Q 10.896 -14.964 10.596 -14.964 Q 10.368 -14.964 10.224 -15.114 Q 10.08 -15.264 10.08 -15.564 Q 10.08 -16.044 10.476 -16.38 Z " /></symbol><use href="#STIXTwoMathRegular_1699" x="278.387" y="-207.912" width="45.936" height="204.864" fill="white" /><symbol id="STIXTwoMathRegular_1657" viewBox="0 -31.524 9.948 51.216"><path d="M 8.004 -11.064 L 8.004 -11.064 L 9.948 -11.064 L 9.948 -10.248 L 8.556 -10.248 L 4.956 3.18 L 4.452 3.18 L 1.656 -3.828 L 0.408 -3.348 L 0.216 -3.684 L 2.124 -5.004 L 2.364 -5.004 L 4.74 1.116 L 4.788 1.116 Z " /></symbol><use href="#STIXTwoMathRegular_1657" x="302.003" y="-118.387" width="27.854" height="143.405" fill="white" /><symbol id="STIXTwoMathRegular_4277" viewBox="0 -31.524 6.444 51.216"><path d="M 6.444 -1.896 L 6.444 -1.896 L 5.136 -1.896 L 5.136 0 L 3.948 0 L 3.948 -1.896 L 0.42 -1.896 L 0.42 -2.808 L 4.272 -8.04 L 5.136 -8.04 L 5.136 -2.88 L 6.444 -2.88 Z M 3.948 -2.88 L 3.948 -2.88 L 3.948 -6.588 L 3.876 -6.588 L 1.236 -2.952 L 1.236 -2.88 Z " /></symbol><use href="#STIXTwoMathRegular_4277" x="328.681" y="-118.387" width="18.043" height="143.405" fill="white" /><rect x="328.681" y="-61.099" width="18.95" height="2.285" fill="white" /><use href="#STIXTwoMathRegular_4277" x="327.923" y="-227.635" width="18.043" height="143.405" fill="white" /><use href="#STIXTwoMathRegular_1657" x="346.873" y="-227.635" width="27.854" height="143.405" fill="white" /><use href="#STIXTwoMathRegular_4277" x="373.552" y="-227.635" width="18.043" height="143.405" fill="white" /><rect x="373.552" y="-170.347" width="18.95" height="2.285" fill="white" /><symbol id="STIXTwoMathRegular_6752" viewBox="0 -31.524 0 51.216" /><use href="#STIXTwoMathRegular_6752" x="392.502" y="-207.912" width="0" height="204.864" fill="white" /><symbol id="STIXTwoMathRegular_267" viewBox="0 -31.524 3.12 51.216"><path d="M 3.12 -0.348 L 3.12 -0.348 L 3.12 0 L 0.36 0 L 0.36 -0.348 Q 0.756 -0.348 0.936 -0.426 Q 1.116 -0.504 1.158 -0.69 Q 1.2 -0.876 1.2 -1.212 L 1.2 -7.236 Q 1.2 -7.608 1.062 -7.68 Q 0.924 -7.752 0.696 -7.752 Q 0.54 -7.752 0.426 -7.74 Q 0.312 -7.728 0.312 -7.728 L 0.312 -8.052 L 1.896 -8.472 L 2.196 -8.472 L 2.196 -1.212 Q 2.196 -0.864 2.25 -0.678 Q 2.304 -0.492 2.496 -0.42 Q 2.688 -0.348 3.12 -0.348 Z " /></symbol><use href="#STIXTwoMathRegular_267" x="398.502" y="-207.912" width="12.48" height="204.864" fill="white" /><symbol id="STIXTwoMathRegular_270" viewBox="0 -31.524 5.76 51.216"><path d="M 3.096 -5.82 L 3.096 -5.82 Q 4.332 -5.82 5.046 -5.052 Q 5.76 -4.284 5.76 -2.952 Q 5.76 -1.944 5.418 -1.26 Q 5.076 -0.576 4.476 -0.228 Q 3.876 0.12 3.096 0.12 Q 1.836 0.12 1.122 -0.666 Q 0.408 -1.452 0.408 -2.904 Q 0.408 -3.78 0.744 -4.434 Q 1.08 -5.088 1.686 -5.454 Q 2.292 -5.82 3.096 -5.82 Z M 3.048 -5.364 L 3.048 -5.364 Q 2.364 -5.364 1.944 -4.788 Q 1.524 -4.212 1.524 -3.06 Q 1.524 -1.632 1.95 -0.99 Q 2.376 -0.348 3.144 -0.36 Q 3.636 -0.36 3.972 -0.588 Q 4.308 -0.816 4.482 -1.368 Q 4.656 -1.92 4.656 -2.892 Q 4.656 -3.996 4.254 -4.68 Q 3.852 -5.364 3.048 -5.364 Z " /></symbol><use href="#STIXTwoMathRegular_270" x="412.086" y="-207.912" width="23.04" height="204.864" fill="white" /><symbol id="STIXTwoMathRegular_261" viewBox="0 -31.524 5.664 51.216"><path d="M 1.536 -2.208 L 1.536 -2.208 L 1.536 -2.232 Q 1.104 -2.484 0.858 -2.88 Q 0.612 -3.276 0.612 -3.864 Q 0.612 -4.764 1.224 -5.292 Q 1.836 -5.82 2.784 -5.82 Q 3.18 -5.82 3.48 -5.748 Q 3.78 -5.676 3.948 -5.598 Q 4.116 -5.52 4.116 -5.52 L 5.664 -5.604 L 5.664 -4.956 L 4.536 -4.992 L 4.536 -4.932 Q 4.668 -4.752 4.818 -4.452 Q 4.968 -4.152 4.968 -3.696 Q 4.968 -2.856 4.38 -2.364 Q 3.792 -1.872 2.844 -1.872 Q 2.556 -1.872 2.304 -1.92 Q 2.052 -1.968 1.812 -2.052 Q 1.728 -1.932 1.614 -1.668 Q 1.5 -1.404 1.5 -1.248 Q 1.5 -0.984 1.794 -0.876 Q 2.088 -0.768 2.916 -0.768 Q 3.672 -0.768 4.278 -0.696 Q 4.884 -0.624 5.232 -0.324 Q 5.58 -0.024 5.58 0.66 Q 5.58 1.26 5.286 1.674 Q 4.992 2.088 4.506 2.34 Q 4.02 2.592 3.438 2.706 Q 2.856 2.82 2.292 2.82 Q 1.512 2.82 1.062 2.628 Q 0.612 2.436 0.432 2.13 Q 0.252 1.824 0.252 1.5 Q 0.252 1.2 0.498 0.87 Q 0.744 0.54 1.224 0.072 L 1.224 0.024 Q 0.924 -0.132 0.738 -0.36 Q 0.552 -0.588 0.552 -0.84 Q 0.552 -1.164 0.834 -1.524 Q 1.116 -1.884 1.536 -2.208 Z M 1.524 0.12 L 1.524 0.12 Q 1.332 0.456 1.26 0.678 Q 1.188 0.9 1.188 1.092 Q 1.188 2.136 2.988 2.136 Q 3.696 2.136 4.134 1.956 Q 4.572 1.776 4.77 1.512 Q 4.968 1.248 4.968 0.996 Q 4.968 0.684 4.776 0.51 Q 4.584 0.336 4.278 0.264 Q 3.972 0.192 3.63 0.168 Q 3.288 0.144 2.988 0.144 Q 2.916 0.144 2.88 0.144 Q 2.4 0.132 2.136 0.132 Q 1.872 0.132 1.74 0.126 Q 1.608 0.12 1.524 0.12 Z M 2.7 -5.388 L 2.7 -5.388 Q 2.232 -5.388 1.95 -5.028 Q 1.668 -4.668 1.668 -3.912 Q 1.668 -3.144 1.968 -2.718 Q 2.268 -2.292 2.856 -2.292 Q 3.312 -2.292 3.606 -2.604 Q 3.9 -2.916 3.9 -3.768 Q 3.9 -4.5 3.588 -4.944 Q 3.276 -5.388 2.7 -5.388 Z " /></symbol><use href="#STIXTwoMathRegular_261" x="436.758" y="-207.912" width="22.656" height="204.864" fill="white" /><symbol id="STIXTwoMathRegular_4450" viewBox="0 -31.524 7.224 51.216"><path d="M 4.236 -3.852 L 4.236 -3.852 L 4.86 -4.956 Q 5.148 -5.436 5.556 -5.82 Q 5.964 -6.204 6.552 -6.204 Q 6.936 -6.204 7.08 -6.054 Q 7.224 -5.904 7.224 -5.628 Q 7.224 -5.388 7.044 -5.184 Q 6.864 -4.98 6.612 -4.98 Q 6.492 -4.98 6.258 -5.052 Q 6.024 -5.124 5.928 -5.124 Q 5.664 -5.124 5.514 -4.986 Q 5.364 -4.848 5.208 -4.608 L 4.404 -3.3 L 4.704 -2.412 Q 4.98 -1.5 5.208 -1.158 Q 5.436 -0.816 5.724 -0.816 Q 5.964 -0.816 6.162 -1.014 Q 6.36 -1.212 6.636 -1.56 L 6.948 -1.32 Q 6.768 -1.044 6.528 -0.702 Q 6.288 -0.36 5.946 -0.12 Q 5.604 0.12 5.136 0.12 Q 4.62 0.12 4.368 -0.246 Q 4.116 -0.612 3.948 -1.308 L 3.684 -2.484 L 3.624 -2.484 L 2.772 -1.14 Q 2.448 -0.648 2.082 -0.264 Q 1.716 0.12 1.14 0.12 Q 0.708 0.12 0.534 -0.09 Q 0.36 -0.3 0.36 -0.528 Q 0.36 -0.732 0.504 -0.924 Q 0.648 -1.116 0.852 -1.116 Q 1.056 -1.116 1.32 -1.038 Q 1.584 -0.96 1.704 -0.96 Q 1.704 -0.96 1.704 -0.96 Q 1.74 -0.96 1.83 -0.99 Q 1.92 -1.02 2.076 -1.17 Q 2.232 -1.32 2.496 -1.68 L 3.432 -2.988 L 3.06 -4.176 Q 2.88 -4.728 2.7 -5.034 Q 2.52 -5.34 2.262 -5.46 Q 2.004 -5.58 1.596 -5.568 Q 1.464 -5.568 1.368 -5.562 Q 1.272 -5.556 1.272 -5.556 L 1.272 -6.012 L 3.12 -6.156 L 3.396 -6.156 Q 3.588 -5.844 3.75 -5.394 Q 3.912 -4.944 3.996 -4.62 L 4.164 -3.852 Z " /></symbol><use href="#STIXTwoMathRegular_4450" x="459.366" y="-160.003" width="20.227" height="143.405" fill="white" /><use href="#STIXTwoMathRegular_1141" x="480.702" y="-207.912" width="23.088" height="204.864" fill="white" /><symbol id="STIXTwoMathRegular_3329" viewBox="0 -31.524 6.36 51.216"><path d="M 6.348 -8.46 L 6.348 -8.46 L 5.076 -1.452 Q 5.076 -1.452 5.046 -1.26 Q 5.016 -1.068 5.016 -0.948 Q 5.016 -0.72 5.244 -0.72 Q 5.532 -0.72 5.766 -0.948 Q 6 -1.176 6.12 -1.344 L 6.36 -1.164 Q 6.18 -0.9 5.952 -0.6 Q 5.724 -0.3 5.43 -0.09 Q 5.136 0.12 4.716 0.12 Q 4.356 0.12 4.17 -0.054 Q 3.984 -0.228 3.984 -0.504 Q 3.984 -0.612 4.008 -0.762 Q 4.032 -0.912 4.044 -1.02 L 3.948 -1.02 Q 3.504 -0.468 2.994 -0.162 Q 2.484 0.144 1.956 0.144 Q 1.296 0.144 0.87 -0.372 Q 0.444 -0.888 0.444 -1.944 Q 0.444 -2.748 0.69 -3.438 Q 0.936 -4.128 1.368 -4.65 Q 1.8 -5.172 2.364 -5.46 Q 2.928 -5.748 3.552 -5.748 Q 3.96 -5.748 4.26 -5.622 Q 4.56 -5.496 4.776 -5.268 L 4.812 -5.268 L 5.208 -7.284 Q 5.208 -7.284 5.226 -7.416 Q 5.244 -7.548 5.244 -7.668 Q 5.244 -7.824 5.172 -7.932 Q 5.1 -8.04 4.824 -8.04 Q 4.716 -8.04 4.584 -8.028 Q 4.452 -8.016 4.452 -8.016 L 4.452 -8.328 L 6.084 -8.46 Z M 4.152 -2.124 L 4.152 -2.124 Q 4.308 -2.58 4.386 -3.018 Q 4.464 -3.456 4.494 -3.78 Q 4.524 -4.104 4.524 -4.212 Q 4.524 -4.596 4.272 -4.944 Q 4.02 -5.292 3.492 -5.292 Q 3.036 -5.292 2.67 -5.004 Q 2.304 -4.716 2.046 -4.242 Q 1.788 -3.768 1.65 -3.192 Q 1.512 -2.616 1.512 -2.028 Q 1.512 -1.212 1.77 -0.93 Q 2.028 -0.648 2.472 -0.648 Q 3.084 -0.648 3.498 -1.044 Q 3.912 -1.44 4.152 -2.124 Z " /></symbol><use href="#STIXTwoMathRegular_3329" x="515.147" y="-207.912" width="25.44" height="204.864" fill="white" /><symbol id="STIXTwoMathRegular_3354" viewBox="0 -31.524 6.48 51.216"><path d="M 3.78 -3.576 L 3.78 -3.576 L 4.368 -4.584 Q 4.608 -5.016 4.98 -5.382 Q 5.352 -5.748 5.88 -5.748 Q 6.228 -5.748 6.354 -5.61 Q 6.48 -5.472 6.48 -5.22 Q 6.48 -5.004 6.324 -4.83 Q 6.168 -4.656 5.928 -4.656 Q 5.784 -4.656 5.604 -4.716 Q 5.424 -4.776 5.304 -4.776 Q 5.1 -4.776 4.956 -4.65 Q 4.812 -4.524 4.656 -4.272 L 3.924 -3.108 L 4.176 -2.292 Q 4.428 -1.464 4.638 -1.104 Q 4.848 -0.744 5.124 -0.744 Q 5.364 -0.744 5.556 -0.918 Q 5.748 -1.092 5.988 -1.416 L 6.24 -1.224 Q 6.072 -0.96 5.838 -0.648 Q 5.604 -0.336 5.292 -0.108 Q 4.98 0.12 4.572 0.12 Q 4.164 0.12 3.942 -0.204 Q 3.72 -0.528 3.588 -1.116 L 3.288 -2.328 L 3.24 -2.328 L 2.472 -1.08 Q 2.184 -0.612 1.848 -0.252 Q 1.512 0.108 0.972 0.108 Q 0.588 0.108 0.432 -0.072 Q 0.276 -0.252 0.276 -0.48 Q 0.276 -0.66 0.402 -0.822 Q 0.528 -0.984 0.744 -0.984 Q 0.948 -0.984 1.146 -0.906 Q 1.344 -0.828 1.5 -0.828 Q 1.524 -0.828 1.608 -0.858 Q 1.692 -0.888 1.848 -1.032 Q 2.004 -1.176 2.232 -1.512 L 3.096 -2.772 L 2.76 -3.864 Q 2.604 -4.368 2.448 -4.656 Q 2.292 -4.944 2.064 -5.07 Q 1.836 -5.196 1.44 -5.184 Q 1.296 -5.184 1.182 -5.166 Q 1.068 -5.148 1.068 -5.148 L 1.068 -5.508 L 2.736 -5.7 L 2.916 -5.7 Q 3.132 -5.448 3.306 -5.064 Q 3.48 -4.68 3.6 -4.188 L 3.744 -3.576 Z " /></symbol><use href="#STIXTwoMathRegular_3354" x="541.835" y="-207.912" width="25.92" height="204.864" fill="white" /><use href="#STIXTwoMathRegular_1141" x="411.239" y="-95.376" width="23.088" height="204.864" fill="white" /><rect x="277.667" y="-14.016" width="290.281" height="3.264" fill="white" /><symbol id="STIXTwoMathRegular_1196" viewBox="0 -31.524 7.896 51.216"><path d="M 7.896 -2.7 L 7.896 -2.7 L 4.752 -2.7 L 4.752 0.48 L 3.888 0.48 L 3.888 -2.7 L 0.744 -2.7 L 0.744 -3.516 L 3.888 -3.516 L 3.888 -6.696 L 4.752 -6.696 L 4.752 -3.516 L 7.896 -3.516 Z " /></symbol><use href="#STIXTwoMathRegular_1196" x="592.83" y="-126.096" width="31.584" height="204.864" fill="white" /><use href="#STIXTwoMathRegular_1141" x="644.729" y="-91.828" width="11.313" height="100.383" fill="white" /><use href="#STIXTwoMathRegular_1657" x="640.291" y="-137.52" width="39.792" height="204.864" fill="white" /><use href="#STIXTwoMathRegular_1141" x="678.403" y="-126.096" width="23.088" height="204.864" fill="white" /><use href="#STIXTwoMathRegular_1657" x="702.163" y="-126.096" width="39.792" height="204.864" fill="white" /><use href="#STIXTwoMathRegular_1141" x="740.275" y="-126.096" width="23.088" height="204.864" fill="white" /><rect x="740.275" y="-44.256" width="23.76" height="3.264" fill="white" /><rect x="678.403" y="-55.68" width="85.632" height="3.264" fill="white" /><symbol id="STIXTwoMathRegular_1779" viewBox="0 -31.524 7.824 51.216"><path d="M 7.416 -5.832 L 7.416 -5.832 L 7.824 -5.832 Q 7.8 -5.436 7.662 -5.004 Q 7.524 -4.572 7.278 -4.188 Q 7.032 -3.804 6.684 -3.564 Q 6.336 -3.324 5.88 -3.324 Q 5.436 -3.324 4.98 -3.564 Q 4.524 -3.804 4.08 -4.11 Q 3.636 -4.416 3.234 -4.656 Q 2.832 -4.896 2.508 -4.896 Q 2.076 -4.896 1.776 -4.656 Q 1.476 -4.416 1.284 -4.032 Q 1.092 -3.648 0.996 -3.204 L 0.588 -3.204 Q 0.624 -3.816 0.87 -4.392 Q 1.116 -4.968 1.554 -5.34 Q 1.992 -5.712 2.592 -5.712 Q 3.036 -5.712 3.492 -5.472 Q 3.948 -5.232 4.392 -4.926 Q 4.836 -4.62 5.238 -4.38 Q 5.64 -4.14 5.976 -4.14 Q 6.408 -4.14 6.69 -4.38 Q 6.972 -4.62 7.152 -5.01 Q 7.332 -5.4 7.416 -5.832 Z M 7.416 -2.928 L 7.416 -2.928 L 7.824 -2.928 Q 7.8 -2.532 7.662 -2.1 Q 7.524 -1.668 7.278 -1.29 Q 7.032 -0.912 6.684 -0.672 Q 6.336 -0.432 5.88 -0.432 Q 5.436 -0.432 4.98 -0.672 Q 4.524 -0.912 4.08 -1.218 Q 3.636 -1.524 3.234 -1.764 Q 2.832 -2.004 2.508 -2.004 Q 2.076 -2.004 1.776 -1.758 Q 1.476 -1.512 1.284 -1.128 Q 1.092 -0.744 0.996 -0.3 L 0.588 -0.3 Q 0.624 -0.924 0.87 -1.494 Q 1.116 -2.064 1.554 -2.436 Q 1.992 -2.808 2.592 -2.808 Q 3.036 -2.808 3.492 -2.568 Q 3.948 -2.328 4.392 -2.022 Q 4.836 -1.716 5.238 -1.476 Q 5.64 -1.236 5.976 -1.236 Q 6.408 -1.236 6.69 -1.476 Q 6.972 -1.716 7.152 -2.106 Q 7.332 -2.496 7.416 -2.928 Z " /></symbol><use href="#STIXTwoMathRegular_1779" x="781.808" y="-126.096" width="31.296" height="204.864" fill="white" /><symbol id="STIXTwoMathRegular_4030" viewBox="0 -31.524 7.524 51.216"><path d="M 7.5 -5.676 L 7.5 -5.676 L 7.524 -5.532 Q 7.5 -5.388 7.35 -5.172 Q 7.2 -4.956 6.936 -4.794 Q 6.672 -4.632 6.264 -4.632 Q 6.132 -4.632 5.988 -4.632 Q 5.844 -4.632 5.616 -4.644 Q 5.544 -4.428 5.418 -4.038 Q 5.292 -3.648 5.166 -3.174 Q 5.04 -2.7 4.95 -2.25 Q 4.86 -1.8 4.86 -1.452 Q 4.86 -1.212 4.95 -0.972 Q 5.04 -0.732 5.328 -0.732 Q 5.64 -0.732 5.826 -0.822 Q 6.012 -0.912 6.168 -1.032 L 6.324 -0.828 Q 6.024 -0.384 5.634 -0.138 Q 5.244 0.108 4.692 0.108 Q 4.26 0.108 4.086 -0.168 Q 3.912 -0.444 3.912 -0.816 Q 3.912 -1.332 4.104 -1.974 Q 4.296 -2.616 4.572 -3.306 Q 4.848 -3.996 5.088 -4.656 Q 4.644 -4.668 4.23 -4.68 Q 3.816 -4.692 3.372 -4.692 Q 3.288 -4.308 3.12 -3.798 Q 2.952 -3.288 2.742 -2.73 Q 2.532 -2.172 2.304 -1.638 Q 2.076 -1.104 1.866 -0.672 Q 1.656 -0.24 1.512 0 L 0.372 0 L 0.372 -0.168 Q 0.648 -0.552 0.816 -0.792 Q 0.984 -1.032 1.17 -1.302 Q 1.356 -1.572 1.644 -2.028 Q 2.112 -2.748 2.4 -3.342 Q 2.688 -3.936 2.904 -4.704 Q 2.268 -4.704 1.908 -4.674 Q 1.548 -4.644 1.326 -4.512 Q 1.104 -4.38 0.84 -4.068 L 0.576 -4.248 Q 0.96 -5.04 1.566 -5.352 Q 2.172 -5.664 3.024 -5.664 Q 3.672 -5.664 4.224 -5.64 Q 4.776 -5.616 5.412 -5.604 Q 6.528 -5.604 7.5 -5.676 Z " /></symbol><use href="#STIXTwoMathRegular_4030" x="833.23" y="-126.096" width="30.096" height="204.864" fill="white" /></svg>